<svg width="157" height="42" viewBox="0 0 157 42" fill="none" xmlns="http://www.w3.org/2000/svg">
<path d="M50.7019 12.9807V16.5796C50.5944 16.1163 50.2304 15.5537 49.6099 14.9001C48.9977 14.2465 48.1786 13.6674 47.1527 13.171C46.1351 12.6663 44.9272 12.4182 43.5456 12.4182C41.7669 12.4182 40.1536 12.8401 38.714 13.6922C37.2662 14.5444 36.1245 15.7274 35.2724 17.2497C34.4202 18.772 33.9983 20.5507 33.9983 22.5942C33.9983 24.6377 34.4202 26.4165 35.2724 27.9387C36.1245 29.461 37.2662 30.6441 38.714 31.488C40.1536 32.3235 41.7669 32.7455 43.5456 32.7455C44.9438 32.7455 46.1682 32.4725 47.2024 31.9181C48.2365 31.3638 49.0556 30.7434 49.6595 30.0567C50.2635 29.37 50.6192 28.8322 50.7516 28.4434V32.1829H54.7227V12.9807H50.7019ZM49.8333 26.16C49.2872 27.1859 48.5509 27.9718 47.616 28.5344C46.6729 29.097 45.6139 29.3783 44.4308 29.3783C43.3222 29.3783 42.2798 29.1053 41.3118 28.551C40.3356 27.9966 39.5414 27.2107 38.9374 26.2014C38.3252 25.1838 38.0191 23.9841 38.0191 22.5942C38.0191 21.2043 38.3252 20.0047 38.9374 18.9954C39.5414 17.9778 40.3356 17.1918 41.3118 16.6292C42.2798 16.0666 43.3222 15.7854 44.4308 15.7854C45.6139 15.7854 46.6729 16.0749 47.616 16.6458C48.5509 17.2084 49.2872 18.0109 49.8333 19.0285C50.3793 20.0461 50.6523 21.2374 50.6523 22.5942C50.6523 23.951 50.3793 25.1424 49.8333 26.16Z" fill="#171821"/>
<path d="M63.8565 12.9807H59.786V32.1912H63.8565V12.9807Z" fill="#171821"/>
<path d="M63.2193 1.42302C62.8056 1.17482 62.3589 1.05072 61.8707 1.05072C61.1344 1.05072 60.5057 1.31546 59.9844 1.84495C59.4632 2.37444 59.1985 3.0032 59.1985 3.73952C59.1985 4.47584 59.4632 5.09633 59.9844 5.62582C60.5057 6.14703 61.1344 6.41178 61.8707 6.41178C62.6153 6.41178 63.2606 6.14703 63.7901 5.62582C64.3196 5.1046 64.5844 4.47584 64.5844 3.73952C64.5844 3.24313 64.4603 2.7881 64.2121 2.39099C63.9639 2.00214 63.6329 1.67949 63.2193 1.42302Z" fill="#171821"/>
<path d="M73.4947 0H69.3994V32.1911H73.4947V0Z" fill="#171821"/>
<path d="M99.0012 17.2497C98.2152 15.7274 97.1314 14.5444 95.7498 13.6922C94.3682 12.8401 92.788 12.4182 91.0175 12.4182C89.611 12.4182 88.3701 12.6663 87.2863 13.1545C86.1942 13.6509 85.3338 14.2217 84.6968 14.8753C84.0597 15.5289 83.6709 16.0997 83.5302 16.5796V12.9807H79.4102V41.9205H83.4558V28.4434C83.555 28.8488 83.9025 29.3948 84.523 30.0815C85.1352 30.7682 85.9874 31.3804 87.0712 31.9264C88.155 32.4725 89.4208 32.7455 90.8769 32.7455C92.6639 32.7455 94.2606 32.3236 95.6588 31.488C97.057 30.6441 98.1573 29.461 98.9681 27.9387C99.7789 26.4165 100.184 24.6377 100.184 22.5942C100.184 20.5507 99.7871 18.772 99.0012 17.2497ZM95.303 26.2014C94.7405 27.2107 93.9876 27.9966 93.0527 28.551C92.1096 29.1053 91.1002 29.3783 90.0082 29.3783C88.8085 29.3783 87.7165 29.097 86.732 28.5344C85.7475 27.9718 84.9698 27.1859 84.3906 26.16C83.8198 25.1424 83.5302 23.951 83.5302 22.5942C83.5302 21.2374 83.8198 20.0461 84.3906 19.0285C84.9698 18.0109 85.7475 17.2084 86.732 16.6458C87.7165 16.0749 88.8085 15.7854 90.0082 15.7854C91.1002 15.7854 92.1096 16.0666 93.0527 16.6292C93.9876 17.1918 94.7405 17.9778 95.303 18.9954C95.8739 20.0047 96.1635 21.2043 96.1635 22.5942C96.1635 23.9841 95.8739 25.1838 95.303 26.2014Z" fill="#6666FF"/>
<path d="M108.217 12.9807H104.147V32.1912H108.217V12.9807Z" fill="#6666FF"/>
<path d="M107.572 1.42302C107.158 1.17482 106.712 1.05072 106.224 1.05072C105.487 1.05072 104.858 1.31546 104.337 1.84495C103.816 2.37444 103.551 3.0032 103.551 3.73952C103.551 4.47584 103.816 5.09633 104.337 5.62582C104.858 6.14703 105.487 6.41178 106.224 6.41178C106.968 6.41178 107.613 6.14703 108.143 5.62582C108.672 5.1046 108.937 4.47584 108.937 3.73952C108.937 3.24313 108.813 2.7881 108.565 2.39099C108.317 2.00214 107.986 1.67949 107.572 1.42302Z" fill="#6666FF"/>
<path d="M117.732 0H113.636V32.1911H117.732V0Z" fill="#6666FF"/>
<path d="M140.442 17.4483C139.581 15.9012 138.398 14.6767 136.876 13.775C135.354 12.8732 133.608 12.4182 131.647 12.4182C129.662 12.4182 127.908 12.8732 126.369 13.775C124.83 14.6767 123.63 15.9012 122.753 17.4483C121.885 18.9954 121.446 20.7245 121.446 22.6439C121.446 24.5633 121.885 26.2758 122.753 27.7981C123.63 29.3204 124.83 30.5282 126.369 31.4135C127.908 32.307 129.662 32.7455 131.647 32.7455C133.608 32.7455 135.354 32.307 136.876 31.4135C138.398 30.5282 139.581 29.3204 140.442 27.7981C141.302 26.2758 141.724 24.5633 141.724 22.6439C141.724 20.7245 141.302 18.9954 140.442 17.4483ZM137.074 26.0193C136.561 27.0287 135.833 27.8229 134.907 28.3938C133.98 28.9729 132.896 29.2625 131.647 29.2625C130.381 29.2625 129.281 28.9729 128.346 28.3938C127.411 27.8229 126.683 27.0287 126.162 26.0193C125.641 25.0183 125.376 23.8849 125.376 22.619C125.376 21.3532 125.641 20.2198 126.162 19.2022C126.683 18.1929 127.411 17.3821 128.346 16.7947C129.281 16.199 130.381 15.9012 131.647 15.9012C132.896 15.9012 133.98 16.199 134.907 16.7947C135.833 17.3821 136.561 18.1929 137.074 19.2022C137.587 20.2198 137.844 21.3532 137.844 22.619C137.844 23.8849 137.587 25.0183 137.074 26.0193Z" fill="#6666FF"/>
<path d="M154.903 28.4682C154.837 28.5426 154.647 28.6915 154.316 28.9149C153.985 29.13 153.53 29.2458 152.934 29.2458C152.264 29.2458 151.726 28.9811 151.329 28.4516C150.932 27.9221 150.734 27.0948 150.734 25.9696V16.472H155.673V12.9889H150.734V5.10455L142.924 16.472H146.688V27.0452C146.688 29.0225 147.193 30.4703 148.194 31.3803C149.203 32.2904 150.452 32.7454 151.95 32.7454C152.81 32.7454 153.555 32.6627 154.192 32.4889C154.829 32.3152 155.35 32.1249 155.755 31.9016C156.161 31.6864 156.409 31.5375 156.5 31.4548L154.903 28.4682Z" fill="#6666FF"/>
<path d="M25.7416 11.6487H5.35638C2.67586 11.6487 0.5 13.8246 0.5 16.5134V27.3265C0.5 30.007 2.67586 32.1829 5.35638 32.1829H25.7416C28.4304 32.1829 30.6063 30.007 30.6063 27.3265V16.5134C30.6063 13.8246 28.4304 11.6487 25.7416 11.6487ZM27.297 27.3265C27.297 28.1787 26.602 28.8736 25.7416 28.8736H5.35638C4.50424 28.8736 3.80929 28.1787 3.80929 27.3265V16.5134C3.80929 15.653 4.50424 14.958 5.35638 14.958H25.7416C26.602 14.958 27.297 15.653 27.297 16.5134V27.3265Z" fill="#171821"/>
<path d="M15.5573 23.1071L6.9945 17.3738L5.15784 20.1288L15.549 27.0783L26.0147 20.1288L24.1863 17.3738L15.5573 23.1071Z" fill="#171821"/>
</svg>
