<svg width="24" height="25" viewBox="0 0 24 25" fill="none" xmlns="http://www.w3.org/2000/svg">
<path d="M2 7.49976L10.1649 13.2152C10.8261 13.678 11.1567 13.9094 11.5163 13.9991C11.8339 14.0782 12.1661 14.0782 12.4837 13.9991C12.8433 13.9094 13.1739 13.678 13.8351 13.2152L22 7.49976M6.8 20.4998H17.2C18.8802 20.4998 19.7202 20.4998 20.362 20.1728C20.9265 19.8852 21.3854 19.4262 21.673 18.8617C22 18.22 22 17.3799 22 15.6998V9.29976C22 7.6196 22 6.77952 21.673 6.13778C21.3854 5.5733 20.9265 5.11436 20.362 4.82674C19.7202 4.49976 18.8802 4.49976 17.2 4.49976H6.8C5.11984 4.49976 4.27976 4.49976 3.63803 4.82674C3.07354 5.11436 2.6146 5.5733 2.32698 6.13778C2 6.77952 2 7.6196 2 9.29976V15.6998C2 17.3799 2 18.22 2.32698 18.8617C2.6146 19.4262 3.07354 19.8852 3.63803 20.1728C4.27976 20.4998 5.11984 20.4998 6.8 20.4998Z" stroke="#7D7D7D" stroke-width="2" stroke-linecap="round" stroke-linejoin="round"/>
</svg>
