<svg width="443" height="322" viewBox="0 0 443 322" fill="none" xmlns="http://www.w3.org/2000/svg">
<g clip-path="url(#clip0_274_5393)">
<path d="M345.225 0.232178L442.471 216.428L262.307 320.897L0.5 192.881L345.225 0.232178Z" fill="#ECF3FE"/>
<path d="M144.759 300.804C142.642 300.804 140.496 300.717 138.378 300.514C138.001 300.485 137.711 300.137 137.769 299.788C137.798 299.411 138.117 299.12 138.494 299.149C140.902 299.382 143.396 299.498 145.803 299.44C146.209 299.44 146.499 299.73 146.499 300.107C146.499 300.485 146.209 300.804 145.832 300.804C145.484 300.804 145.126 300.804 144.759 300.804ZM153.199 300.282C152.88 300.282 152.59 300.049 152.532 299.701C152.503 299.324 152.764 298.975 153.112 298.946C155.548 298.627 157.955 298.191 160.333 297.61C160.682 297.523 161.059 297.756 161.146 298.104C161.233 298.482 161.001 298.83 160.653 298.917C158.245 299.527 155.751 299.962 153.286 300.282C153.267 300.282 153.238 300.282 153.199 300.282ZM131.128 299.411C131.07 299.411 131.021 299.411 130.983 299.411C128.547 298.888 126.11 298.249 123.761 297.465C123.384 297.349 123.21 296.972 123.326 296.594C123.442 296.246 123.819 296.043 124.167 296.188C126.487 296.943 128.866 297.581 131.244 298.075C131.621 298.133 131.853 298.511 131.766 298.859C131.708 299.207 131.418 299.411 131.128 299.411ZM167.584 296.797C167.294 296.797 167.033 296.652 166.946 296.362C166.801 296.014 167.004 295.607 167.352 295.491C169.643 294.649 171.906 293.691 174.081 292.587C174.4 292.442 174.835 292.558 174.98 292.907C175.154 293.255 175.009 293.662 174.69 293.807C172.457 294.939 170.136 295.926 167.816 296.768C167.739 296.788 167.661 296.797 167.584 296.797ZM117.062 294.794C116.965 294.794 116.868 294.775 116.772 294.736C114.538 293.691 112.305 292.529 110.159 291.252C109.84 291.049 109.753 290.642 109.927 290.323C110.13 290.003 110.536 289.887 110.855 290.09C112.943 291.339 115.147 292.471 117.352 293.487C117.7 293.662 117.845 294.068 117.671 294.388C117.555 294.649 117.323 294.794 117.062 294.794ZM180.809 290.236C180.577 290.236 180.374 290.119 180.229 289.916C180.026 289.597 180.142 289.19 180.432 288.987C182.491 287.651 184.493 286.229 186.378 284.69C186.668 284.429 187.103 284.487 187.335 284.777C187.567 285.067 187.538 285.503 187.248 285.735C185.305 287.303 183.275 288.784 181.186 290.119C181.07 290.197 180.945 290.236 180.809 290.236ZM104.387 287.187C104.242 287.187 104.097 287.129 103.981 287.042C102.009 285.532 100.095 283.906 98.2969 282.193C98.0068 281.931 98.0068 281.496 98.2679 281.206C98.5289 280.944 98.9639 280.944 99.2249 281.206C100.994 282.89 102.85 284.487 104.793 285.967C105.083 286.2 105.141 286.606 104.938 286.926C104.793 287.1 104.59 287.187 104.387 287.187ZM192.294 280.886C192.12 280.886 191.946 280.828 191.801 280.712C191.54 280.451 191.54 280.015 191.801 279.754C193.512 278.012 195.137 276.153 196.645 274.237C196.877 273.947 197.312 273.889 197.602 274.121C197.892 274.353 197.95 274.789 197.718 275.079C196.181 277.025 194.499 278.912 192.758 280.683C192.642 280.828 192.468 280.886 192.294 280.886ZM93.6854 276.966C93.5114 276.966 93.3084 276.879 93.1634 276.734C91.5683 274.818 90.0601 272.814 88.697 270.724C88.494 270.434 88.552 269.998 88.871 269.795C89.19 269.592 89.5961 269.679 89.8281 269.969C91.1622 272.001 92.6414 273.976 94.2075 275.834C94.4395 276.124 94.4105 276.56 94.1205 276.792C94.0045 276.908 93.8595 276.966 93.6854 276.966ZM201.43 269.272C201.295 269.272 201.179 269.233 201.082 269.156C200.763 268.982 200.647 268.546 200.85 268.227C202.126 266.165 203.315 263.988 204.359 261.781C204.533 261.462 204.94 261.317 205.288 261.462C205.607 261.636 205.752 262.042 205.607 262.391C204.533 264.627 203.315 266.833 202.01 268.953C201.865 269.156 201.662 269.272 201.43 269.272ZM85.5067 264.656C85.2457 264.656 85.0137 264.51 84.8977 264.278C83.7665 262.071 82.7225 259.778 81.8524 257.455C81.7074 257.106 81.8814 256.7 82.2294 256.584C82.5774 256.439 82.9835 256.613 83.0995 256.961C83.9696 259.255 84.9847 261.491 86.1158 263.668C86.2608 263.988 86.1448 264.394 85.7967 264.568C85.7001 264.627 85.6034 264.656 85.5067 264.656ZM207.782 255.916C207.704 255.916 207.637 255.897 207.579 255.858C207.202 255.742 207.028 255.364 207.144 255.016C207.956 252.693 208.623 250.341 209.145 247.96C209.232 247.583 209.609 247.351 209.957 247.438C210.334 247.525 210.566 247.873 210.479 248.251C209.928 250.69 209.232 253.1 208.42 255.451C208.333 255.742 208.072 255.916 207.782 255.916ZM80.2282 250.835C79.9092 250.835 79.6482 250.632 79.5612 250.312C78.9521 247.902 78.4591 245.434 78.111 242.966C78.053 242.618 78.3141 242.269 78.6911 242.211C79.0391 242.153 79.3872 242.415 79.4452 242.792C79.7932 245.202 80.2572 247.612 80.8663 249.993C80.9823 250.341 80.7503 250.719 80.4022 250.806C80.3442 250.825 80.2862 250.835 80.2282 250.835ZM211.03 241.456C211.011 241.456 210.991 241.456 210.972 241.456C210.595 241.427 210.334 241.079 210.363 240.702C210.624 238.292 210.769 235.824 210.769 233.385C210.769 231.991 210.711 230.597 210.624 229.204C210.595 228.826 210.885 228.507 211.262 228.478C211.639 228.478 211.958 228.739 211.987 229.117C212.074 230.539 212.132 231.962 212.132 233.385C212.132 235.882 211.987 238.408 211.697 240.876C211.668 241.224 211.378 241.456 211.03 241.456ZM78.14 236.172C77.763 236.172 77.473 235.882 77.444 235.533C77.444 234.807 77.415 234.111 77.415 233.385C77.415 231.614 77.502 229.813 77.647 228.042C77.676 227.665 77.995 227.403 78.3721 227.432C78.7491 227.462 79.0101 227.781 78.9811 228.158C78.8651 229.871 78.7781 231.643 78.7781 233.385C78.7781 234.082 78.8071 234.778 78.8071 235.475C78.8361 235.853 78.5461 236.172 78.169 236.172C78.1497 236.172 78.14 236.172 78.14 236.172ZM210.45 222.496C210.102 222.496 209.841 222.264 209.783 221.916C209.348 219.535 208.797 217.125 208.101 214.773C208.014 214.425 208.217 214.047 208.565 213.931C208.942 213.844 209.319 214.047 209.406 214.396C210.102 216.777 210.682 219.245 211.117 221.684C211.175 222.061 210.914 222.409 210.566 222.467C210.527 222.487 210.489 222.496 210.45 222.496ZM79.3001 221.422C79.2615 221.422 79.2131 221.422 79.1551 221.422C78.8071 221.364 78.5461 220.987 78.6331 220.638C79.0971 218.17 79.7062 215.731 80.4603 213.35C80.5473 213.002 80.9533 212.799 81.3013 212.915C81.6494 213.031 81.8524 213.408 81.7364 213.757C81.0113 216.08 80.4312 218.49 79.9672 220.871C79.9092 221.219 79.6192 221.422 79.3001 221.422ZM206.274 208.298C206.013 208.298 205.752 208.124 205.665 207.863C204.708 205.627 203.634 203.391 202.445 201.272C202.271 200.952 202.387 200.546 202.706 200.343C203.054 200.168 203.46 200.285 203.634 200.604C204.853 202.782 205.955 205.046 206.912 207.34C207.057 207.689 206.883 208.095 206.535 208.24C206.457 208.279 206.37 208.298 206.274 208.298ZM83.6795 207.311C83.5829 207.311 83.4959 207.292 83.4185 207.253C83.0705 207.079 82.9255 206.701 83.0705 206.353C84.0566 204.059 85.1877 201.823 86.4348 199.675C86.6378 199.355 87.0438 199.239 87.3629 199.414C87.6819 199.617 87.7979 200.023 87.6239 200.343C86.4058 202.462 85.2747 204.669 84.3176 206.905C84.2016 207.137 83.9406 207.311 83.6795 207.311ZM199.081 195.378C198.878 195.378 198.675 195.262 198.53 195.087C197.138 193.084 195.572 191.168 193.948 189.338C193.715 189.077 193.745 188.641 194.006 188.38C194.296 188.148 194.731 188.177 194.963 188.438C196.645 190.296 198.211 192.271 199.632 194.303C199.864 194.594 199.777 195.029 199.487 195.232C199.371 195.32 199.226 195.378 199.081 195.378ZM91.0752 194.478C90.9592 194.478 90.8142 194.449 90.6982 194.361C90.3791 194.129 90.3211 193.694 90.5532 193.403C92.0033 191.4 93.6274 189.454 95.3096 187.625C95.5706 187.364 95.9767 187.335 96.2667 187.596C96.5277 187.858 96.5567 188.293 96.2957 188.554C94.6425 190.355 93.0764 192.242 91.6263 194.216C91.5103 194.39 91.3072 194.478 91.0752 194.478ZM189.22 184.344C189.075 184.344 188.901 184.286 188.785 184.17C186.958 182.544 185.044 181.005 183.072 179.583C182.753 179.35 182.695 178.944 182.898 178.624C183.13 178.334 183.536 178.247 183.855 178.479C185.885 179.902 187.828 181.499 189.684 183.154C189.974 183.415 190.003 183.822 189.742 184.112C189.597 184.257 189.423 184.344 189.22 184.344ZM101.11 183.618C100.936 183.618 100.733 183.531 100.617 183.386C100.356 183.096 100.385 182.66 100.675 182.428C102.56 180.802 104.532 179.263 106.592 177.84C106.911 177.637 107.317 177.724 107.52 178.015C107.752 178.334 107.665 178.741 107.346 178.973C105.344 180.337 103.401 181.847 101.574 183.444C101.429 183.56 101.284 183.618 101.11 183.618ZM177.184 175.75C177.087 175.75 176.981 175.721 176.865 175.663C174.748 174.472 172.515 173.398 170.281 172.44C169.933 172.295 169.759 171.888 169.904 171.54C170.049 171.22 170.455 171.046 170.803 171.191C173.095 172.15 175.357 173.253 177.532 174.472C177.851 174.647 177.967 175.053 177.793 175.401C177.677 175.605 177.445 175.75 177.184 175.75ZM113.291 175.227C113.059 175.227 112.827 175.082 112.682 174.879C112.508 174.53 112.624 174.124 112.972 173.95C115.147 172.759 117.439 171.714 119.73 170.785C120.078 170.64 120.484 170.814 120.629 171.162C120.774 171.511 120.6 171.888 120.252 172.033C117.99 172.933 115.756 173.979 113.61 175.14C113.514 175.198 113.407 175.227 113.291 175.227ZM163.553 170.03C163.495 170.03 163.437 170.02 163.379 170.001C161.03 169.304 158.651 168.752 156.244 168.317C155.867 168.259 155.635 167.91 155.693 167.533C155.751 167.155 156.099 166.923 156.476 166.981C158.912 167.417 161.378 167.997 163.756 168.694C164.104 168.781 164.307 169.159 164.22 169.536C164.133 169.827 163.843 170.03 163.553 170.03ZM127.009 169.711C126.719 169.711 126.429 169.536 126.342 169.217C126.255 168.869 126.458 168.491 126.835 168.375C129.214 167.736 131.679 167.185 134.144 166.807C134.492 166.749 134.84 167.01 134.898 167.359C134.956 167.736 134.724 168.085 134.347 168.143C131.94 168.52 129.533 169.043 127.183 169.711C127.125 169.711 127.067 169.711 127.009 169.711ZM148.993 167.475C148.993 167.475 148.984 167.465 148.964 167.446C146.528 167.301 144.063 167.301 141.627 167.388C141.279 167.417 140.931 167.126 140.931 166.749C140.902 166.372 141.192 166.052 141.569 166.052C144.034 165.936 146.586 165.936 149.051 166.11C149.428 166.139 149.719 166.459 149.69 166.836C149.661 167.184 149.37 167.475 148.993 167.475Z" fill="#3B82F4"/>
<path d="M374.982 279.957C374.963 279.957 374.943 279.957 374.924 279.957L367.557 279.406C367.151 279.376 366.861 279.057 366.89 278.651C366.919 278.273 367.267 277.983 367.644 278.012L375.04 278.563C375.446 278.593 375.736 278.912 375.707 279.318C375.678 279.696 375.359 279.957 374.982 279.957ZM382.175 278.97C381.914 278.97 381.711 278.854 381.566 278.651C381.362 278.302 381.449 277.867 381.769 277.663C383.683 276.473 384.901 274.411 385.075 272.205L385.626 264.801C385.655 264.394 385.974 264.104 386.38 264.133C386.757 264.162 387.047 264.51 387.018 264.888L386.496 272.292C386.293 274.963 384.814 277.431 382.552 278.854C382.416 278.931 382.291 278.97 382.175 278.97ZM360.22 278.883C360.2 278.883 360.181 278.883 360.162 278.883L352.766 278.331C352.389 278.302 352.099 277.954 352.128 277.547C352.157 277.17 352.505 276.879 352.882 276.908L360.278 277.46C360.655 277.489 360.945 277.809 360.916 278.215C360.887 278.593 360.597 278.883 360.22 278.883ZM345.428 277.78C345.428 277.78 345.419 277.78 345.399 277.78L338.004 277.228C337.598 277.199 337.307 276.85 337.337 276.444C337.366 276.066 337.714 275.776 338.12 275.805L345.486 276.357C345.892 276.386 346.182 276.734 346.153 277.112C346.124 277.489 345.805 277.78 345.428 277.78ZM330.666 276.676C330.647 276.676 330.627 276.676 330.608 276.676L323.212 276.125C322.835 276.095 322.545 275.747 322.574 275.37C322.603 274.963 322.951 274.673 323.328 274.702L330.724 275.253C331.101 275.283 331.391 275.631 331.362 276.008C331.333 276.386 331.043 276.676 330.666 276.676ZM315.904 275.573C315.884 275.573 315.865 275.573 315.846 275.573L308.45 275.021C308.073 274.992 307.754 274.644 307.783 274.266C307.812 273.86 308.16 273.569 308.566 273.598L315.933 274.15C316.339 274.179 316.629 274.528 316.6 274.905C316.571 275.283 316.252 275.573 315.904 275.573ZM301.112 274.47C301.093 274.47 301.074 274.47 301.054 274.47L293.688 273.918C293.282 273.889 292.991 273.54 293.02 273.163C293.049 272.756 293.398 272.466 293.775 272.495L301.17 273.047C301.547 273.076 301.866 273.424 301.837 273.802C301.808 274.179 301.489 274.47 301.112 274.47ZM286.35 273.366C286.331 273.366 286.311 273.366 286.292 273.366L278.896 272.815C278.519 272.785 278.229 272.466 278.258 272.06C278.287 271.682 278.635 271.363 279.012 271.392L286.408 271.943C286.785 271.972 287.075 272.321 287.046 272.727C287.017 273.076 286.698 273.366 286.35 273.366ZM271.559 272.263C271.539 272.263 271.53 272.263 271.53 272.263L264.134 271.711C263.728 271.682 263.438 271.363 263.467 270.956C263.496 270.579 263.844 270.288 264.221 270.318L271.617 270.869C272.023 270.898 272.313 271.218 272.284 271.624C272.255 272.002 271.936 272.263 271.559 272.263ZM256.796 271.189C256.777 271.189 256.758 271.179 256.738 271.16L249.343 270.637C248.965 270.608 248.675 270.259 248.704 269.853C248.733 269.475 249.053 269.185 249.459 269.214L256.854 269.766C257.231 269.795 257.521 270.114 257.492 270.521C257.463 270.898 257.173 271.189 256.796 271.189ZM242.034 270.085C242.015 270.085 241.995 270.085 241.976 270.085L234.58 269.534C234.174 269.505 233.884 269.156 233.913 268.75C233.942 268.372 234.29 268.082 234.696 268.111L242.063 268.662C242.469 268.692 242.759 269.04 242.73 269.417C242.701 269.795 242.382 270.085 242.034 270.085ZM227.707 267.414C227.533 267.414 227.388 267.356 227.243 267.24C225.415 265.643 224.371 263.32 224.371 260.881C224.371 260.668 224.381 260.455 224.4 260.242V260.01C224.429 259.604 224.777 259.313 225.183 259.342C225.56 259.371 225.85 259.72 225.821 260.126V260.329C225.802 260.523 225.792 260.707 225.792 260.881C225.792 262.914 226.662 264.83 228.171 266.165C228.461 266.427 228.49 266.891 228.229 267.182C228.113 267.327 227.91 267.414 227.707 267.414ZM386.873 258.152C386.854 258.152 386.834 258.152 386.815 258.152C386.438 258.123 386.148 257.803 386.177 257.397L386.699 249.993C386.728 249.615 387.076 249.325 387.482 249.354C387.859 249.383 388.149 249.732 388.12 250.109L387.569 257.513C387.54 257.89 387.25 258.152 386.873 258.152ZM225.676 253.39C225.657 253.39 225.638 253.38 225.618 253.361C225.212 253.332 224.922 253.013 224.951 252.606L225.502 245.231C225.531 244.825 225.879 244.534 226.256 244.563C226.662 244.592 226.953 244.941 226.924 245.318L226.372 252.722C226.343 253.1 226.024 253.39 225.676 253.39ZM387.975 243.373C387.956 243.373 387.936 243.373 387.917 243.373C387.54 243.344 387.221 242.995 387.25 242.618L387.801 235.214C387.83 234.807 388.178 234.517 388.584 234.546C388.961 234.575 389.251 234.924 389.222 235.33L388.671 242.705C388.642 243.083 388.352 243.373 387.975 243.373ZM226.778 238.582C226.759 238.582 226.74 238.582 226.72 238.582C226.314 238.553 226.024 238.205 226.053 237.827L226.604 230.423C226.633 230.046 226.982 229.755 227.359 229.784C227.765 229.813 228.055 230.133 228.026 230.539L227.475 237.914C227.446 238.292 227.127 238.582 226.778 238.582ZM389.077 228.594C389.058 228.594 389.038 228.584 389.019 228.565C388.613 228.536 388.323 228.216 388.352 227.81L388.903 220.435C388.932 220.029 389.28 219.738 389.657 219.767C390.063 219.796 390.353 220.145 390.324 220.522L389.773 227.926C389.744 228.304 389.425 228.594 389.077 228.594ZM227.852 223.803C227.852 223.803 227.842 223.803 227.823 223.803C227.417 223.774 227.127 223.426 227.156 223.019L227.707 215.644C227.736 215.238 228.084 214.947 228.461 214.976C228.867 215.006 229.157 215.354 229.128 215.731L228.577 223.135C228.548 223.513 228.229 223.803 227.852 223.803ZM390.179 213.786C390.16 213.786 390.141 213.786 390.121 213.786C389.715 213.757 389.425 213.409 389.454 213.031L390.005 205.627C390.034 205.25 390.382 204.959 390.759 204.988C391.165 205.017 391.455 205.337 391.426 205.743L390.875 213.118C390.846 213.496 390.527 213.786 390.179 213.786ZM228.954 208.995C228.934 208.995 228.915 208.995 228.896 208.995C228.519 208.966 228.229 208.618 228.258 208.24L228.809 200.836C228.838 200.459 229.186 200.169 229.563 200.198C229.969 200.227 230.259 200.546 230.23 200.952L229.679 208.356C229.65 208.705 229.331 208.995 228.954 208.995ZM391.252 199.007C391.233 199.007 391.223 199.007 391.223 199.007C390.817 198.978 390.527 198.63 390.556 198.223L391.107 190.848C391.136 190.442 391.484 190.151 391.861 190.18C392.267 190.209 392.557 190.558 392.528 190.935L391.977 198.339C391.948 198.717 391.629 199.007 391.252 199.007ZM230.056 194.216C230.036 194.216 230.017 194.216 229.998 194.216C229.621 194.187 229.331 193.839 229.36 193.461L229.911 186.057C229.94 185.651 230.288 185.361 230.665 185.39C231.042 185.419 231.332 185.767 231.303 186.145L230.781 193.548C230.752 193.926 230.433 194.216 230.056 194.216ZM392.354 184.199C392.335 184.199 392.316 184.199 392.296 184.199C391.919 184.17 391.629 183.822 391.658 183.444L392.209 176.04C392.238 175.663 392.586 175.372 392.964 175.402C393.341 175.431 393.66 175.75 393.631 176.156L393.08 183.56C393.051 183.909 392.732 184.199 392.354 184.199ZM231.158 179.408C231.139 179.408 231.119 179.408 231.1 179.408C230.723 179.379 230.433 179.06 230.462 178.653L230.984 171.249C231.013 170.872 231.361 170.582 231.767 170.611C232.144 170.64 232.434 170.988 232.405 171.366L231.854 178.77C231.825 179.147 231.535 179.408 231.158 179.408ZM393.457 169.42C393.437 169.42 393.418 169.42 393.399 169.42C393.022 169.391 392.732 169.043 392.761 168.665L393.312 161.261C393.341 160.855 393.66 160.565 394.066 160.594C394.443 160.623 394.733 160.971 394.704 161.349L394.153 168.752C394.153 169.13 393.834 169.42 393.457 169.42ZM232.26 164.629C232.241 164.629 232.221 164.629 232.202 164.629C231.825 164.6 231.506 164.252 231.535 163.875L232.086 156.471C232.115 156.093 232.463 155.774 232.869 155.803C233.246 155.832 233.536 156.18 233.507 156.587L232.956 163.962C232.927 164.339 232.637 164.629 232.26 164.629ZM394.559 154.612C394.539 154.612 394.52 154.612 394.501 154.612C394.124 154.583 393.834 154.264 393.834 153.857L394.385 146.453C394.414 146.076 394.762 145.786 395.168 145.815C395.545 145.844 395.835 146.192 395.806 146.57L395.255 153.974C395.226 154.351 394.936 154.612 394.559 154.612ZM233.362 149.851C233.343 149.851 233.323 149.851 233.304 149.851C232.898 149.822 232.608 149.473 232.637 149.067L233.188 141.692C233.217 141.285 233.565 140.995 233.942 141.024C234.348 141.053 234.638 141.401 234.609 141.779L234.058 149.183C234.029 149.56 233.71 149.851 233.362 149.851ZM395.661 139.833C395.641 139.833 395.622 139.833 395.603 139.833C395.197 139.804 394.907 139.456 394.936 139.079L395.487 131.675C395.516 131.297 395.864 130.978 396.27 131.007C396.647 131.036 396.937 131.384 396.908 131.791L396.357 139.166C396.328 139.543 396.009 139.833 395.661 139.833ZM234.464 135.043C234.445 135.043 234.426 135.043 234.406 135.043C234 135.014 233.71 134.665 233.739 134.288L234.29 126.884C234.319 126.506 234.667 126.216 235.044 126.245C235.45 126.274 235.74 126.593 235.711 127L235.16 134.375C235.131 134.752 234.812 135.043 234.464 135.043ZM396.763 125.055C396.744 125.055 396.724 125.055 396.705 125.055C396.299 125.026 396.009 124.677 396.038 124.271L396.589 116.896C396.618 116.489 396.966 116.199 397.343 116.228C397.749 116.257 398.039 116.605 398.01 116.983L397.459 124.387C397.43 124.764 397.111 125.055 396.763 125.055ZM235.537 120.264C235.537 120.264 235.528 120.264 235.508 120.264C235.102 120.235 234.812 119.886 234.841 119.48L235.392 112.105C235.421 111.698 235.769 111.408 236.146 111.437C236.552 111.466 236.842 111.815 236.813 112.192L236.262 119.596C236.233 119.973 235.914 120.264 235.537 120.264ZM397.836 110.247C397.836 110.247 397.826 110.247 397.807 110.247C397.401 110.218 397.111 109.869 397.14 109.492L397.691 102.088C397.72 101.71 398.068 101.42 398.445 101.449C398.851 101.478 399.141 101.797 399.112 102.204L398.561 109.608C398.532 109.956 398.213 110.247 397.836 110.247ZM236.639 105.456C236.62 105.456 236.601 105.456 236.581 105.456C236.204 105.427 235.914 105.078 235.943 104.701L236.494 97.2969C236.523 96.9195 236.842 96.6291 237.248 96.6581C237.625 96.6872 237.944 97.0066 237.915 97.4131L237.364 104.817C237.335 105.194 237.016 105.456 236.639 105.456ZM398.938 95.4677C398.919 95.4677 398.909 95.4677 398.909 95.4677C398.503 95.4387 398.213 95.0902 398.242 94.6838L398.793 87.3088C398.822 86.9023 399.17 86.612 399.547 86.641C399.953 86.67 400.243 87.0185 400.214 87.3959L399.663 94.7999C399.634 95.1774 399.315 95.4677 398.938 95.4677ZM237.741 90.6769C237.722 90.6769 237.703 90.6769 237.683 90.6769C237.306 90.6479 237.016 90.2994 237.045 89.922L237.596 82.518C237.625 82.1115 237.973 81.8212 238.351 81.8502C238.728 81.8792 239.018 82.2277 238.989 82.6342L238.467 90.0091C238.438 90.3865 238.119 90.6769 237.741 90.6769ZM399.315 80.7178C399.025 80.7178 398.764 80.5436 398.648 80.2533C397.836 78.1337 396.038 76.5077 393.834 75.927C393.457 75.8399 393.225 75.4334 393.312 75.056C393.428 74.6785 393.805 74.4462 394.182 74.5624C396.821 75.2592 398.996 77.2046 399.982 79.7597C400.098 80.1371 399.924 80.5436 399.547 80.6888C399.47 80.7082 399.392 80.7178 399.315 80.7178ZM238.844 75.869C238.824 75.869 238.805 75.869 238.786 75.869C238.409 75.8399 238.119 75.5205 238.148 75.1141L238.409 71.3685C238.525 70.0039 238.902 68.7554 239.598 67.5939C239.801 67.2746 240.236 67.1584 240.584 67.3617C240.903 67.5649 241.019 68.0004 240.816 68.3489C240.236 69.278 239.917 70.3523 239.83 71.4556L239.54 75.2302C239.511 75.6076 239.221 75.869 238.844 75.869ZM386.641 75.2883C386.622 75.2883 386.602 75.2786 386.583 75.2592L379.187 74.7366C378.81 74.7076 378.52 74.3591 378.549 73.9526C378.578 73.5752 378.926 73.2848 379.303 73.3139L386.699 73.8655C387.076 73.8946 387.366 74.214 387.337 74.6205C387.308 74.9979 386.989 75.2883 386.641 75.2883ZM371.85 74.1849C371.83 74.1849 371.811 74.1849 371.792 74.1849L364.425 73.6333C364.019 73.6042 363.729 73.2558 363.758 72.8493C363.787 72.4718 364.135 72.1815 364.512 72.2105L371.908 72.7622C372.314 72.7912 372.604 73.1397 372.575 73.5171C372.546 73.8946 372.227 74.1849 371.85 74.1849ZM357.087 73.0816C357.068 73.0816 357.049 73.0816 357.029 73.0816L349.634 72.5299C349.257 72.5009 348.967 72.1525 348.996 71.775C349.025 71.3685 349.373 71.0782 349.75 71.1072L357.145 71.6589C357.522 71.6879 357.812 72.0363 357.783 72.4138C357.754 72.7912 357.464 73.0816 357.087 73.0816ZM342.296 71.9783C342.296 71.9783 342.286 71.9783 342.267 71.9783L334.871 71.4266C334.465 71.3975 334.175 71.0491 334.204 70.6717C334.233 70.2652 334.581 69.9748 334.987 70.0039L342.354 70.5555C342.76 70.5846 343.05 70.933 343.021 71.3104C342.992 71.6879 342.673 71.9783 342.296 71.9783ZM327.534 70.8749C327.514 70.8749 327.495 70.8749 327.476 70.8749L320.109 70.3232C319.703 70.2942 319.413 69.9458 319.442 69.5683C319.471 69.1618 319.819 68.8715 320.196 68.9005L327.592 69.4522C327.969 69.4812 328.259 69.8297 328.23 70.2071C328.201 70.5846 327.911 70.8749 327.534 70.8749ZM312.771 69.7716C312.752 69.7716 312.733 69.7716 312.713 69.7716L305.318 69.2199C304.941 69.1909 304.622 68.8715 304.651 68.465C304.68 68.0875 305.028 67.7972 305.434 67.7972L312.8 68.3489C313.206 68.3779 313.496 68.7263 313.467 69.1328C313.438 69.4812 313.119 69.7716 312.771 69.7716ZM297.98 68.6682C297.961 68.6682 297.941 68.6682 297.922 68.6682L290.555 68.1166C290.149 68.0875 289.859 67.7682 289.888 67.3617C289.917 66.9842 290.265 66.6939 290.642 66.7229L298.038 67.2746C298.415 67.3036 298.734 67.623 298.705 68.0295C298.676 68.4069 298.357 68.6682 297.98 68.6682ZM283.218 67.5939C283.198 67.5939 283.179 67.5843 283.16 67.5649L275.764 67.0423C275.387 67.0132 275.097 66.6648 275.126 66.2583C275.155 65.8809 275.474 65.5905 275.88 65.6196L283.276 66.1712C283.653 66.2003 283.943 66.5196 283.914 66.9261C283.885 67.3036 283.566 67.5939 283.218 67.5939ZM268.426 66.4906C268.407 66.4906 268.397 66.4906 268.397 66.4906L261.002 65.9389C260.596 65.9099 260.306 65.5615 260.335 65.155C260.364 64.7775 260.712 64.4872 261.089 64.5162L268.484 65.0679C268.89 65.0969 269.18 65.4453 269.151 65.8228C269.122 66.2003 268.803 66.4906 268.426 66.4906ZM253.664 65.3873C253.645 65.3873 253.625 65.3873 253.606 65.3873L247.399 64.9227C247.051 64.884 246.694 64.884 246.326 64.9227C245.949 64.9517 245.601 64.6614 245.572 64.2549C245.543 63.8774 245.833 63.529 246.21 63.5C246.655 63.4613 247.09 63.4613 247.515 63.5L253.722 63.9645C254.099 63.9936 254.389 64.342 254.36 64.7195C254.331 65.0969 254.041 65.3873 253.664 65.3873Z" fill="#F9C067"/>
<path d="M257.202 156.325C256.99 156.461 256.767 156.596 256.535 156.732L167.526 209.111L99.805 248.976C99.689 249.035 99.573 249.093 99.4569 249.151C93.9464 252.112 87.0438 250.225 83.8535 244.766L28.8065 151.012C25.6743 145.669 27.2404 138.875 32.2869 135.42C32.4802 135.284 32.6832 135.149 32.8959 135.013L189.626 42.7977C189.993 42.6042 190.351 42.4203 190.699 42.2461C196.094 39.72 202.619 41.6944 205.694 46.9207L237.161 100.491L260.741 140.675C263.902 146.047 262.278 152.899 257.202 156.325Z" fill="white"/>
<g style="mix-blend-mode:multiply" opacity="0.2">
<path d="M195.137 74.4172L158.303 151.331C155.142 157.893 148.848 161.581 141.598 161.145L56.5621 155.977L136.928 153.567C143.947 153.335 150.357 149.56 153.953 143.55L195.137 74.4172Z" fill="#3A7EC1"/>
</g>
<path d="M83.4185 223.919C83.3025 223.919 83.1962 223.89 83.0995 223.832C82.7805 223.629 82.6645 223.222 82.8675 222.932L124.196 153.596C124.37 153.277 124.776 153.161 125.095 153.364C125.414 153.538 125.501 153.945 125.327 154.264L83.9986 223.6C83.8536 223.803 83.6505 223.919 83.4185 223.919Z" fill="#0D4472"/>
<path d="M160.188 133.736C159.84 133.736 159.521 133.446 159.521 133.097C159.521 132.72 159.811 132.429 160.159 132.429L240.787 129.99C240.787 129.99 240.796 129.99 240.816 129.99C241.164 129.99 241.454 130.281 241.454 130.629C241.483 131.007 241.193 131.297 240.816 131.326L160.188 133.736Z" fill="#0D4472"/>
<path d="M53.5168 156.703L53.4588 155.396L136.899 152.899C143.715 152.696 149.893 149.067 153.373 143.201L196.152 71.4265L197.283 72.1234L154.504 143.869C150.792 150.141 144.208 154.003 136.957 154.206L53.5168 156.703Z" fill="#0D4472"/>
<g style="mix-blend-mode:multiply" opacity="0.2">
<path d="M124.689 153.799L116.191 153.944L83.4185 223.251L124.689 153.799Z" fill="#3A7EC1"/>
</g>
<g style="mix-blend-mode:multiply" opacity="0.2">
<path d="M160.101 132.952L164.365 125.606L240.816 130.658L160.101 132.952Z" fill="#3A7EC1"/>
</g>
<path d="M111.87 232.252L103.894 236.956C102.705 237.653 101.168 237.246 100.443 236.056L95.7736 228.071C95.0486 226.881 95.4546 225.342 96.6437 224.616L104.648 219.941C105.838 219.216 107.375 219.622 108.071 220.813L112.769 228.826C113.465 230.017 113.088 231.556 111.87 232.252Z" fill="#F9C067"/>
<path d="M123.79 221.945L118.976 224.761C118.251 225.197 117.323 224.964 116.917 224.239L114.074 219.419C113.668 218.693 113.9 217.764 114.625 217.357L119.44 214.541C120.136 214.105 121.064 214.338 121.499 215.063L124.312 219.883C124.747 220.609 124.515 221.509 123.79 221.945Z" fill="#E4ECF9"/>
<path d="M135.507 215.064L130.693 217.88C129.968 218.316 129.04 218.054 128.634 217.328L125.791 212.538C125.385 211.812 125.617 210.883 126.342 210.447L131.157 207.631C131.882 207.195 132.781 207.456 133.216 208.182L136.029 212.973C136.464 213.699 136.232 214.628 135.507 215.064Z" fill="#E4ECF9"/>
<path d="M147.224 208.153L142.41 210.999C141.685 211.405 140.757 211.173 140.351 210.447L137.537 205.627C137.102 204.901 137.334 204.001 138.059 203.566L142.874 200.749C143.599 200.314 144.527 200.546 144.933 201.272L147.746 206.092C148.181 206.818 147.949 207.747 147.224 208.153Z" fill="#E4ECF9"/>
<path fill-rule="evenodd" clip-rule="evenodd" d="M93.8305 251.27C89.5961 251.27 85.5067 249.035 83.2155 245.144L57.7222 201.707L28.1685 151.389C25.0362 146.018 26.3704 139.136 31.2718 135.333C31.4651 135.178 31.6778 135.023 31.9099 134.868C32.1129 134.723 32.3449 134.578 32.5769 134.462L189.307 42.2461C189.684 42.0138 190.061 41.8106 190.438 41.6364C190.641 41.5492 190.844 41.4621 191.047 41.375C196.732 39.1393 203.112 41.346 206.216 46.6304L237.654 100.171L261.263 140.385C264.395 145.727 263.09 152.609 258.217 156.383V156.412C258.005 156.567 257.792 156.712 257.579 156.848C257.347 157.022 257.106 157.177 256.854 157.312L168.164 209.489L167.845 209.692L100.124 249.528C100.008 249.606 99.8823 249.683 99.747 249.76C99.515 249.877 99.283 249.993 99.0509 250.109C97.3688 250.893 95.5996 251.27 93.8305 251.27ZM195.601 41.8396C194.238 41.8396 192.874 42.0719 191.54 42.5945C191.366 42.6816 191.163 42.7397 190.989 42.8558C190.641 43.001 190.322 43.1752 189.974 43.3785L33.244 135.594C33.041 135.71 32.8379 135.855 32.6349 135.972C32.4416 136.107 32.2579 136.243 32.0839 136.378C27.7045 139.775 26.5154 145.931 29.3286 150.721L58.8533 201.039L84.3756 244.476C87.2469 249.412 93.3374 251.299 98.4999 248.889C98.7029 248.802 98.9349 248.686 99.1379 248.57C99.254 248.512 99.3603 248.454 99.457 248.396L166.859 208.734L167.178 208.56L256.216 156.18C256.41 156.045 256.613 155.909 256.825 155.774C257.038 155.638 257.231 155.503 257.405 155.367C261.756 151.97 262.916 145.815 260.132 141.053L236.523 100.839L205.085 47.2982C203.025 43.814 199.4 41.8396 195.601 41.8396Z" fill="#0D4472"/>
<g style="mix-blend-mode:multiply" opacity="0.2">
<path d="M257.202 156.325C256.99 156.461 256.767 156.596 256.535 156.732L167.526 209.111L156.708 154.032L154.475 142.65L151.082 125.374C150.241 121.164 152.996 117.041 157.23 116.228L171.964 113.324L176.952 112.337L237.074 100.52L237.161 100.491L260.741 140.675C263.902 146.047 262.278 152.899 257.202 156.325Z" fill="#3A7EC1"/>
</g>
<path d="M351.809 275.834L211.465 314.451C207.318 315.583 203.025 313.144 201.894 308.992L191.598 271.479L182.346 237.827L151.749 126.361C150.618 122.209 153.054 117.912 157.201 116.779L282.812 82.2276L297.545 78.1627C301.692 77.0303 305.985 79.4693 307.116 83.6213L314.163 109.259L357.261 266.253C358.392 270.405 355.956 274.702 351.809 275.834Z" fill="white"/>
<path d="M267.643 116.402L202.416 134.346C200.589 134.868 198.704 133.765 198.182 131.936C197.689 130.107 198.762 128.219 200.589 127.697L265.816 109.753C267.643 109.259 269.557 110.334 270.05 112.163C270.543 114.021 269.47 115.908 267.643 116.402Z" fill="#E4ECF9"/>
<path fill-rule="evenodd" clip-rule="evenodd" d="M209.377 315.38C207.927 315.38 206.506 315.002 205.23 314.277C203.257 313.173 201.865 311.344 201.256 309.166L190.96 271.653L181.737 238.001L151.111 126.535C150.531 124.358 150.821 122.064 151.923 120.118C153.054 118.144 154.852 116.75 157.027 116.141L297.371 77.5529C301.866 76.3043 306.507 78.9465 307.754 83.447L314.801 109.085L357.87 266.078C359.117 270.579 356.449 275.253 351.983 276.473L211.639 315.09C210.885 315.283 210.131 315.38 209.377 315.38ZM299.604 78.5401C298.985 78.5401 298.357 78.6272 297.719 78.8014L157.375 117.418C155.548 117.912 154.011 119.102 153.083 120.757C152.126 122.412 151.894 124.358 152.387 126.187L182.985 237.653L192.236 271.305L202.532 308.818C203.025 310.647 204.214 312.186 205.868 313.144C207.521 314.073 209.464 314.306 211.291 313.812L351.635 275.195C355.405 274.179 357.667 270.23 356.623 266.427L313.525 109.433L306.478 83.7954C305.608 80.6306 302.736 78.5401 299.604 78.5401Z" fill="#0D4472"/>
<path d="M189.104 189.077C188.698 189.077 188.311 189.019 187.944 188.903C187.625 188.787 187.451 188.438 187.538 188.119C187.654 187.77 188.002 187.596 188.321 187.712C188.785 187.857 189.278 187.886 189.742 187.741L192.091 187.103C192.41 187.015 192.758 187.219 192.845 187.538C192.932 187.857 192.729 188.206 192.41 188.293L190.061 188.932C189.752 189.029 189.433 189.077 189.104 189.077ZM196.326 187.19C196.036 187.19 195.804 187.015 195.717 186.754C195.63 186.406 195.833 186.086 196.152 185.999L200.212 184.867C200.56 184.78 200.908 184.983 200.995 185.302C201.082 185.622 200.879 185.97 200.56 186.057L196.471 187.19C196.432 187.19 196.384 187.19 196.326 187.19ZM185.827 185.651C185.537 185.651 185.305 185.477 185.218 185.215L184.116 181.121C184.029 180.802 184.203 180.453 184.551 180.366C184.87 180.279 185.218 180.483 185.305 180.802L186.407 184.867C186.494 185.215 186.32 185.535 185.972 185.622C185.933 185.641 185.885 185.651 185.827 185.651ZM204.446 184.954C204.185 184.954 203.953 184.78 203.866 184.518C203.779 184.17 203.953 183.851 204.301 183.734L208.362 182.631C208.71 182.544 209.029 182.718 209.116 183.067C209.203 183.386 209.029 183.734 208.681 183.822L204.62 184.925C204.562 184.944 204.504 184.954 204.446 184.954ZM212.596 182.718C212.335 182.718 212.074 182.544 212.016 182.254C211.929 181.934 212.103 181.586 212.451 181.499L216.512 180.395C217.469 180.134 218.165 179.321 218.281 178.305C218.339 177.985 218.658 177.724 218.977 177.782C219.325 177.811 219.557 178.131 219.528 178.45C219.354 179.96 218.281 181.179 216.831 181.586L212.77 182.689C212.712 182.709 212.654 182.718 212.596 182.718ZM183.594 177.492C183.304 177.492 183.072 177.318 182.985 177.056L181.882 172.962C181.766 172.643 181.969 172.295 182.288 172.207C182.636 172.12 182.956 172.324 183.072 172.643L184.174 176.737C184.261 177.056 184.087 177.405 183.739 177.492C183.681 177.492 183.632 177.492 183.594 177.492ZM218.02 174.908C217.73 174.908 217.498 174.704 217.411 174.443L216.309 170.378C216.222 170.03 216.396 169.71 216.744 169.594C217.063 169.507 217.411 169.71 217.498 170.03L218.6 174.124C218.687 174.443 218.513 174.792 218.165 174.879C218.126 174.898 218.078 174.908 218.02 174.908ZM181.331 169.362C181.07 169.362 180.838 169.159 180.751 168.897L179.62 164.833C179.533 164.484 179.736 164.165 180.055 164.049C180.403 163.961 180.722 164.165 180.809 164.484L181.94 168.578C182.027 168.897 181.824 169.246 181.505 169.333C181.447 169.352 181.389 169.362 181.331 169.362ZM215.786 166.749C215.496 166.749 215.264 166.575 215.177 166.284L214.046 162.219C213.959 161.871 214.162 161.552 214.481 161.464C214.829 161.377 215.148 161.552 215.264 161.9L216.367 165.965C216.454 166.284 216.28 166.633 215.931 166.72C215.873 166.739 215.825 166.749 215.786 166.749ZM179.098 161.203C178.837 161.203 178.576 161.029 178.518 160.739L178.199 159.577C178.102 159.248 178.054 158.919 178.054 158.59C178.054 157.719 178.373 156.848 178.953 156.18C179.156 155.919 179.562 155.89 179.823 156.122C180.084 156.354 180.113 156.732 179.881 156.993C179.504 157.429 179.301 158.009 179.301 158.59C179.301 158.803 179.33 159.016 179.388 159.229L179.707 160.419C179.794 160.739 179.591 161.087 179.272 161.174C179.214 161.193 179.156 161.203 179.098 161.203ZM213.524 158.59C213.263 158.59 213.031 158.416 212.944 158.125L211.813 154.06C211.726 153.741 211.929 153.393 212.248 153.306C212.596 153.218 212.915 153.393 213.002 153.741L214.133 157.806C214.22 158.154 214.017 158.474 213.698 158.561C213.64 158.58 213.582 158.59 213.524 158.59ZM183.246 155.599C182.985 155.599 182.723 155.425 182.665 155.164C182.549 154.815 182.752 154.496 183.072 154.409L187.161 153.277C187.48 153.189 187.828 153.393 187.915 153.712C188.002 154.031 187.799 154.38 187.48 154.467L183.42 155.599C183.362 155.599 183.304 155.599 183.246 155.599ZM191.395 153.364C191.134 153.364 190.873 153.189 190.786 152.928C190.699 152.58 190.902 152.26 191.221 152.144L195.311 151.041C195.63 150.954 195.978 151.128 196.065 151.476C196.152 151.796 195.949 152.144 195.63 152.231L191.54 153.335C191.502 153.354 191.453 153.364 191.395 153.364ZM199.545 151.128C199.255 151.128 199.023 150.954 198.936 150.663C198.849 150.344 199.052 149.996 199.371 149.908L203.431 148.805C203.779 148.718 204.098 148.892 204.214 149.241C204.301 149.56 204.098 149.908 203.779 149.996L199.69 151.099C199.632 151.118 199.584 151.128 199.545 151.128ZM211.233 150.46C211.03 150.46 210.798 150.344 210.682 150.112C210.276 149.299 209.435 148.776 208.507 148.776C208.294 148.776 208.081 148.805 207.869 148.863C207.521 148.95 207.173 148.776 207.086 148.428C206.999 148.108 207.173 147.76 207.521 147.673C207.849 147.576 208.178 147.528 208.507 147.528C209.899 147.528 211.175 148.341 211.784 149.56C211.958 149.879 211.813 150.228 211.523 150.402C211.426 150.441 211.33 150.46 211.233 150.46Z" fill="#52D1BD"/>
<path d="M261.727 168.985L234.348 176.534C232.666 176.998 230.955 176.011 230.491 174.327L222.95 146.918C222.486 145.234 223.472 143.521 225.154 143.056L252.533 135.507C254.215 135.072 255.955 136.03 256.39 137.714L263.931 165.123C264.395 166.807 263.409 168.549 261.727 168.985Z" fill="#E4ECF9"/>
<path d="M306.391 156.703L278.983 164.252C277.301 164.716 275.59 163.729 275.126 162.045L267.614 134.636C267.15 132.952 268.136 131.239 269.789 130.774L297.197 123.225C298.85 122.79 300.59 123.748 301.054 125.432L308.566 152.841C309.03 154.525 308.044 156.267 306.391 156.703Z" fill="#E4ECF9"/>
<path d="M251.228 197.555L196.964 212.479C195.108 213.002 193.193 211.899 192.671 210.04C192.178 208.182 193.251 206.266 195.137 205.743L249.372 190.819C251.228 190.296 253.142 191.4 253.664 193.258C254.186 195.116 253.084 197.033 251.228 197.555Z" fill="#52D1BD"/>
<path d="M316.832 196.162L201.227 227.955C199.371 228.478 197.457 227.374 196.935 225.516C196.413 223.658 197.515 221.742 199.371 221.219L315.004 189.426C316.861 188.903 318.775 190.006 319.268 191.864C319.79 193.723 318.688 195.639 316.832 196.162Z" fill="#E4ECF9"/>
<path d="M321.095 211.637L205.462 243.46C203.605 243.954 201.691 242.879 201.198 241.021C200.676 239.134 201.778 237.217 203.634 236.724L319.239 204.901C321.095 204.408 323.009 205.482 323.531 207.34C324.053 209.198 322.951 211.144 321.095 211.637Z" fill="#E4ECF9"/>
<path d="M325.329 227.113L209.725 258.936C207.869 259.429 205.955 258.355 205.433 256.497C204.91 254.638 206.013 252.693 207.869 252.2L323.502 220.377C325.358 219.883 327.273 220.958 327.766 222.845C328.288 224.703 327.186 226.62 325.329 227.113Z" fill="#E4ECF9"/>
<path d="M329.593 242.618L213.959 274.411C212.103 274.934 210.189 273.831 209.696 271.973C209.174 270.114 210.276 268.198 212.132 267.675L327.737 235.882C329.593 235.359 331.507 236.463 332.029 238.321C332.551 240.179 331.449 242.095 329.593 242.618Z" fill="#E4ECF9"/>
<path d="M333.827 258.094L218.223 289.887C216.367 290.41 214.452 289.306 213.93 287.448C213.437 285.59 214.51 283.674 216.367 283.151L332 251.357C333.856 250.835 335.77 251.938 336.292 253.796C336.785 255.655 335.712 257.571 333.827 258.094Z" fill="#E4ECF9"/>
<path d="M377.331 195.116L371.792 212.131L359.117 208.008L364.657 190.993C369.384 176.447 361.409 160.768 346.907 156.035C332.377 151.302 316.716 159.258 311.988 173.805L299.285 212.828L286.611 208.705L299.314 169.682C306.333 148.137 329.535 136.32 351.026 143.347C372.546 150.373 384.321 173.601 377.331 195.116Z" fill="#3B82F4"/>
<path d="M369.181 190.471L363.062 209.285L359.117 208.008L364.657 190.993C369.384 176.447 361.409 160.768 346.907 156.035C332.377 151.302 316.716 159.258 311.988 173.804L299.285 212.828L295.109 211.318L298.357 201.33L299.952 195.929L308.189 170.582C313.496 154.293 330.985 145.379 347.255 150.692L349.315 151.36C365.585 156.674 374.489 174.182 369.181 190.471Z" fill="#134DA3"/>
<path d="M336.959 320.403L258.188 294.707C252.939 292.994 250.097 287.361 251.779 282.106L275.358 209.721C277.069 204.466 282.696 201.591 287.945 203.304L366.716 229C371.937 230.713 374.808 236.346 373.097 241.602L349.518 314.015C347.835 319.271 342.18 322.116 336.959 320.403Z" fill="#3B82F4"/>
<path d="M352.389 305.189L349.518 314.015C347.835 319.271 342.18 322.116 336.959 320.403L258.188 294.707C252.939 292.994 250.097 287.361 251.779 282.106L254.65 273.308C252.939 278.563 255.81 284.196 261.06 285.909L339.831 311.605C345.051 313.319 350.678 310.444 352.389 305.189Z" fill="#134DA3"/>
<path d="M323.618 260.765C325.387 255.364 322.429 249.557 317.035 247.786C311.64 246.015 305.84 248.977 304.07 254.377C302.823 258.239 303.954 262.304 306.681 264.946L304.97 270.259C304.215 272.611 305.492 275.166 307.87 275.95C310.219 276.705 312.771 275.399 313.554 273.047L315.265 267.762C319.036 267.24 322.371 264.627 323.618 260.765Z" fill="#134DA3"/>
<g style="mix-blend-mode:multiply" opacity="0.2">
<path d="M241.309 255.626L191.598 271.479L182.346 237.827L230.752 222.409C232.26 221.945 233.884 222.787 234.348 224.297L235.508 227.926L237.625 234.604L240.381 243.257L242.498 249.906L243.165 252.025C243.658 253.535 242.817 255.161 241.309 255.626Z" fill="#3A7EC1"/>
</g>
<g style="mix-blend-mode:multiply" opacity="0.2">
<path d="M314.163 109.259C302.446 111.06 290.468 104.991 285.306 93.6384C283.595 89.951 282.812 86.0603 282.812 82.2276L297.545 78.1627C301.692 77.0303 305.985 79.4693 307.116 83.6213L314.163 109.259Z" fill="#3A7EC1"/>
</g>
<path d="M334.842 66.5486C341.107 80.2532 335.103 96.4257 321.414 102.697C307.725 108.969 291.57 102.93 285.306 89.2541C279.041 75.5495 285.045 59.3478 298.734 53.0762C312.423 46.8337 328.578 52.844 334.842 66.5486Z" fill="#F9C067"/>
<path fill-rule="evenodd" clip-rule="evenodd" d="M321.994 85.3634C323.473 88.6444 322.052 92.5061 318.775 93.9869C315.527 95.4967 311.669 94.0449 310.161 90.793C308.914 88.0056 309.755 84.8117 312.046 82.9825L308.421 75.0559L303.925 77.1174C303.142 77.4658 302.214 77.1174 301.837 76.3335C301.489 75.5495 301.837 74.6204 302.62 74.272L307.116 72.2105L304.622 66.8099L297.661 69.9748C296.878 70.3522 295.95 70.0038 295.602 69.2199C295.254 68.4359 295.573 67.5068 296.356 67.1584L304.767 63.2967C305.55 62.9483 306.478 63.2967 306.826 64.0806L314.859 81.6759C317.731 81.1533 320.718 82.6051 321.994 85.3634ZM318.311 87.0474C317.992 86.3506 317.383 85.886 316.716 85.7118C316.165 85.5667 315.584 85.5957 315.062 85.828C314.511 86.0893 314.105 86.4958 313.873 86.9894C313.554 87.6281 313.525 88.4121 313.844 89.1089C314.163 89.8058 314.772 90.2703 315.44 90.4736C315.991 90.5897 316.571 90.5607 317.093 90.3284C317.644 90.0671 318.05 89.6606 318.282 89.167C318.601 88.5282 318.63 87.7443 318.311 87.0474Z" fill="white"/>
<path d="M233.884 251.909L158.796 275.834C157.288 276.328 155.664 275.486 155.171 273.976L146.354 246.247C145.89 244.738 146.702 243.112 148.239 242.618L223.327 218.693C224.835 218.228 226.459 219.041 226.952 220.58L235.769 248.28C236.262 249.819 235.421 251.416 233.884 251.909Z" fill="#F9C067"/>
<path d="M158.042 257.716C159.985 264.017 166.685 267.53 172.95 265.556C179.243 263.61 182.752 256.903 180.78 250.632C178.808 244.331 172.138 240.818 165.873 242.792C159.579 244.737 156.07 251.445 158.042 257.716Z" fill="white"/>
<path d="M165.496 262.013C165.593 262.304 165.699 262.584 165.815 262.855C167.787 263.581 169.991 263.697 172.167 263.03C174.313 262.362 176.082 260.997 177.271 259.255C177.232 258.984 177.165 258.703 177.068 258.413C175.995 254.958 172.515 252.954 169.324 253.942C166.134 254.929 164.423 258.558 165.496 262.013Z" fill="#F9C067"/>
<path d="M166.424 253.07C167.178 255.509 168.889 257.164 170.223 256.758C171.528 256.322 171.993 254.029 171.238 251.561C170.484 249.122 168.773 247.467 167.439 247.902C166.105 248.309 165.67 250.631 166.424 253.07Z" fill="white"/>
<path d="M164.945 252.083C165.699 254.464 167.845 255.945 169.759 255.335C171.673 254.726 172.631 252.316 171.906 249.906C171.151 247.525 168.976 246.073 167.062 246.654C165.148 247.263 164.191 249.673 164.945 252.083Z" fill="#F9C067"/>
<path d="M206.448 239.017L186.697 245.318C185.537 245.696 184.319 245.057 183.942 243.895C183.594 242.763 184.232 241.544 185.363 241.166L205.143 234.865C206.274 234.517 207.492 235.127 207.869 236.288C208.217 237.421 207.608 238.669 206.448 239.017Z" fill="white"/>
<path d="M223.472 244.36L189.8 255.074C188.64 255.451 187.422 254.813 187.045 253.68C186.697 252.519 187.335 251.299 188.466 250.922L222.167 240.179C223.298 239.83 224.516 240.469 224.893 241.602C225.27 242.763 224.632 243.982 223.472 244.36Z" fill="white"/>
<path d="M409.408 113.905C409.408 120.641 403.956 126.1 397.227 126.1C390.527 126.1 385.075 120.641 385.075 113.905C385.075 107.198 390.527 101.739 397.227 101.739C403.956 101.739 409.408 107.198 409.408 113.905Z" fill="#3B82F4"/>
<g style="mix-blend-mode:multiply" opacity="0.3">
<path d="M80.2282 191.545C80.2282 191.545 68.5402 200.923 64.3058 211.492C64.2865 211.511 64.2768 211.531 64.2768 211.55L58.3022 201.359L58.3312 201.33L74.7757 189.948L80.2282 191.545Z" fill="#2C70A8"/>
</g>
<path d="M152.01 280.306L111.667 274.005L116.801 287.303C104.503 291.078 91.3942 290.323 79.4452 284.98C66.713 279.318 56.7651 268.866 52.1827 256.352C43.1339 231.497 55.431 203.043 80.2282 191.545L74.5147 179.205C43.3659 193.665 27.9655 229.581 39.4505 260.997C45.2801 276.996 57.8382 290.265 73.9347 297.407C82.6934 301.327 91.9743 303.272 101.255 303.272C108.129 303.272 115.031 302.198 121.731 300.02L126.4 312.128L152.01 280.306Z" fill="#CEDDF4"/>
<path d="M95.4836 266.107C95.4836 270.898 91.5972 274.818 86.8118 274.818C81.9974 274.818 78.111 270.898 78.111 266.107C78.111 261.287 81.9974 257.397 86.8118 257.397C91.5972 257.397 95.4836 261.287 95.4836 266.107Z" fill="#3B82F4"/>
</g>
<defs>
<clipPath id="clip0_274_5393">
<rect width="442" height="322" fill="white" transform="translate(0.5)"/>
</clipPath>
</defs>
</svg>
