<svg width="28" height="28" viewBox="0 0 28 28" fill="none" xmlns="http://www.w3.org/2000/svg">
<path d="M10.9132 24.5C11.7358 25.2261 12.8165 25.6666 14 25.6666C15.1835 25.6666 16.2641 25.2261 17.0868 24.5M21 9.33331C21 7.4768 20.2625 5.69632 18.9497 4.38357C17.637 3.07081 15.8565 2.33331 14 2.33331C12.1435 2.33331 10.363 3.07081 9.05023 4.38357C7.73748 5.69632 6.99998 7.4768 6.99998 9.33331C6.99998 12.9385 6.09053 15.4069 5.07459 17.0396C4.21763 18.4168 3.78915 19.1054 3.80486 19.2975C3.82226 19.5102 3.86732 19.5913 4.03872 19.7185C4.19352 19.8333 4.89134 19.8333 6.28698 19.8333H21.713C23.1086 19.8333 23.8064 19.8333 23.9612 19.7185C24.1326 19.5913 24.1777 19.5102 24.1951 19.2975C24.2108 19.1054 23.7823 18.4168 22.9254 17.0396C21.9094 15.4069 21 12.9385 21 9.33331Z" stroke="#72777B" stroke-width="2" stroke-linecap="round" stroke-linejoin="round"/>
<circle cx="21" cy="5" r="4.5" fill="#6666FF" stroke="white"/>
</svg>
