<svg width="24" height="25" viewBox="0 0 24 25" fill="none" xmlns="http://www.w3.org/2000/svg">
<path d="M11.5 5.49976H11.9344C14.9816 5.49976 16.5053 5.49976 17.0836 6.04704C17.5836 6.52012 17.8051 7.21704 17.6702 7.89197C17.514 8.67277 16.2701 9.55261 13.7823 11.3123L9.71772 14.1872C7.2299 15.9469 5.98599 16.8267 5.82984 17.6075C5.69486 18.2825 5.91642 18.9794 6.41636 19.4525C6.99474 19.9998 8.51836 19.9998 11.5656 19.9998H12.5M8 5.49976C8 7.15661 6.65685 8.49976 5 8.49976C3.34315 8.49976 2 7.15661 2 5.49976C2 3.8429 3.34315 2.49976 5 2.49976C6.65685 2.49976 8 3.8429 8 5.49976ZM22 19.4998C22 21.1566 20.6569 22.4998 19 22.4998C17.3431 22.4998 16 21.1566 16 19.4998C16 17.8429 17.3431 16.4998 19 16.4998C20.6569 16.4998 22 17.8429 22 19.4998Z" stroke="#72777B" stroke-width="2" stroke-linecap="round" stroke-linejoin="round"/>
</svg>
