<svg width="89" height="88" viewBox="0 0 89 88" fill="none" xmlns="http://www.w3.org/2000/svg">
<path d="M42.9998 18.3333H44.5926C55.7659 18.3333 61.3525 18.3333 63.4732 20.34C65.3063 22.0746 66.1187 24.6299 65.6238 27.1047C65.0512 29.9676 60.4902 33.1937 51.3682 39.6459L36.4648 50.1873C27.3428 56.6394 22.7818 59.8655 22.2092 62.7285C21.7143 65.2032 22.5267 67.7586 24.3598 69.4932C26.4805 71.4999 32.0671 71.4999 43.2404 71.4999H46.6665M30.1665 18.3333C30.1665 24.4084 25.2416 29.3333 19.1665 29.3333C13.0914 29.3333 8.1665 24.4084 8.1665 18.3333C8.1665 12.2581 13.0914 7.33325 19.1665 7.33325C25.2416 7.33325 30.1665 12.2581 30.1665 18.3333ZM81.4998 69.6666C81.4998 75.7417 76.575 80.6666 70.4998 80.6666C64.4247 80.6666 59.4998 75.7417 59.4998 69.6666C59.4998 63.5915 64.4247 58.6666 70.4998 58.6666C76.575 58.6666 81.4998 63.5915 81.4998 69.6666Z" stroke="#6666FF" stroke-width="5" stroke-linecap="round" stroke-linejoin="round"/>
</svg>
