<svg width="12" height="13" viewBox="0 0 12 13" fill="none" xmlns="http://www.w3.org/2000/svg">
<g id="pencil-line" clip-path="url(#clip0_254_3153)">
<path id="Icon" d="M10.5 10.9999H6.50001M1.25 11.2499L4.02463 10.1827C4.2021 10.1145 4.29084 10.0804 4.37386 10.0358C4.4476 9.99621 4.5179 9.95052 4.58402 9.89921C4.65846 9.84145 4.72569 9.77422 4.86014 9.63977L10.5 3.99991C11.0523 3.44762 11.0523 2.55219 10.5 1.99991C9.94773 1.44762 9.0523 1.44762 8.50001 1.99991L2.86014 7.63977C2.72569 7.77422 2.65846 7.84145 2.6007 7.91589C2.54939 7.98201 2.5037 8.05231 2.46412 8.12605C2.41955 8.20907 2.38542 8.2978 2.31717 8.47528L1.25 11.2499ZM1.25 11.2499L2.27906 8.57439C2.3527 8.38293 2.38952 8.2872 2.45267 8.24335C2.50786 8.20503 2.57615 8.19054 2.64215 8.20314C2.71767 8.21756 2.79019 8.29009 2.93524 8.43514L4.06479 9.56468C4.20984 9.70973 4.28236 9.78226 4.29678 9.85777C4.30939 9.92377 4.29489 9.99206 4.25657 10.0473C4.21272 10.1104 4.11699 10.1472 3.92554 10.2209L1.25 11.2499Z" stroke="black" stroke-width="1.2" stroke-linecap="round" stroke-linejoin="round"/>
</g>
<defs>
<clipPath id="clip0_254_3153">
<rect width="12" height="12" fill="white" transform="translate(0 0.5)"/>
</clipPath>
</defs>
</svg>
