<svg width="26" height="26" viewBox="0 0 26 26" fill="none" xmlns="http://www.w3.org/2000/svg">
<path d="M11.6382 5.51668C12.0785 5.45158 12.5327 5.41667 13.0005 5.41667C18.5309 5.41667 22.1599 10.2969 23.3791 12.2274C23.5267 12.461 23.6004 12.5779 23.6417 12.7581C23.6727 12.8934 23.6727 13.1069 23.6417 13.2422C23.6004 13.4224 23.5261 13.54 23.3775 13.7752C23.0526 14.2893 22.5574 15.0119 21.9012 15.7955M7.28468 7.27462C4.94244 8.86351 3.35232 11.071 2.62286 12.2257C2.47464 12.4604 2.40053 12.5777 2.35922 12.7579C2.32819 12.8932 2.32818 13.1066 2.35919 13.242C2.40048 13.4222 2.47426 13.539 2.62181 13.7726C3.841 15.7031 7.47003 20.5833 13.0005 20.5833C15.2304 20.5833 17.1512 19.7899 18.7296 18.7163M3.25045 3.25L22.7505 22.75M10.7024 10.7019C10.1142 11.29 9.75045 12.1025 9.75045 13C9.75045 14.7949 11.2055 16.25 13.0005 16.25C13.8979 16.25 14.7104 15.8862 15.2985 15.2981" stroke="black" stroke-width="2" stroke-linecap="round" stroke-linejoin="round"/>
</svg>
