<svg width="14" height="14" viewBox="0 0 14 14" fill="none" xmlns="http://www.w3.org/2000/svg">
<path id="Vector" d="M7 0C10.8661 0 14 3.1339 14 7C14 10.8661 10.8661 14 7 14C3.1339 14 0 10.8661 0 7C0 3.1339 3.1339 0 7 0ZM7 1.4C5.51479 1.4 4.09041 1.99 3.0402 3.0402C1.99 4.09041 1.4 5.51479 1.4 7C1.4 8.48521 1.99 9.90959 3.0402 10.9598C4.09041 12.01 5.51479 12.6 7 12.6C8.48521 12.6 9.90959 12.01 10.9598 10.9598C12.01 9.90959 12.6 8.48521 12.6 7C12.6 5.51479 12.01 4.09041 10.9598 3.0402C9.90959 1.99 8.48521 1.4 7 1.4ZM7 3.5C7.73681 3.50028 8.45474 3.73308 9.05151 4.16524C9.64827 4.59739 10.0934 5.20686 10.3236 5.90681C10.5537 6.60676 10.5571 7.36148 10.3332 8.06346C10.1093 8.76543 9.66962 9.37885 9.07674 9.81632C8.48385 10.2538 7.76803 10.493 7.03125 10.4998C6.29448 10.5067 5.57433 10.2809 4.9734 9.85452C4.37248 9.42816 3.92143 8.82304 3.68452 8.12535C3.44762 7.42767 3.43694 6.67301 3.654 5.9689C3.81774 6.3348 4.10219 6.63336 4.45974 6.81461C4.81729 6.99587 5.22624 7.04883 5.61816 6.96462C6.01009 6.88041 6.3612 6.66416 6.61274 6.35203C6.86428 6.03991 7.001 5.65087 7 5.25C7.00009 4.91293 6.90284 4.583 6.71992 4.29987C6.53701 4.01675 6.27622 3.79247 5.9689 3.654C6.2951 3.5539 6.6409 3.5 7 3.5Z" fill="black"/>
</svg>
