<svg width="23" height="23" viewBox="0 0 23 23" fill="none" xmlns="http://www.w3.org/2000/svg">
<g clip-path="url(#clip0_131_1940)">
<path d="M22.2855 12.2136C22.2855 11.4658 22.2249 10.714 22.0955 9.97839H11.72V14.2143H17.6616C17.415 15.5805 16.6228 16.789 15.4628 17.5569V20.3054H19.0075C21.0891 18.3896 22.2855 15.5602 22.2855 12.2136Z" fill="#6666FF"/>
<path d="M11.72 22.961C14.6868 22.961 17.1887 21.9869 19.0116 20.3055L15.4668 17.557C14.4806 18.228 13.2074 18.6079 11.7241 18.6079C8.85431 18.6079 6.42109 16.6718 5.54805 14.0688H1.89014V16.9022C3.75749 20.6167 7.56091 22.961 11.72 22.961Z" fill="#6666FF"/>
<path d="M5.54396 14.0688C5.08319 12.7027 5.08319 11.2233 5.54396 9.85717V7.0238H1.8901C0.329928 10.132 0.329928 13.794 1.8901 16.9022L5.54396 14.0688Z" fill="#6666FF"/>
<path d="M11.72 5.31406C13.2883 5.28981 14.804 5.87992 15.9397 6.96315L19.0803 3.8226C17.0917 1.95525 14.4523 0.928611 11.72 0.960946C7.56091 0.960946 3.75749 3.30524 1.89014 7.02378L5.544 9.85714C6.41301 7.25012 8.85027 5.31406 11.72 5.31406Z" fill="#6666FF"/>
</g>
<defs>
<clipPath id="clip0_131_1940">
<rect width="22" height="22" fill="white" transform="translate(0.5 0.960205)"/>
</clipPath>
</defs>
</svg>
