<svg width="45" height="44" viewBox="0 0 45 44" fill="none" xmlns="http://www.w3.org/2000/svg">
<g clip-path="url(#clip0_274_5258)">
<g clip-path="url(#clip1_274_5258)">
<path d="M44.071 22.5068C44.071 21.0113 43.9498 19.5077 43.6911 18.0365H22.94V26.5083H34.8232C34.3301 29.2406 32.7456 31.6577 30.4256 33.1936V38.6905H37.5151C41.6782 34.8588 44.071 29.2002 44.071 22.5068Z" fill="#4285F4"/>
<path d="M22.94 44.0015C28.8735 44.0015 33.8773 42.0533 37.5231 38.6904L30.4336 33.1935C28.4612 34.5354 25.9148 35.2952 22.948 35.2952C17.2086 35.2952 12.3421 31.4231 10.596 26.2172H3.28021V31.8839C7.01492 39.3129 14.6218 44.0015 22.94 44.0015V44.0015Z" fill="#34A853"/>
<path d="M10.588 26.2172C9.66644 23.4849 9.66644 20.5262 10.588 17.7939V12.1272H3.28026C0.159918 18.3436 0.159918 25.6675 3.28026 31.8839L10.588 26.2172V26.2172Z" fill="#FBBC04"/>
<path d="M22.94 8.70771C26.0765 8.65921 29.1079 9.83944 31.3794 12.0059L37.6605 5.7248C33.6833 1.99009 28.4046 -0.0631877 22.94 0.00148255C14.6218 0.00148255 7.01492 4.69007 3.28021 12.1271L10.5879 17.7939C12.326 12.5798 17.2005 8.70771 22.94 8.70771V8.70771Z" fill="#EA4335"/>
</g>
</g>
<defs>
<clipPath id="clip0_274_5258">
<rect x="0.5" width="44" height="44" rx="22" fill="white"/>
</clipPath>
<clipPath id="clip1_274_5258">
<rect width="44" height="44" fill="white" transform="translate(0.5)"/>
</clipPath>
</defs>
</svg>
