<svg width="24" height="25" viewBox="0 0 24 25" fill="none" xmlns="http://www.w3.org/2000/svg">
<path d="M8.12602 14.4997C8.57006 16.225 10.1362 17.4997 12 17.4997C13.8638 17.4997 15.4299 16.225 15.874 14.4997M11.0177 3.26375L4.23539 8.53888C3.78202 8.8915 3.55534 9.06781 3.39203 9.28861C3.24737 9.4842 3.1396 9.70454 3.07403 9.93881C3 10.2033 3 10.4905 3 11.0648V18.2997C3 19.4198 3 19.9799 3.21799 20.4077C3.40973 20.784 3.71569 21.09 4.09202 21.2818C4.51984 21.4997 5.07989 21.4997 6.2 21.4997H17.8C18.9201 21.4997 19.4802 21.4997 19.908 21.2818C20.2843 21.09 20.5903 20.784 20.782 20.4077C21 19.9799 21 19.4198 21 18.2997V11.0648C21 10.4905 21 10.2033 20.926 9.93881C20.8604 9.70454 20.7526 9.4842 20.608 9.28861C20.4447 9.06781 20.218 8.8915 19.7646 8.53888L12.9823 3.26376C12.631 2.9905 12.4553 2.85388 12.2613 2.80136C12.0902 2.75502 11.9098 2.75502 11.7387 2.80136C11.5447 2.85388 11.369 2.9905 11.0177 3.26375Z" stroke="#72777B" stroke-width="2" stroke-linecap="round" stroke-linejoin="round"/>
</svg>
