<svg width="58" height="58" viewBox="0 0 58 58" fill="none" xmlns="http://www.w3.org/2000/svg">
<g filter="url(#filter0_d_176_615)">
<rect x="2" y="1" width="54" height="54" rx="20" fill="#4985E2"/>
<rect x="11" y="10" width="36" height="36" rx="18" fill="white"/>
<circle cx="29" cy="20.25" r="2" fill="#2E6ADD"/>
<path d="M30.4263 24.25H25.5763C25.4658 24.25 25.3763 24.3395 25.3763 24.45V25.8823C25.3763 25.955 25.4156 26.0219 25.4791 26.0572L27.5234 27.1928C27.5869 27.2281 27.6263 27.295 27.6263 27.3677V35.5L25.465 36.9409C25.4095 36.9778 25.3761 37.04 25.3759 37.1066L25.3744 37.5493C25.3741 37.6601 25.4637 37.75 25.5744 37.75H32.4263C32.5367 37.75 32.6263 37.6605 32.6263 37.55V37.1C32.6263 37.037 32.5966 36.9778 32.5463 36.94L30.6263 35.5V24.45C30.6263 24.3395 30.5367 24.25 30.4263 24.25Z" fill="#2E6ADD"/>
</g>
<defs>
<filter id="filter0_d_176_615" x="0" y="0" width="58" height="58" filterUnits="userSpaceOnUse" color-interpolation-filters="sRGB">
<feFlood flood-opacity="0" result="BackgroundImageFix"/>
<feColorMatrix in="SourceAlpha" type="matrix" values="0 0 0 0 0 0 0 0 0 0 0 0 0 0 0 0 0 0 127 0" result="hardAlpha"/>
<feOffset dy="1"/>
<feGaussianBlur stdDeviation="1"/>
<feComposite in2="hardAlpha" operator="out"/>
<feColorMatrix type="matrix" values="0 0 0 0 0 0 0 0 0 0 0 0 0 0 0 0 0 0 0.05 0"/>
<feBlend mode="normal" in2="BackgroundImageFix" result="effect1_dropShadow_176_615"/>
<feBlend mode="normal" in="SourceGraphic" in2="effect1_dropShadow_176_615" result="shape"/>
</filter>
</defs>
</svg>
