<svg width="25" height="24" viewBox="0 0 25 24" fill="none" xmlns="http://www.w3.org/2000/svg">
<path d="M10.5 13C10.9294 13.5741 11.4773 14.0491 12.1065 14.3929C12.7357 14.7367 13.4315 14.9411 14.1466 14.9923C14.8617 15.0435 15.5795 14.9403 16.2513 14.6897C16.9231 14.4392 17.5331 14.047 18.04 13.54L21.04 10.54C21.9507 9.59695 22.4547 8.33394 22.4433 7.02296C22.4319 5.71198 21.9061 4.45791 20.979 3.53087C20.052 2.60383 18.7979 2.07799 17.487 2.0666C16.176 2.0552 14.913 2.55918 13.97 3.46997L12.25 5.17997M14.5 11C14.0705 10.4258 13.5226 9.95078 12.8934 9.60703C12.2642 9.26327 11.5684 9.05885 10.8533 9.00763C10.1382 8.95641 9.42037 9.0596 8.74861 9.31018C8.07685 9.56077 7.46684 9.9529 6.95996 10.46L3.95996 13.46C3.04917 14.403 2.54519 15.666 2.55659 16.977C2.56798 18.288 3.09382 19.542 4.02086 20.4691C4.9479 21.3961 6.20197 21.9219 7.51295 21.9333C8.82393 21.9447 10.0869 21.4408 11.03 20.53L12.74 18.82" stroke="white" stroke-width="2" stroke-linecap="round" stroke-linejoin="round"/>
</svg>
