<svg width="24" height="24" viewBox="0 0 24 24" fill="none" xmlns="http://www.w3.org/2000/svg">
<path d="M8.21107 19.3321V8.61307H4.78407V19.3331H8.21007L8.21107 19.3321ZM6.47107 7.15807C6.72107 7.18407 6.97107 7.15507 7.20907 7.07307C7.44707 6.99207 7.66507 6.86007 7.85107 6.68507C8.03607 6.51007 8.18407 6.29807 8.28607 6.06007C8.3879 5.82139 8.44039 5.56457 8.44039 5.30507C8.44039 5.04558 8.3879 4.78876 8.28607 4.55008C8.1857 4.31399 8.0376 4.1012 7.85107 3.92507C7.6671 3.75156 7.44823 3.61928 7.20907 3.53707C6.97213 3.4556 6.72032 3.4266 6.47107 3.45207C6.23525 3.44991 6.00144 3.49548 5.78369 3.58605C5.56595 3.67662 5.36879 3.81031 5.20407 3.97907C5.03607 4.14907 4.90207 4.35207 4.81007 4.57507C4.67163 4.91217 4.63225 5.28176 4.69655 5.64046C4.76085 5.99916 4.92616 6.33206 5.17307 6.60007C5.50307 6.95207 5.95507 7.15307 6.42807 7.15907L6.47107 7.15807ZM10.1071 19.3321H13.5351V13.3501C13.5142 13.0443 13.5525 12.7373 13.6481 12.4461C13.7711 12.0727 14.0052 11.7458 14.3191 11.5091C14.6311 11.2761 15.0041 11.1491 15.3881 11.1451C16.6231 11.1451 17.1281 12.1211 17.1281 13.5671V19.2971H20.5551V13.1501C20.5551 9.86007 18.8671 8.33308 16.6151 8.33308C15.9837 8.30681 15.358 8.46193 14.8121 8.78007C14.2577 9.10372 13.8036 9.57441 13.5001 10.1401V8.61408H10.1071C10.1511 9.62608 10.1071 19.3341 10.1071 19.3341V19.3321Z" fill="black"/>
</svg>
