<svg width="23" height="23" viewBox="0 0 23 23" fill="none" xmlns="http://www.w3.org/2000/svg">
<path d="M5 22.4602H0V8.14202H5V22.4602ZM2.501 6.23293C1.118 6.23293 0 5.16289 0 3.84561C0 2.52834 1.12 1.46021 2.501 1.46021C3.879 1.46021 5 2.53025 5 3.84561C5 5.16289 3.879 6.23293 2.501 6.23293ZM23 22.4602H18.193V15.492C18.193 13.8302 18.16 11.6929 15.694 11.6929C13.191 11.6929 12.806 13.5027 12.806 15.3717V22.4602H8V8.13152H12.614V10.0893H12.679C13.321 8.96293 14.89 7.77548 17.23 7.77548C22.1 7.77548 23 10.7432 23 14.6014V22.4602Z" fill="#6666FF"/>
</svg>
