<svg width="30" height="20" viewBox="0 0 30 20" fill="none" xmlns="http://www.w3.org/2000/svg">
<path d="M25.1525 0H4.83924C2.16817 0 0 2.11926 0 4.73811V15.2699C0 17.8807 2.16817 20 4.83924 20H25.1525C27.8318 20 30 17.8807 30 15.2699V4.73811C30 2.11926 27.8318 0 25.1525 0ZM26.7024 15.2699C26.7024 16.0999 26.0099 16.7768 25.1525 16.7768H4.83924C3.9901 16.7768 3.29761 16.0999 3.29761 15.2699V4.73811C3.29761 3.90008 3.9901 3.22321 4.83924 3.22321H25.1525C26.0099 3.22321 26.7024 3.90008 26.7024 4.73811V15.2699Z" fill="black"/>
<path d="M15.0039 11.1604L6.47129 5.57617L4.64111 8.25949L14.9956 15.0282L25.4243 8.25949L23.6024 5.57617L15.0039 11.1604Z" fill="black"/>
</svg>
