<svg width="45" height="44" viewBox="0 0 45 44" fill="none" xmlns="http://www.w3.org/2000/svg">
<g clip-path="url(#clip0_274_5270)">
<g clip-path="url(#clip1_274_5270)">
<mask id="mask0_274_5270" style="mask-type:luminance" maskUnits="userSpaceOnUse" x="-3" y="-4" width="51" height="51">
<path d="M47.7612 -3.00415H-2.23877V46.9958H47.7612V-3.00415Z" fill="white"/>
</mask>
<g mask="url(#mask0_274_5270)">
<path d="M43.5945 -0.920776H1.92782C0.777222 -0.920776 -0.155518 0.0119636 -0.155518 1.16256V42.8292C-0.155518 43.9798 0.777222 44.9126 1.92782 44.9126H43.5945C44.7451 44.9126 45.6778 43.9798 45.6778 42.8292V1.16256C45.6778 0.0119636 44.7451 -0.920776 43.5945 -0.920776Z" fill="url(#paint0_radial_274_5270)"/>
<path d="M29.0787 24.3253C28.8077 24.3253 28.5541 24.4295 28.365 24.6187L24.55 28.4337C24.1564 28.8272 24.1564 29.4678 24.55 29.8616L26.4964 31.8082C26.6856 31.9974 26.9391 32.1016 27.2102 32.1016C27.4812 32.1016 27.7348 31.9974 27.9237 31.8082L31.7395 27.9926C31.9285 27.8032 32.0329 27.5499 32.0329 27.2787C32.0329 27.0076 31.9285 26.7541 31.7395 26.5649L29.7927 24.6187C29.6035 24.4295 29.35 24.3253 29.0787 24.3253ZM27.2102 33.8707C26.4664 33.8707 25.7685 33.5826 25.2454 33.0591L23.2987 31.1124C22.2158 30.0289 22.2158 28.2662 23.2991 27.1826L27.1141 23.3676C27.6373 22.8445 28.3352 22.5562 29.0787 22.5562C29.8225 22.5562 30.5202 22.8443 31.0435 23.3676L32.9902 25.3139C33.5137 25.8372 33.8016 26.5349 33.8018 27.2787C33.8018 28.0224 33.5137 28.7201 32.9904 29.2434L29.1747 33.0591C28.6514 33.5826 27.9537 33.8707 27.2102 33.8707Z" fill="#F9F9F9"/>
<path d="M15.6089 24.3253C15.3377 24.3253 15.0842 24.4295 14.895 24.6187L12.9487 26.5649C12.7594 26.7541 12.6553 27.0076 12.6553 27.2787C12.6552 27.5499 12.7594 27.8032 12.9487 27.9926L16.7641 31.8082C16.9534 31.9974 17.2068 32.1016 17.4779 32.1016C17.749 32.1016 18.0025 31.9974 18.1917 31.8082L20.1389 29.8614C20.3279 29.6722 20.4323 29.4187 20.4323 29.1476C20.4323 28.8766 20.3279 28.623 20.1387 28.4339L16.3229 24.6187C16.1337 24.4295 15.8801 24.3253 15.6089 24.3253ZM17.4779 33.8707C16.7343 33.8707 16.0364 33.5826 15.5132 33.0591L11.6976 29.2434C11.1744 28.7201 10.8862 28.0224 10.8862 27.2787C10.8862 26.5349 11.1745 25.8372 11.6979 25.3139L13.644 23.3676C14.1675 22.8443 14.8652 22.5562 15.6089 22.5562C16.3525 22.5562 17.0503 22.8443 17.5736 23.3676L21.3896 27.1828C21.9129 27.7062 22.2012 28.4039 22.2014 29.1476C22.2014 29.8912 21.9131 30.5891 21.3898 31.1124L19.4425 33.0591C18.9194 33.5826 18.2215 33.8707 17.4779 33.8707Z" fill="#F9F9F9"/>
<path d="M17.4779 12.7236C17.2068 12.7236 16.9534 12.8277 16.7642 13.0169L12.9485 16.8328C12.7594 17.0219 12.6552 17.2753 12.6552 17.5466C12.6552 17.8178 12.7594 18.0712 12.9487 18.2604L14.8951 20.2068C15.0842 20.396 15.3377 20.5002 15.6089 20.5002C15.88 20.5002 16.1335 20.396 16.3226 20.2068L20.1381 16.3909C20.5316 15.9974 20.5314 15.3569 20.1381 14.9633L18.1917 13.0169C18.0025 12.8277 17.749 12.7236 17.4779 12.7236ZM15.6089 22.2693C14.8652 22.2693 14.1675 21.9812 13.6442 21.4579L11.6977 19.5114C11.1744 18.9881 10.8862 18.2904 10.8862 17.5466C10.8861 16.8029 11.1744 16.1052 11.6976 15.5818L15.5132 11.766C16.0364 11.2427 16.7343 10.9543 17.4779 10.9543C18.2215 10.9543 18.9194 11.2427 19.4427 11.766L21.3889 13.7123C22.4723 14.7958 22.4723 16.5584 21.3891 17.6418L17.5736 21.4579C17.0503 21.981 16.3525 22.2693 15.6089 22.2693Z" fill="#F9F9F9"/>
<path d="M27.2107 12.7236C26.9395 12.7236 26.686 12.8277 26.497 13.0169L24.5505 14.9637C24.3612 15.1529 24.257 15.4064 24.257 15.6775C24.257 15.9486 24.3612 16.2021 24.5505 16.3912L28.3657 20.2064C28.5551 20.3956 28.8087 20.5 29.0797 20.5C29.3507 20.5 29.6045 20.3956 29.7935 20.2066L31.7405 18.2602C31.9297 18.071 32.0339 17.8176 32.0339 17.5466C32.0339 17.2754 31.9297 17.0221 31.7405 16.8329L27.9243 13.0169C27.7351 12.8276 27.4816 12.7236 27.2107 12.7236ZM29.0797 22.2689C28.3362 22.2689 27.6382 21.9808 27.1149 21.4575L23.2997 17.6422C22.7762 17.1189 22.488 16.4212 22.488 15.6775C22.4878 14.9338 22.7762 14.2361 23.2995 13.7128L25.246 11.766C25.7691 11.2427 26.467 10.9543 27.2107 10.9543C27.9541 10.9543 28.652 11.2425 29.1753 11.7658L32.9916 15.5818C33.5147 16.1052 33.803 16.8029 33.803 17.5466C33.8028 18.2904 33.5145 18.9879 32.9912 19.5112L31.0443 21.4577C30.5212 21.9808 29.8232 22.2689 29.0797 22.2689Z" fill="#F9F9F9"/>
<path d="M17.6205 16.5619C16.999 16.5619 16.4935 17.0676 16.4935 17.6892V27.1359C16.4935 27.7574 16.999 28.2632 17.6205 28.2632H27.0674C27.6889 28.2632 28.1945 27.7574 28.1945 27.1359V17.6892C28.1945 17.0676 27.6889 16.5619 27.0674 16.5619H17.6205ZM27.0674 30.0322H17.6205C16.0236 30.0322 14.7244 28.733 14.7244 27.1359V17.6892C14.7244 16.0922 16.0236 14.7928 17.6205 14.7928H27.0674C28.6643 14.7928 29.9637 16.0922 29.9637 17.6892V27.1359C29.9637 28.733 28.6643 30.0322 27.0674 30.0322Z" fill="#F9F9F9"/>
</g>
</g>
</g>
<defs>
<radialGradient id="paint0_radial_274_5270" cx="0" cy="0" r="1" gradientUnits="userSpaceOnUse" gradientTransform="translate(4.15554 42.4167) rotate(-10.568) scale(61.8579 61.8579)">
<stop stop-color="#F18337"/>
<stop offset="1" stop-color="#3252EB"/>
</radialGradient>
<clipPath id="clip0_274_5270">
<rect x="0.5" width="44" height="44" rx="8" fill="white"/>
</clipPath>
<clipPath id="clip1_274_5270">
<rect width="44" height="44" fill="white" transform="translate(0.5)"/>
</clipPath>
</defs>
</svg>
