<svg width="659" height="94" viewBox="0 0 659 94" fill="none" xmlns="http://www.w3.org/2000/svg">
<rect x="1" y="1" width="657" height="92" rx="19" fill="url(#paint0_linear_1_8560)"/>
<path d="M32.504 41V29.8H39.832V31.688H34.552V39.112H39.896V41H32.504ZM33.464 36.2V34.344H39.016V36.2H33.464ZM42.12 41V32.568H44.056L44.088 34.264L43.768 34.392C43.864 34.1147 44.008 33.8587 44.2 33.624C44.392 33.3787 44.6213 33.1707 44.888 33C45.1547 32.8187 45.4373 32.68 45.736 32.584C46.0347 32.4773 46.3387 32.424 46.648 32.424C47.1067 32.424 47.512 32.4987 47.864 32.648C48.2267 32.7867 48.5253 33.0107 48.76 33.32C49.0053 33.6293 49.1867 34.024 49.304 34.504L49 34.44L49.128 34.184C49.2453 33.928 49.4107 33.6987 49.624 33.496C49.8373 33.2827 50.0773 33.096 50.344 32.936C50.6107 32.7653 50.888 32.6373 51.176 32.552C51.4747 32.4667 51.768 32.424 52.056 32.424C52.696 32.424 53.2293 32.552 53.656 32.808C54.0827 33.064 54.4027 33.4533 54.616 33.976C54.8293 34.4987 54.936 35.144 54.936 35.912V41H52.952V36.04C52.952 35.6133 52.8933 35.2613 52.776 34.984C52.6693 34.7067 52.4987 34.504 52.264 34.376C52.04 34.2373 51.7573 34.168 51.416 34.168C51.1493 34.168 50.8933 34.216 50.648 34.312C50.4133 34.3973 50.2107 34.5253 50.04 34.696C49.8693 34.856 49.736 35.0427 49.64 35.256C49.544 35.4693 49.496 35.704 49.496 35.96V41H47.512V36.024C47.512 35.6187 47.4533 35.2827 47.336 35.016C47.2187 34.7387 47.048 34.5307 46.824 34.392C46.6 34.2427 46.328 34.168 46.008 34.168C45.7413 34.168 45.4907 34.216 45.256 34.312C45.0213 34.3973 44.8187 34.52 44.648 34.68C44.4773 34.84 44.344 35.0267 44.248 35.24C44.152 35.4533 44.104 35.688 44.104 35.944V41H42.12ZM60.3048 41.16C59.6114 41.16 58.9821 40.968 58.4168 40.584C57.8514 40.2 57.3981 39.6773 57.0568 39.016C56.7154 38.3547 56.5448 37.6027 56.5448 36.76C56.5448 35.9173 56.7154 35.1653 57.0568 34.504C57.3981 33.8427 57.8621 33.3253 58.4488 32.952C59.0354 32.5787 59.6968 32.392 60.4328 32.392C60.8594 32.392 61.2488 32.456 61.6008 32.584C61.9528 32.7013 62.2621 32.872 62.5288 33.096C62.7954 33.32 63.0141 33.576 63.1848 33.864C63.3661 34.152 63.4888 34.4613 63.5528 34.792L63.1208 34.68V32.568H65.1048V41H63.1048V38.984L63.5688 38.904C63.4941 39.192 63.3554 39.4747 63.1528 39.752C62.9608 40.0187 62.7154 40.2587 62.4168 40.472C62.1288 40.6747 61.8034 40.84 61.4408 40.968C61.0888 41.096 60.7101 41.16 60.3048 41.16ZM60.8488 39.416C61.3074 39.416 61.7128 39.304 62.0648 39.08C62.4168 38.856 62.6888 38.5467 62.8808 38.152C63.0834 37.7467 63.1848 37.2827 63.1848 36.76C63.1848 36.248 63.0834 35.7947 62.8808 35.4C62.6888 35.0053 62.4168 34.696 62.0648 34.472C61.7128 34.248 61.3074 34.136 60.8488 34.136C60.3901 34.136 59.9848 34.248 59.6328 34.472C59.2914 34.696 59.0248 35.0053 58.8328 35.4C58.6408 35.7947 58.5448 36.248 58.5448 36.76C58.5448 37.2827 58.6408 37.7467 58.8328 38.152C59.0248 38.5467 59.2914 38.856 59.6328 39.08C59.9848 39.304 60.3901 39.416 60.8488 39.416ZM67.6104 41V32.568H69.5784V41H67.6104ZM68.5704 30.776C68.1757 30.776 67.8664 30.68 67.6424 30.488C67.429 30.2853 67.3224 30.0027 67.3224 29.64C67.3224 29.2987 67.4344 29.0213 67.6584 28.808C67.8824 28.5947 68.1864 28.488 68.5704 28.488C68.9757 28.488 69.285 28.5893 69.4984 28.792C69.7224 28.984 69.8344 29.2667 69.8344 29.64C69.8344 29.9707 69.7224 30.2427 69.4984 30.456C69.2744 30.6693 68.965 30.776 68.5704 30.776ZM72.0899 41V29.16H74.0739V41H72.0899Z" fill="white"/>
<path d="M31.98 65V57.65H33.436V59.218L33.17 59.386C33.2447 59.1433 33.3613 58.91 33.52 58.686C33.688 58.462 33.8887 58.266 34.122 58.098C34.3647 57.9207 34.6213 57.7807 34.892 57.678C35.172 57.5753 35.4567 57.524 35.746 57.524C36.166 57.524 36.5347 57.594 36.852 57.734C37.1693 57.874 37.4307 58.084 37.636 58.364C37.8413 58.644 37.9907 58.994 38.084 59.414L37.86 59.358L37.958 59.12C38.0607 58.9053 38.2007 58.7047 38.378 58.518C38.5647 58.322 38.7747 58.1493 39.008 58C39.2413 57.8507 39.4887 57.734 39.75 57.65C40.0113 57.566 40.268 57.524 40.52 57.524C41.0707 57.524 41.5233 57.636 41.878 57.86C42.242 58.084 42.5127 58.4247 42.69 58.882C42.8767 59.3393 42.97 59.9087 42.97 60.59V65H41.514V60.674C41.514 60.254 41.458 59.9133 41.346 59.652C41.2433 59.3813 41.0847 59.1807 40.87 59.05C40.6553 58.9193 40.38 58.854 40.044 58.854C39.7827 58.854 39.5353 58.9007 39.302 58.994C39.078 59.078 38.882 59.1993 38.714 59.358C38.546 59.5167 38.4153 59.7033 38.322 59.918C38.2287 60.1233 38.182 60.352 38.182 60.604V65H36.726V60.646C36.726 60.2633 36.67 59.9413 36.558 59.68C36.446 59.4093 36.2827 59.204 36.068 59.064C35.8533 58.924 35.592 58.854 35.284 58.854C35.0227 58.854 34.78 58.9007 34.556 58.994C34.332 59.078 34.136 59.1993 33.968 59.358C33.8 59.5073 33.6693 59.6893 33.576 59.904C33.4827 60.1093 33.436 60.3333 33.436 60.576V65H31.98ZM47.7286 65.14C47.1219 65.14 46.5666 64.972 46.0626 64.636C45.5679 64.3 45.1712 63.8427 44.8726 63.264C44.5739 62.6853 44.4246 62.032 44.4246 61.304C44.4246 60.5667 44.5739 59.9133 44.8726 59.344C45.1806 58.7653 45.5912 58.3127 46.1046 57.986C46.6272 57.6593 47.2106 57.496 47.8546 57.496C48.2372 57.496 48.5872 57.552 48.9046 57.664C49.2219 57.776 49.4972 57.9347 49.7306 58.14C49.9732 58.336 50.1692 58.5647 50.3186 58.826C50.4772 59.0873 50.5752 59.3673 50.6126 59.666L50.2906 59.554V57.65H51.7466V65H50.2906V63.25L50.6266 63.152C50.5706 63.404 50.4539 63.6513 50.2766 63.894C50.1086 64.1273 49.8892 64.3373 49.6186 64.524C49.3572 64.7107 49.0632 64.86 48.7366 64.972C48.4192 65.084 48.0832 65.14 47.7286 65.14ZM48.1066 63.81C48.5452 63.81 48.9326 63.7027 49.2686 63.488C49.6046 63.2733 49.8659 62.9793 50.0526 62.606C50.2486 62.2233 50.3466 61.7893 50.3466 61.304C50.3466 60.828 50.2486 60.4033 50.0526 60.03C49.8659 59.6567 49.6046 59.3627 49.2686 59.148C48.9326 58.9333 48.5452 58.826 48.1066 58.826C47.6772 58.826 47.2946 58.9333 46.9586 59.148C46.6319 59.3627 46.3706 59.6567 46.1746 60.03C45.9879 60.4033 45.8946 60.828 45.8946 61.304C45.8946 61.7893 45.9879 62.2233 46.1746 62.606C46.3706 62.9793 46.6319 63.2733 46.9586 63.488C47.2946 63.7027 47.6772 63.81 48.1066 63.81ZM54.67 65V55.774H56.112V65H54.67ZM53.144 59.05V57.65H57.82V59.05H53.144ZM60.043 65V55.774H61.485V65H60.043ZM58.517 59.05V57.65H63.193V59.05H58.517ZM69.294 67.268C68.482 67.268 67.7494 67.142 67.096 66.89C66.452 66.6473 65.9014 66.2973 65.444 65.84C64.996 65.392 64.6507 64.8507 64.408 64.216C64.1747 63.5813 64.058 62.8813 64.058 62.116C64.058 61.024 64.2494 60.044 64.632 59.176C65.024 58.2987 65.5607 57.5567 66.242 56.95C66.9327 56.334 67.7307 55.8673 68.636 55.55C69.5507 55.2233 70.526 55.06 71.562 55.06C72.3087 55.06 72.9807 55.1673 73.578 55.382C74.1754 55.5873 74.6887 55.886 75.118 56.278C75.5474 56.67 75.874 57.1367 76.098 57.678C76.3314 58.21 76.448 58.8027 76.448 59.456C76.448 60.0907 76.3547 60.6973 76.168 61.276C75.9907 61.8453 75.7387 62.354 75.412 62.802C75.0854 63.2407 74.7027 63.5907 74.264 63.852C73.8347 64.104 73.368 64.23 72.864 64.23C72.5374 64.23 72.248 64.174 71.996 64.062C71.7534 63.9407 71.562 63.7773 71.422 63.572C71.282 63.3667 71.212 63.1193 71.212 62.83C71.212 62.69 71.226 62.5407 71.254 62.382C71.2914 62.2233 71.3194 62.06 71.338 61.892L71.534 62.172C71.394 62.6107 71.2027 62.984 70.96 63.292C70.7267 63.6 70.4514 63.8333 70.134 63.992C69.8167 64.1507 69.4714 64.23 69.098 64.23C68.6967 64.23 68.3374 64.1227 68.02 63.908C67.712 63.6933 67.4694 63.3947 67.292 63.012C67.1147 62.6293 67.026 62.186 67.026 61.682C67.026 61.2433 67.1054 60.8 67.264 60.352C67.4227 59.904 67.6514 59.4933 67.95 59.12C68.2487 58.7467 68.6034 58.4433 69.014 58.21C69.4247 57.9767 69.8774 57.86 70.372 57.86C70.6614 57.86 70.918 57.93 71.142 58.07C71.3754 58.21 71.562 58.406 71.702 58.658C71.8514 58.91 71.94 59.204 71.968 59.54L71.632 60.366L71.996 57.986H73.41L72.696 62.298C72.668 62.4753 72.6774 62.6247 72.724 62.746C72.78 62.858 72.8594 62.942 72.962 62.998C73.0647 63.054 73.1767 63.082 73.298 63.082C73.578 63.082 73.8394 62.9887 74.082 62.802C74.3247 62.6153 74.5347 62.3587 74.712 62.032C74.8894 61.696 75.0294 61.3133 75.132 60.884C75.2347 60.4547 75.286 60.002 75.286 59.526C75.286 58.826 75.1367 58.2287 74.838 57.734C74.5394 57.23 74.1054 56.8473 73.536 56.586C72.976 56.3153 72.2994 56.18 71.506 56.18C70.554 56.18 69.6907 56.3153 68.916 56.586C68.1414 56.8473 67.4787 57.2347 66.928 57.748C66.3867 58.252 65.9667 58.868 65.668 59.596C65.3787 60.324 65.234 61.15 65.234 62.074C65.234 62.718 65.3227 63.292 65.5 63.796C65.6867 64.2907 65.9527 64.7153 66.298 65.07C66.6434 65.4247 67.0727 65.6907 67.586 65.868C68.0994 66.0547 68.6827 66.148 69.336 66.148C69.7747 66.148 70.1527 66.1153 70.47 66.05C70.7874 65.994 71.0907 65.9007 71.38 65.77C71.6694 65.6487 71.9914 65.4947 72.346 65.308L72.864 66.246C72.3134 66.526 71.842 66.736 71.45 66.876C71.058 67.0253 70.694 67.128 70.358 67.184C70.022 67.24 69.6674 67.268 69.294 67.268ZM69.42 63.04C69.7374 63.04 70.0407 62.942 70.33 62.746C70.6287 62.5407 70.8807 62.284 71.086 61.976C71.3007 61.6587 71.4314 61.332 71.478 60.996C71.506 60.828 71.5294 60.6833 71.548 60.562C71.5667 60.4407 71.576 60.324 71.576 60.212C71.576 59.9693 71.5294 59.764 71.436 59.596C71.3427 59.4187 71.2074 59.2833 71.03 59.19C70.862 59.0967 70.6614 59.05 70.428 59.05C70.064 59.05 69.7327 59.1853 69.434 59.456C69.1354 59.7173 68.8974 60.058 68.72 60.478C68.5427 60.8887 68.454 61.3133 68.454 61.752C68.454 62.1533 68.538 62.4707 68.706 62.704C68.8834 62.928 69.1214 63.04 69.42 63.04ZM80.4639 65.14C79.8479 65.14 79.2925 65.0327 78.7979 64.818C78.3032 64.6033 77.8925 64.286 77.5659 63.866L78.5459 63.026C78.8259 63.3527 79.1292 63.5907 79.4559 63.74C79.7919 63.88 80.1699 63.95 80.5899 63.95C80.7579 63.95 80.9119 63.9313 81.0519 63.894C81.2012 63.8473 81.3272 63.782 81.4299 63.698C81.5419 63.614 81.6259 63.516 81.6819 63.404C81.7379 63.2827 81.7659 63.152 81.7659 63.012C81.7659 62.7693 81.6772 62.5733 81.4999 62.424C81.4065 62.3587 81.2572 62.2887 81.0519 62.214C80.8559 62.13 80.5992 62.046 80.2819 61.962C79.7405 61.822 79.2972 61.6633 78.9519 61.486C78.6065 61.3087 78.3405 61.108 78.1539 60.884C78.0139 60.7067 77.9112 60.5153 77.8459 60.31C77.7805 60.0953 77.7479 59.862 77.7479 59.61C77.7479 59.302 77.8132 59.022 77.9439 58.77C78.0839 58.5087 78.2705 58.2847 78.5039 58.098C78.7465 57.902 79.0265 57.7527 79.3439 57.65C79.6705 57.5473 80.0159 57.496 80.3799 57.496C80.7252 57.496 81.0659 57.5427 81.4019 57.636C81.7472 57.7293 82.0645 57.8647 82.3539 58.042C82.6432 58.2193 82.8859 58.4293 83.0819 58.672L82.2559 59.582C82.0785 59.4047 81.8825 59.2507 81.6679 59.12C81.4625 58.98 81.2525 58.8727 81.0379 58.798C80.8232 58.7233 80.6272 58.686 80.4499 58.686C80.2539 58.686 80.0765 58.7047 79.9179 58.742C79.7592 58.7793 79.6239 58.8353 79.5119 58.91C79.4092 58.9847 79.3299 59.078 79.2739 59.19C79.2179 59.302 79.1899 59.428 79.1899 59.568C79.1992 59.6893 79.2272 59.806 79.2739 59.918C79.3299 60.0207 79.4045 60.1093 79.4979 60.184C79.6005 60.2587 79.7545 60.338 79.9599 60.422C80.1652 60.506 80.4265 60.5853 80.7439 60.66C81.2105 60.7813 81.5932 60.9167 81.8919 61.066C82.1999 61.206 82.4425 61.3693 82.6199 61.556C82.8065 61.7333 82.9372 61.9387 83.0119 62.172C83.0865 62.4053 83.1239 62.6667 83.1239 62.956C83.1239 63.376 83.0025 63.754 82.7599 64.09C82.5265 64.4167 82.2092 64.6733 81.8079 64.86C81.4065 65.0467 80.9585 65.14 80.4639 65.14ZM84.9511 65V57.65H86.3931V65H84.9511ZM85.6511 56.026C85.3431 56.026 85.1051 55.9467 84.9371 55.788C84.7691 55.6293 84.6851 55.4053 84.6851 55.116C84.6851 54.8453 84.7691 54.626 84.9371 54.458C85.1144 54.29 85.3524 54.206 85.6511 54.206C85.9591 54.206 86.1971 54.2853 86.3651 54.444C86.5331 54.6027 86.6171 54.8267 86.6171 55.116C86.6171 55.3867 86.5284 55.606 86.3511 55.774C86.1831 55.942 85.9497 56.026 85.6511 56.026ZM91.8996 68.22C91.3769 68.22 90.8542 68.136 90.3316 67.968C89.8182 67.8093 89.4029 67.5993 89.0856 67.338L89.6176 66.218C89.8042 66.358 90.0236 66.4793 90.2756 66.582C90.5276 66.694 90.7936 66.778 91.0736 66.834C91.3536 66.8993 91.6289 66.932 91.8996 66.932C92.4129 66.932 92.8422 66.848 93.1876 66.68C93.5329 66.512 93.7942 66.2647 93.9716 65.938C94.1489 65.6113 94.2376 65.2053 94.2376 64.72V63.306L94.3916 63.404C94.3449 63.6933 94.1909 63.9733 93.9296 64.244C93.6776 64.5053 93.3602 64.72 92.9776 64.888C92.5949 65.056 92.2029 65.14 91.8016 65.14C91.1016 65.14 90.4762 64.9767 89.9256 64.65C89.3842 64.314 88.9549 63.8613 88.6376 63.292C88.3202 62.7133 88.1616 62.0553 88.1616 61.318C88.1616 60.5807 88.3156 59.9273 88.6236 59.358C88.9409 58.7793 89.3702 58.3267 89.9116 58C90.4622 57.664 91.0782 57.496 91.7596 57.496C92.0396 57.496 92.3102 57.5333 92.5716 57.608C92.8329 57.6733 93.0756 57.7713 93.2996 57.902C93.5236 58.0233 93.7242 58.1587 93.9016 58.308C94.0789 58.4573 94.2236 58.616 94.3356 58.784C94.4476 58.952 94.5176 59.1107 94.5456 59.26L94.2376 59.372V57.65H95.6796V64.552C95.6796 65.14 95.5909 65.658 95.4136 66.106C95.2456 66.5633 94.9982 66.946 94.6716 67.254C94.3449 67.5713 93.9482 67.8093 93.4816 67.968C93.0149 68.136 92.4876 68.22 91.8996 68.22ZM91.9556 63.81C92.4129 63.81 92.8189 63.7027 93.1736 63.488C93.5282 63.2733 93.8036 62.9793 93.9996 62.606C94.1956 62.2327 94.2936 61.8033 94.2936 61.318C94.2936 60.8327 94.1909 60.4033 93.9856 60.03C93.7896 59.6473 93.5142 59.3487 93.1596 59.134C92.8142 58.9193 92.4129 58.812 91.9556 58.812C91.5076 58.812 91.1062 58.924 90.7516 59.148C90.4062 59.3627 90.1309 59.6613 89.9256 60.044C89.7296 60.4173 89.6316 60.842 89.6316 61.318C89.6316 61.794 89.7296 62.2233 89.9256 62.606C90.1309 62.9793 90.4062 63.2733 90.7516 63.488C91.1062 63.7027 91.5076 63.81 91.9556 63.81ZM97.7014 65V54.64H99.1434V59.162L98.8914 59.33C98.9847 59.0033 99.1667 58.7047 99.4374 58.434C99.708 58.154 100.03 57.93 100.403 57.762C100.777 57.5847 101.159 57.496 101.551 57.496C102.111 57.496 102.578 57.608 102.951 57.832C103.325 58.0467 103.605 58.378 103.791 58.826C103.978 59.274 104.071 59.8387 104.071 60.52V65H102.629V60.618C102.629 60.198 102.573 59.8527 102.461 59.582C102.349 59.302 102.177 59.1013 101.943 58.98C101.71 58.8493 101.421 58.7933 101.075 58.812C100.795 58.812 100.539 58.8587 100.305 58.952C100.072 59.036 99.8667 59.1573 99.6894 59.316C99.5214 59.4747 99.386 59.6613 99.2834 59.876C99.19 60.0813 99.1434 60.3053 99.1434 60.548V65H98.4294C98.308 65 98.1867 65 98.0654 65C97.944 65 97.8227 65 97.7014 65ZM106.938 65V55.774H108.38V65H106.938ZM105.412 59.05V57.65H110.088V59.05H105.412ZM113.907 65.14C113.216 65.14 112.614 64.9813 112.101 64.664C111.597 64.3467 111.121 63.8147 110.673 63.068L111.849 62.326C112.082 62.6713 112.311 62.956 112.535 63.18C112.768 63.3947 113.006 63.5533 113.249 63.656C113.491 63.7587 113.748 63.81 114.019 63.81C114.345 63.81 114.649 63.7307 114.929 63.572C115.209 63.404 115.433 63.1753 115.601 62.886C115.769 62.5967 115.853 62.27 115.853 61.906C115.853 61.542 115.787 61.234 115.657 60.982C115.526 60.7207 115.335 60.5247 115.083 60.394C114.831 60.254 114.532 60.184 114.187 60.184C114.028 60.184 113.86 60.2027 113.683 60.24C113.515 60.268 113.333 60.3147 113.137 60.38C112.941 60.436 112.726 60.5107 112.493 60.604L112.073 59.498L115.097 56.166L115.391 56.6H111.219V55.2H116.833L117.113 55.76L113.907 59.316L113.557 58.952C113.631 58.9147 113.753 58.882 113.921 58.854C114.098 58.8167 114.243 58.798 114.355 58.798C114.765 58.798 115.148 58.8773 115.503 59.036C115.867 59.1853 116.179 59.4 116.441 59.68C116.711 59.9507 116.921 60.2727 117.071 60.646C117.229 61.01 117.309 61.402 117.309 61.822C117.309 62.4567 117.155 63.026 116.847 63.53C116.548 64.0247 116.142 64.4167 115.629 64.706C115.115 64.9953 114.541 65.14 113.907 65.14ZM119.399 65.154C119.091 65.154 118.853 65.0653 118.685 64.888C118.517 64.7013 118.433 64.44 118.433 64.104C118.433 63.796 118.521 63.544 118.699 63.348C118.876 63.152 119.109 63.054 119.399 63.054C119.707 63.054 119.945 63.1473 120.113 63.334C120.281 63.5113 120.365 63.768 120.365 64.104C120.365 64.412 120.276 64.664 120.099 64.86C119.921 65.056 119.688 65.154 119.399 65.154ZM122.234 65V57.65H123.676V65H122.234ZM122.934 56.026C122.626 56.026 122.388 55.9467 122.22 55.788C122.052 55.6293 121.968 55.4053 121.968 55.116C121.968 54.8453 122.052 54.626 122.22 54.458C122.398 54.29 122.636 54.206 122.934 54.206C123.242 54.206 123.48 54.2853 123.648 54.444C123.816 54.6027 123.9 54.8267 123.9 55.116C123.9 55.3867 123.812 55.606 123.634 55.774C123.466 55.942 123.233 56.026 122.934 56.026ZM129.197 65.14C128.478 65.14 127.834 64.9767 127.265 64.65C126.705 64.314 126.261 63.8613 125.935 63.292C125.608 62.7133 125.445 62.0553 125.445 61.318C125.445 60.5807 125.608 59.9273 125.935 59.358C126.261 58.7793 126.705 58.3267 127.265 58C127.834 57.664 128.478 57.496 129.197 57.496C129.906 57.496 130.541 57.664 131.101 58C131.67 58.3267 132.118 58.7793 132.445 59.358C132.771 59.9273 132.935 60.5807 132.935 61.318C132.935 62.0553 132.771 62.7133 132.445 63.292C132.118 63.8613 131.67 64.314 131.101 64.65C130.541 64.9767 129.906 65.14 129.197 65.14ZM129.197 63.824C129.635 63.824 130.027 63.7167 130.373 63.502C130.718 63.278 130.989 62.9793 131.185 62.606C131.381 62.2233 131.474 61.794 131.465 61.318C131.474 60.8327 131.381 60.4033 131.185 60.03C130.989 59.6473 130.718 59.3487 130.373 59.134C130.027 58.9193 129.635 58.812 129.197 58.812C128.758 58.812 128.361 58.924 128.007 59.148C127.661 59.3627 127.391 59.6613 127.195 60.044C126.999 60.4173 126.905 60.842 126.915 61.318C126.905 61.794 126.999 62.2233 127.195 62.606C127.391 62.9793 127.661 63.278 128.007 63.502C128.361 63.7167 128.758 63.824 129.197 63.824Z" fill="#667085"/>
<a href="mailto:matt@sight3.io">
<rect fill="black" fill-opacity="0" y="0.25" width="102.495" height="17.5"/>
</a>
<path d="M213.167 47H235.833M235.833 47L227.333 38.5M235.833 47L227.333 55.5" stroke="white" stroke-width="2" stroke-linecap="round" stroke-linejoin="round"/>
<line x1="370" y1="37.5" x2="370" y2="56.5" stroke="#6666FF" stroke-width="2"/>
<path d="M386.943 44.6477H385.17C385.102 44.2689 384.975 43.9356 384.79 43.6477C384.604 43.3598 384.377 43.1155 384.108 42.9148C383.839 42.714 383.538 42.5625 383.205 42.4602C382.875 42.358 382.525 42.3068 382.153 42.3068C381.483 42.3068 380.883 42.4754 380.352 42.8125C379.826 43.1496 379.409 43.6439 379.102 44.2955C378.799 44.947 378.648 45.7424 378.648 46.6818C378.648 47.6288 378.799 48.428 379.102 49.0795C379.409 49.7311 379.828 50.2235 380.358 50.5568C380.888 50.8902 381.485 51.0568 382.148 51.0568C382.515 51.0568 382.864 51.0076 383.193 50.9091C383.527 50.8068 383.828 50.6572 384.097 50.4602C384.366 50.2633 384.593 50.0227 384.778 49.7386C384.968 49.4508 385.098 49.1212 385.17 48.75L386.943 48.7557C386.848 49.3277 386.665 49.8542 386.392 50.3352C386.123 50.8125 385.777 51.2254 385.352 51.5739C384.932 51.9186 384.451 52.1856 383.909 52.375C383.367 52.5644 382.777 52.6591 382.136 52.6591C381.129 52.6591 380.231 52.4205 379.443 51.9432C378.655 51.4621 378.034 50.7746 377.58 49.8807C377.129 48.9867 376.903 47.9205 376.903 46.6818C376.903 45.4394 377.131 44.3731 377.585 43.483C378.04 42.589 378.661 41.9034 379.449 41.4261C380.237 40.9451 381.133 40.7045 382.136 40.7045C382.754 40.7045 383.33 40.7936 383.864 40.9716C384.402 41.1458 384.884 41.4034 385.312 41.7443C385.741 42.0814 386.095 42.4943 386.375 42.983C386.655 43.4678 386.845 44.0227 386.943 44.6477ZM390.607 47.3182V52.5H388.908V40.8636H390.584V45.1932H390.692C390.896 44.7235 391.209 44.3504 391.629 44.0739C392.05 43.7973 392.599 43.6591 393.277 43.6591C393.875 43.6591 394.398 43.7822 394.845 44.0284C395.296 44.2746 395.644 44.642 395.891 45.1307C396.141 45.6155 396.266 46.2216 396.266 46.9489V52.5H394.567V47.1534C394.567 46.5133 394.402 46.017 394.072 45.6648C393.743 45.3087 393.285 45.1307 392.697 45.1307C392.296 45.1307 391.936 45.2159 391.618 45.3864C391.304 45.5568 391.055 45.8068 390.874 46.1364C390.696 46.4621 390.607 46.8561 390.607 47.3182ZM402.209 52.6761C401.391 52.6761 400.677 52.4886 400.067 52.1136C399.457 51.7386 398.983 51.214 398.646 50.5398C398.309 49.8655 398.141 49.0777 398.141 48.1761C398.141 47.2708 398.309 46.4792 398.646 45.8011C398.983 45.1231 399.457 44.5966 400.067 44.2216C400.677 43.8466 401.391 43.6591 402.209 43.6591C403.027 43.6591 403.741 43.8466 404.351 44.2216C404.961 44.5966 405.434 45.1231 405.771 45.8011C406.108 46.4792 406.277 47.2708 406.277 48.1761C406.277 49.0777 406.108 49.8655 405.771 50.5398C405.434 51.214 404.961 51.7386 404.351 52.1136C403.741 52.4886 403.027 52.6761 402.209 52.6761ZM402.214 51.25C402.745 51.25 403.184 51.1098 403.533 50.8295C403.881 50.5492 404.139 50.1761 404.305 49.7102C404.476 49.2443 404.561 48.7311 404.561 48.1705C404.561 47.6136 404.476 47.1023 404.305 46.6364C404.139 46.1667 403.881 45.7898 403.533 45.5057C403.184 45.2216 402.745 45.0795 402.214 45.0795C401.68 45.0795 401.237 45.2216 400.885 45.5057C400.536 45.7898 400.277 46.1667 400.107 46.6364C399.94 47.1023 399.857 47.6136 399.857 48.1705C399.857 48.7311 399.94 49.2443 400.107 49.7102C400.277 50.1761 400.536 50.5492 400.885 50.8295C401.237 51.1098 401.68 51.25 402.214 51.25ZM411.849 52.6761C411.031 52.6761 410.317 52.4886 409.707 52.1136C409.098 51.7386 408.624 51.214 408.287 50.5398C407.95 49.8655 407.781 49.0777 407.781 48.1761C407.781 47.2708 407.95 46.4792 408.287 45.8011C408.624 45.1231 409.098 44.5966 409.707 44.2216C410.317 43.8466 411.031 43.6591 411.849 43.6591C412.668 43.6591 413.382 43.8466 413.991 44.2216C414.601 44.5966 415.075 45.1231 415.412 45.8011C415.749 46.4792 415.918 47.2708 415.918 48.1761C415.918 49.0777 415.749 49.8655 415.412 50.5398C415.075 51.214 414.601 51.7386 413.991 52.1136C413.382 52.4886 412.668 52.6761 411.849 52.6761ZM411.855 51.25C412.385 51.25 412.825 51.1098 413.173 50.8295C413.522 50.5492 413.779 50.1761 413.946 49.7102C414.116 49.2443 414.202 48.7311 414.202 48.1705C414.202 47.6136 414.116 47.1023 413.946 46.6364C413.779 46.1667 413.522 45.7898 413.173 45.5057C412.825 45.2216 412.385 45.0795 411.855 45.0795C411.321 45.0795 410.878 45.2216 410.526 45.5057C410.177 45.7898 409.918 46.1667 409.747 46.6364C409.58 47.1023 409.497 47.6136 409.497 48.1705C409.497 48.7311 409.58 49.2443 409.747 49.7102C409.918 50.1761 410.177 50.5492 410.526 50.8295C410.878 51.1098 411.321 51.25 411.855 51.25ZM424.354 45.9034L422.814 46.1761C422.75 45.9792 422.647 45.7917 422.507 45.6136C422.371 45.4356 422.185 45.2898 421.95 45.1761C421.715 45.0625 421.422 45.0057 421.07 45.0057C420.589 45.0057 420.187 45.1136 419.865 45.3295C419.543 45.5417 419.382 45.8163 419.382 46.1534C419.382 46.4451 419.49 46.6799 419.706 46.858C419.922 47.036 420.27 47.1818 420.751 47.2955L422.138 47.6136C422.941 47.7992 423.539 48.0852 423.933 48.4716C424.327 48.858 424.524 49.3598 424.524 49.9773C424.524 50.5 424.373 50.9659 424.07 51.375C423.77 51.7803 423.352 52.0985 422.814 52.3295C422.28 52.5606 421.661 52.6761 420.956 52.6761C419.979 52.6761 419.181 52.4678 418.564 52.0511C417.946 51.6307 417.568 51.0341 417.428 50.2614L419.07 50.0114C419.172 50.4394 419.382 50.7633 419.7 50.983C420.018 51.1989 420.433 51.3068 420.945 51.3068C421.501 51.3068 421.946 51.1913 422.28 50.9602C422.613 50.7254 422.78 50.4394 422.78 50.1023C422.78 49.8295 422.678 49.6004 422.473 49.4148C422.272 49.2292 421.964 49.089 421.547 48.9943L420.07 48.6705C419.255 48.4848 418.653 48.1894 418.263 47.7841C417.876 47.3788 417.683 46.8655 417.683 46.2443C417.683 45.7292 417.827 45.2784 418.115 44.892C418.403 44.5057 418.801 44.2045 419.308 43.9886C419.816 43.7689 420.397 43.6591 421.053 43.6591C421.996 43.6591 422.738 43.8636 423.28 44.2727C423.821 44.678 424.179 45.2216 424.354 45.9034ZM430.153 52.6761C429.294 52.6761 428.553 52.4924 427.932 52.125C427.314 51.7538 426.837 51.233 426.5 50.5625C426.167 49.8883 426 49.0985 426 48.1932C426 47.2992 426.167 46.5114 426.5 45.8295C426.837 45.1477 427.307 44.6155 427.909 44.233C428.515 43.8504 429.223 43.6591 430.034 43.6591C430.527 43.6591 431.004 43.7405 431.466 43.9034C431.928 44.0663 432.343 44.322 432.71 44.6705C433.078 45.0189 433.367 45.4716 433.58 46.0284C433.792 46.5814 433.898 47.2538 433.898 48.0455V48.6477H426.96V47.375H432.233C432.233 46.928 432.142 46.5322 431.96 46.1875C431.778 45.839 431.523 45.5644 431.193 45.3636C430.867 45.1629 430.485 45.0625 430.045 45.0625C429.568 45.0625 429.152 45.1799 428.795 45.4148C428.443 45.6458 428.17 45.9489 427.977 46.3239C427.788 46.6951 427.693 47.0985 427.693 47.5341V48.5284C427.693 49.1117 427.795 49.608 428 50.017C428.208 50.4261 428.498 50.7386 428.869 50.9545C429.241 51.1667 429.674 51.2727 430.17 51.2727C430.492 51.2727 430.786 51.2273 431.051 51.1364C431.316 51.0417 431.545 50.9015 431.739 50.7159C431.932 50.5303 432.08 50.3011 432.182 50.0284L433.79 50.3182C433.661 50.7917 433.43 51.2064 433.097 51.5625C432.767 51.9148 432.352 52.1894 431.852 52.3864C431.356 52.5795 430.79 52.6761 430.153 52.6761ZM447.928 52.6761C447.083 52.6761 446.356 52.4848 445.746 52.1023C445.14 51.7159 444.674 51.1837 444.348 50.5057C444.022 49.8277 443.859 49.0511 443.859 48.1761C443.859 47.2898 444.026 46.5076 444.359 45.8295C444.693 45.1477 445.162 44.6155 445.768 44.233C446.375 43.8504 447.089 43.6591 447.911 43.6591C448.573 43.6591 449.164 43.7822 449.683 44.0284C450.202 44.2708 450.621 44.6117 450.939 45.0511C451.261 45.4905 451.452 46.0038 451.513 46.5909H449.859C449.768 46.1818 449.56 45.8295 449.234 45.5341C448.912 45.2386 448.481 45.0909 447.939 45.0909C447.465 45.0909 447.051 45.2159 446.695 45.4659C446.342 45.7121 446.068 46.0644 445.871 46.5227C445.674 46.9773 445.575 47.5152 445.575 48.1364C445.575 48.7727 445.672 49.322 445.865 49.7841C446.058 50.2462 446.331 50.6042 446.683 50.858C447.039 51.1117 447.458 51.2386 447.939 51.2386C448.261 51.2386 448.553 51.1799 448.814 51.0625C449.079 50.9413 449.301 50.7689 449.479 50.5455C449.661 50.322 449.787 50.053 449.859 49.7386H451.513C451.452 50.303 451.268 50.8068 450.962 51.25C450.655 51.6932 450.244 52.0417 449.729 52.2955C449.217 52.5492 448.617 52.6761 447.928 52.6761ZM457.006 52.6761C456.188 52.6761 455.473 52.4886 454.864 52.1136C454.254 51.7386 453.78 51.214 453.443 50.5398C453.106 49.8655 452.938 49.0777 452.938 48.1761C452.938 47.2708 453.106 46.4792 453.443 45.8011C453.78 45.1231 454.254 44.5966 454.864 44.2216C455.473 43.8466 456.188 43.6591 457.006 43.6591C457.824 43.6591 458.538 43.8466 459.148 44.2216C459.758 44.5966 460.231 45.1231 460.568 45.8011C460.905 46.4792 461.074 47.2708 461.074 48.1761C461.074 49.0777 460.905 49.8655 460.568 50.5398C460.231 51.214 459.758 51.7386 459.148 52.1136C458.538 52.4886 457.824 52.6761 457.006 52.6761ZM457.011 51.25C457.542 51.25 457.981 51.1098 458.33 50.8295C458.678 50.5492 458.936 50.1761 459.102 49.7102C459.273 49.2443 459.358 48.7311 459.358 48.1705C459.358 47.6136 459.273 47.1023 459.102 46.6364C458.936 46.1667 458.678 45.7898 458.33 45.5057C457.981 45.2216 457.542 45.0795 457.011 45.0795C456.477 45.0795 456.034 45.2216 455.682 45.5057C455.333 45.7898 455.074 46.1667 454.903 46.6364C454.737 47.1023 454.653 47.6136 454.653 48.1705C454.653 48.7311 454.737 49.2443 454.903 49.7102C455.074 50.1761 455.333 50.5492 455.682 50.8295C456.034 51.1098 456.477 51.25 457.011 51.25ZM464.669 40.8636V52.5H462.97V40.8636H464.669ZM472.483 48.8807V43.7727H474.188V52.5H472.517V50.9886H472.426C472.225 51.4545 471.903 51.8428 471.46 52.1534C471.021 52.4602 470.473 52.6136 469.818 52.6136C469.258 52.6136 468.761 52.4905 468.33 52.2443C467.902 51.9943 467.564 51.625 467.318 51.1364C467.076 50.6477 466.955 50.0436 466.955 49.3239V43.7727H468.653V49.1193C468.653 49.714 468.818 50.1875 469.148 50.5398C469.477 50.892 469.905 51.0682 470.432 51.0682C470.75 51.0682 471.066 50.9886 471.381 50.8295C471.699 50.6705 471.962 50.4299 472.17 50.108C472.383 49.786 472.487 49.3769 472.483 48.8807ZM476.47 52.5V43.7727H478.101V45.1932H478.209C478.391 44.7121 478.688 44.3371 479.101 44.0682C479.514 43.7955 480.008 43.6591 480.584 43.6591C481.167 43.6591 481.656 43.7955 482.05 44.0682C482.447 44.3409 482.741 44.7159 482.93 45.1932H483.021C483.23 44.7273 483.561 44.3561 484.016 44.0795C484.47 43.7992 485.012 43.6591 485.641 43.6591C486.432 43.6591 487.078 43.9072 487.578 44.4034C488.082 44.8996 488.334 45.6477 488.334 46.6477V52.5H486.635V46.8068C486.635 46.2159 486.474 45.7879 486.152 45.5227C485.83 45.2576 485.446 45.125 484.999 45.125C484.446 45.125 484.016 45.2955 483.709 45.6364C483.402 45.9735 483.249 46.4072 483.249 46.9375V52.5H481.555V46.6989C481.555 46.2254 481.408 45.8447 481.112 45.5568C480.817 45.2689 480.432 45.125 479.959 45.125C479.637 45.125 479.339 45.2102 479.067 45.3807C478.798 45.5473 478.58 45.7803 478.413 46.0795C478.25 46.3788 478.169 46.7254 478.169 47.1193V52.5H476.47ZM492.31 47.3182V52.5H490.611V43.7727H492.241V45.1932H492.349C492.55 44.7311 492.865 44.3598 493.293 44.0795C493.724 43.7992 494.268 43.6591 494.923 43.6591C495.518 43.6591 496.039 43.7841 496.486 44.0341C496.933 44.2803 497.279 44.6477 497.526 45.1364C497.772 45.625 497.895 46.2292 497.895 46.9489V52.5H496.196V47.1534C496.196 46.5208 496.031 46.0265 495.702 45.6705C495.372 45.3106 494.92 45.1307 494.344 45.1307C493.95 45.1307 493.599 45.2159 493.293 45.3864C492.99 45.5568 492.749 45.8068 492.571 46.1364C492.397 46.4621 492.31 46.8561 492.31 47.3182Z" fill="#98A2B3"/>
<path d="M601 44L607 50L613 44" stroke="#98A2B3" stroke-width="2" stroke-linecap="round" stroke-linejoin="round"/>
<rect x="1" y="1" width="657" height="92" rx="19" stroke="url(#paint1_linear_1_8560)" stroke-width="2"/>
<defs>
<linearGradient id="paint0_linear_1_8560" x1="-112.17" y1="-47.4974" x2="-70.1396" y2="170.908" gradientUnits="userSpaceOnUse">
<stop stop-color="#262626"/>
<stop offset="1" stop-color="#141414"/>
</linearGradient>
<linearGradient id="paint1_linear_1_8560" x1="434.66" y1="-47" x2="427.968" y2="98.5277" gradientUnits="userSpaceOnUse">
<stop stop-color="#393939"/>
<stop offset="1" stop-opacity="0"/>
</linearGradient>
</defs>
</svg>
