<svg width="659" height="94" viewBox="0 0 659 94" fill="none" xmlns="http://www.w3.org/2000/svg">
<rect x="1" y="1" width="657" height="92" rx="11" fill="url(#paint0_linear_1_8536)"/>
<path d="M37.256 41.16C36.4453 41.16 35.704 41.0213 35.032 40.744C34.36 40.4667 33.7787 40.072 33.288 39.56C32.7973 39.0373 32.4133 38.424 32.136 37.72C31.8693 37.0053 31.736 36.2267 31.736 35.384C31.736 34.5733 31.88 33.8213 32.168 33.128C32.456 32.4347 32.856 31.8267 33.368 31.304C33.88 30.7813 34.4773 30.376 35.16 30.088C35.8427 29.8 36.584 29.656 37.384 29.656C37.928 29.656 38.456 29.736 38.968 29.896C39.48 30.056 39.9493 30.28 40.376 30.568C40.8027 30.8453 41.16 31.1707 41.448 31.544L40.12 33C39.8427 32.712 39.5547 32.472 39.256 32.28C38.968 32.0773 38.664 31.928 38.344 31.832C38.0347 31.7253 37.7147 31.672 37.384 31.672C36.8933 31.672 36.4293 31.7627 35.992 31.944C35.5653 32.1253 35.192 32.3813 34.872 32.712C34.5627 33.0427 34.3173 33.4373 34.136 33.896C33.9547 34.344 33.864 34.8453 33.864 35.4C33.864 35.9653 33.9493 36.4773 34.12 36.936C34.3013 37.3947 34.552 37.7893 34.872 38.12C35.2027 38.4507 35.592 38.7067 36.04 38.888C36.4987 39.0587 37 39.144 37.544 39.144C37.896 39.144 38.2373 39.096 38.568 39C38.8987 38.904 39.2027 38.7707 39.48 38.6C39.768 38.4187 40.0293 38.2107 40.264 37.976L41.288 39.624C41.032 39.912 40.6907 40.1733 40.264 40.408C39.8373 40.6427 39.3573 40.8293 38.824 40.968C38.3013 41.096 37.7787 41.16 37.256 41.16ZM46.9455 41.16C46.1028 41.16 45.3508 40.9733 44.6895 40.6C44.0282 40.216 43.5055 39.6933 43.1215 39.032C42.7375 38.3707 42.5455 37.6187 42.5455 36.776C42.5455 35.9333 42.7375 35.1813 43.1215 34.52C43.5055 33.8587 44.0282 33.3413 44.6895 32.968C45.3508 32.584 46.1028 32.392 46.9455 32.392C47.7775 32.392 48.5242 32.584 49.1855 32.968C49.8468 33.3413 50.3642 33.8587 50.7375 34.52C51.1215 35.1813 51.3135 35.9333 51.3135 36.776C51.3135 37.6187 51.1215 38.3707 50.7375 39.032C50.3642 39.6933 49.8468 40.216 49.1855 40.6C48.5242 40.9733 47.7775 41.16 46.9455 41.16ZM46.9455 39.416C47.4042 39.416 47.8095 39.2987 48.1615 39.064C48.5242 38.8293 48.8068 38.5147 49.0095 38.12C49.2228 37.7253 49.3242 37.2773 49.3135 36.776C49.3242 36.264 49.2228 35.8107 49.0095 35.416C48.8068 35.0213 48.5242 34.712 48.1615 34.488C47.8095 34.2533 47.4042 34.136 46.9455 34.136C46.4868 34.136 46.0708 34.2533 45.6975 34.488C45.3348 34.712 45.0522 35.0267 44.8495 35.432C44.6468 35.8267 44.5455 36.2747 44.5455 36.776C44.5455 37.2773 44.6468 37.7253 44.8495 38.12C45.0522 38.5147 45.3348 38.8293 45.6975 39.064C46.0708 39.2987 46.4868 39.416 46.9455 39.416ZM53.0419 41V32.568H54.9779L55.0099 34.264L54.6899 34.392C54.7859 34.1147 54.9299 33.8587 55.1219 33.624C55.3139 33.3787 55.5432 33.1707 55.8099 33C56.0765 32.8187 56.3592 32.68 56.6579 32.584C56.9565 32.4773 57.2605 32.424 57.5699 32.424C58.0285 32.424 58.4339 32.4987 58.7859 32.648C59.1485 32.7867 59.4472 33.0107 59.6819 33.32C59.9272 33.6293 60.1085 34.024 60.2259 34.504L59.9219 34.44L60.0499 34.184C60.1672 33.928 60.3325 33.6987 60.5459 33.496C60.7592 33.2827 60.9992 33.096 61.2659 32.936C61.5325 32.7653 61.8099 32.6373 62.0979 32.552C62.3965 32.4667 62.6899 32.424 62.9779 32.424C63.6179 32.424 64.1512 32.552 64.5779 32.808C65.0045 33.064 65.3245 33.4533 65.5379 33.976C65.7512 34.4987 65.8579 35.144 65.8579 35.912V41H63.8739V36.04C63.8739 35.6133 63.8152 35.2613 63.6979 34.984C63.5912 34.7067 63.4205 34.504 63.1859 34.376C62.9619 34.2373 62.6792 34.168 62.3379 34.168C62.0712 34.168 61.8152 34.216 61.5699 34.312C61.3352 34.3973 61.1325 34.5253 60.9619 34.696C60.7912 34.856 60.6579 35.0427 60.5619 35.256C60.4659 35.4693 60.4179 35.704 60.4179 35.96V41H58.4339V36.024C58.4339 35.6187 58.3752 35.2827 58.2579 35.016C58.1405 34.7387 57.9699 34.5307 57.7459 34.392C57.5219 34.2427 57.2499 34.168 56.9299 34.168C56.6632 34.168 56.4125 34.216 56.1779 34.312C55.9432 34.3973 55.7405 34.52 55.5699 34.68C55.3992 34.84 55.2659 35.0267 55.1699 35.24C55.0739 35.4533 55.0259 35.688 55.0259 35.944V41H53.0419ZM68.0426 44.52V32.568H69.9786L70.0106 34.488L69.6746 34.344C69.7386 34.0133 69.92 33.704 70.2186 33.416C70.5173 33.1173 70.88 32.8773 71.3066 32.696C71.744 32.5147 72.1973 32.424 72.6666 32.424C73.4133 32.424 74.0746 32.6107 74.6506 32.984C75.2373 33.3573 75.696 33.8693 76.0266 34.52C76.368 35.1707 76.5386 35.9227 76.5386 36.776C76.5386 37.6187 76.368 38.3707 76.0266 39.032C75.696 39.6827 75.2373 40.2 74.6506 40.584C74.0746 40.9573 73.424 41.144 72.6986 41.144C72.208 41.144 71.7333 41.048 71.2746 40.856C70.8266 40.664 70.4426 40.4133 70.1226 40.104C69.8133 39.7947 69.6213 39.4693 69.5466 39.128L70.0266 38.904V44.52H68.0426ZM72.2986 39.4C72.7466 39.4 73.1466 39.288 73.4986 39.064C73.8506 38.84 74.1226 38.5307 74.3146 38.136C74.5173 37.7413 74.6186 37.288 74.6186 36.776C74.6186 36.264 74.5226 35.816 74.3306 35.432C74.1386 35.0373 73.8666 34.728 73.5146 34.504C73.1626 34.28 72.7573 34.168 72.2986 34.168C71.8293 34.168 71.4186 34.28 71.0666 34.504C70.7253 34.7173 70.4533 35.0213 70.2506 35.416C70.048 35.8107 69.9466 36.264 69.9466 36.776C69.9466 37.288 70.048 37.7413 70.2506 38.136C70.4533 38.5307 70.7253 38.84 71.0666 39.064C71.4186 39.288 71.8293 39.4 72.2986 39.4ZM81.4766 41.16C80.7833 41.16 80.154 40.968 79.5886 40.584C79.0233 40.2 78.57 39.6773 78.2286 39.016C77.8873 38.3547 77.7166 37.6027 77.7166 36.76C77.7166 35.9173 77.8873 35.1653 78.2286 34.504C78.57 33.8427 79.034 33.3253 79.6206 32.952C80.2073 32.5787 80.8686 32.392 81.6046 32.392C82.0313 32.392 82.4206 32.456 82.7726 32.584C83.1246 32.7013 83.434 32.872 83.7006 33.096C83.9673 33.32 84.186 33.576 84.3566 33.864C84.538 34.152 84.6606 34.4613 84.7246 34.792L84.2926 34.68V32.568H86.2766V41H84.2766V38.984L84.7406 38.904C84.666 39.192 84.5273 39.4747 84.3246 39.752C84.1326 40.0187 83.8873 40.2587 83.5886 40.472C83.3006 40.6747 82.9753 40.84 82.6126 40.968C82.2606 41.096 81.882 41.16 81.4766 41.16ZM82.0206 39.416C82.4793 39.416 82.8846 39.304 83.2366 39.08C83.5886 38.856 83.8606 38.5467 84.0526 38.152C84.2553 37.7467 84.3566 37.2827 84.3566 36.76C84.3566 36.248 84.2553 35.7947 84.0526 35.4C83.8606 35.0053 83.5886 34.696 83.2366 34.472C82.8846 34.248 82.4793 34.136 82.0206 34.136C81.562 34.136 81.1566 34.248 80.8046 34.472C80.4633 34.696 80.1966 35.0053 80.0046 35.4C79.8126 35.7947 79.7166 36.248 79.7166 36.76C79.7166 37.2827 79.8126 37.7467 80.0046 38.152C80.1966 38.5467 80.4633 38.856 80.8046 39.08C81.1566 39.304 81.562 39.416 82.0206 39.416ZM88.5583 41V32.568H90.4783L90.5103 34.296L90.1423 34.488C90.2489 34.104 90.4569 33.7573 90.7663 33.448C91.0756 33.128 91.4436 32.872 91.8703 32.68C92.2969 32.488 92.7343 32.392 93.1823 32.392C93.8223 32.392 94.3556 32.52 94.7823 32.776C95.2196 33.032 95.5449 33.416 95.7583 33.928C95.9823 34.44 96.0943 35.08 96.0943 35.848V41H94.1263V35.992C94.1263 35.5653 94.0676 35.2133 93.9503 34.936C93.8329 34.648 93.6516 34.44 93.4063 34.312C93.1609 34.1733 92.8623 34.1093 92.5103 34.12C92.2223 34.12 91.9556 34.168 91.7103 34.264C91.4756 34.3493 91.2676 34.4773 91.0863 34.648C90.9156 34.808 90.7769 34.9947 90.6703 35.208C90.5743 35.4213 90.5263 35.656 90.5263 35.912V41H89.5503C89.3583 41 89.1769 41 89.0063 41C88.8463 41 88.6969 41 88.5583 41ZM99.5101 44.68L101.302 40.536L101.318 41.848L97.1581 32.568H99.4301L101.75 38.072C101.825 38.2107 101.899 38.3973 101.974 38.632C102.049 38.856 102.113 39.08 102.166 39.304L101.766 39.432C101.841 39.2293 101.921 39.016 102.006 38.792C102.091 38.5573 102.171 38.3173 102.246 38.072L104.23 32.568H106.518L102.998 41L101.558 44.68H99.5101Z" fill="black"/>
<path d="M35.396 65.14C34.864 65.14 34.3693 65.07 33.912 64.93C33.464 64.79 33.0533 64.58 32.68 64.3C32.316 64.0107 31.9893 63.656 31.7 63.236L32.736 62.046C33.1933 62.6993 33.632 63.152 34.052 63.404C34.472 63.656 34.9713 63.782 35.55 63.782C35.9047 63.782 36.2267 63.726 36.516 63.614C36.8053 63.502 37.034 63.348 37.202 63.152C37.37 62.956 37.454 62.732 37.454 62.48C37.454 62.312 37.426 62.1533 37.37 62.004C37.314 61.8547 37.2253 61.7193 37.104 61.598C36.992 61.4767 36.8427 61.3647 36.656 61.262C36.4787 61.1593 36.2687 61.0707 36.026 60.996C35.7833 60.912 35.5033 60.842 35.186 60.786C34.682 60.6833 34.2433 60.548 33.87 60.38C33.4967 60.212 33.184 60.002 32.932 59.75C32.68 59.498 32.4933 59.2133 32.372 58.896C32.2507 58.5693 32.19 58.2053 32.19 57.804C32.19 57.412 32.274 57.048 32.442 56.712C32.6193 56.376 32.8573 56.0867 33.156 55.844C33.464 55.592 33.8233 55.4007 34.234 55.27C34.6447 55.13 35.088 55.06 35.564 55.06C36.068 55.06 36.53 55.1253 36.95 55.256C37.37 55.3867 37.7433 55.5827 38.07 55.844C38.3967 56.096 38.6673 56.4087 38.882 56.782L37.818 57.832C37.6313 57.524 37.4213 57.2673 37.188 57.062C36.9547 56.8473 36.698 56.6887 36.418 56.586C36.138 56.474 35.8393 56.418 35.522 56.418C35.158 56.418 34.8407 56.474 34.57 56.586C34.2993 56.698 34.0847 56.8567 33.926 57.062C33.7767 57.258 33.702 57.4913 33.702 57.762C33.702 57.958 33.7393 58.14 33.814 58.308C33.8887 58.4667 34.0007 58.6113 34.15 58.742C34.3087 58.8633 34.5187 58.9753 34.78 59.078C35.0413 59.1713 35.354 59.2553 35.718 59.33C36.2313 59.442 36.6887 59.5867 37.09 59.764C37.4913 59.932 37.832 60.1327 38.112 60.366C38.392 60.5993 38.602 60.8607 38.742 61.15C38.8913 61.4393 38.966 61.752 38.966 62.088C38.966 62.7133 38.8213 63.2547 38.532 63.712C38.2427 64.1693 37.832 64.524 37.3 64.776C36.768 65.0187 36.1333 65.14 35.396 65.14ZM40.9823 65V57.65H42.4243V65H40.9823ZM41.6823 56.026C41.3743 56.026 41.1363 55.9467 40.9683 55.788C40.8003 55.6293 40.7163 55.4053 40.7163 55.116C40.7163 54.8453 40.8003 54.626 40.9683 54.458C41.1457 54.29 41.3837 54.206 41.6823 54.206C41.9903 54.206 42.2283 54.2853 42.3963 54.444C42.5643 54.6027 42.6483 54.8267 42.6483 55.116C42.6483 55.3867 42.5597 55.606 42.3823 55.774C42.2143 55.942 41.981 56.026 41.6823 56.026ZM47.9308 68.22C47.4081 68.22 46.8855 68.136 46.3628 67.968C45.8495 67.8093 45.4341 67.5993 45.1168 67.338L45.6488 66.218C45.8355 66.358 46.0548 66.4793 46.3068 66.582C46.5588 66.694 46.8248 66.778 47.1048 66.834C47.3848 66.8993 47.6601 66.932 47.9308 66.932C48.4441 66.932 48.8735 66.848 49.2188 66.68C49.5641 66.512 49.8255 66.2647 50.0028 65.938C50.1801 65.6113 50.2688 65.2053 50.2688 64.72V63.306L50.4228 63.404C50.3761 63.6933 50.2221 63.9733 49.9608 64.244C49.7088 64.5053 49.3915 64.72 49.0088 64.888C48.6261 65.056 48.2341 65.14 47.8328 65.14C47.1328 65.14 46.5075 64.9767 45.9568 64.65C45.4155 64.314 44.9861 63.8613 44.6688 63.292C44.3515 62.7133 44.1928 62.0553 44.1928 61.318C44.1928 60.5807 44.3468 59.9273 44.6548 59.358C44.9721 58.7793 45.4015 58.3267 45.9428 58C46.4935 57.664 47.1095 57.496 47.7908 57.496C48.0708 57.496 48.3415 57.5333 48.6028 57.608C48.8641 57.6733 49.1068 57.7713 49.3308 57.902C49.5548 58.0233 49.7555 58.1587 49.9328 58.308C50.1101 58.4573 50.2548 58.616 50.3668 58.784C50.4788 58.952 50.5488 59.1107 50.5768 59.26L50.2688 59.372V57.65H51.7108V64.552C51.7108 65.14 51.6221 65.658 51.4448 66.106C51.2768 66.5633 51.0295 66.946 50.7028 67.254C50.3761 67.5713 49.9795 67.8093 49.5128 67.968C49.0461 68.136 48.5188 68.22 47.9308 68.22ZM47.9868 63.81C48.4441 63.81 48.8501 63.7027 49.2048 63.488C49.5595 63.2733 49.8348 62.9793 50.0308 62.606C50.2268 62.2327 50.3248 61.8033 50.3248 61.318C50.3248 60.8327 50.2221 60.4033 50.0168 60.03C49.8208 59.6473 49.5455 59.3487 49.1908 59.134C48.8455 58.9193 48.4441 58.812 47.9868 58.812C47.5388 58.812 47.1375 58.924 46.7828 59.148C46.4375 59.3627 46.1621 59.6613 45.9568 60.044C45.7608 60.4173 45.6628 60.842 45.6628 61.318C45.6628 61.794 45.7608 62.2233 45.9568 62.606C46.1621 62.9793 46.4375 63.2733 46.7828 63.488C47.1375 63.7027 47.5388 63.81 47.9868 63.81ZM53.7326 65V54.64H55.1746V59.162L54.9226 59.33C55.0159 59.0033 55.1979 58.7047 55.4686 58.434C55.7393 58.154 56.0613 57.93 56.4346 57.762C56.8079 57.5847 57.1906 57.496 57.5826 57.496C58.1426 57.496 58.6093 57.608 58.9826 57.832C59.3559 58.0467 59.6359 58.378 59.8226 58.826C60.0093 59.274 60.1026 59.8387 60.1026 60.52V65H58.6606V60.618C58.6606 60.198 58.6046 59.8527 58.4926 59.582C58.3806 59.302 58.2079 59.1013 57.9746 58.98C57.7413 58.8493 57.4519 58.7933 57.1066 58.812C56.8266 58.812 56.5699 58.8587 56.3366 58.952C56.1033 59.036 55.8979 59.1573 55.7206 59.316C55.5526 59.4747 55.4173 59.6613 55.3146 59.876C55.2213 60.0813 55.1746 60.3053 55.1746 60.548V65H54.4606C54.3393 65 54.2179 65 54.0966 65C53.9753 65 53.8539 65 53.7326 65ZM62.9688 65V55.774H64.4108V65H62.9688ZM61.4428 59.05V57.65H66.1188V59.05H61.4428ZM69.9378 65.14C69.2472 65.14 68.6452 64.9813 68.1318 64.664C67.6278 64.3467 67.1518 63.8147 66.7038 63.068L67.8798 62.326C68.1132 62.6713 68.3418 62.956 68.5658 63.18C68.7992 63.3947 69.0372 63.5533 69.2798 63.656C69.5225 63.7587 69.7792 63.81 70.0498 63.81C70.3765 63.81 70.6798 63.7307 70.9598 63.572C71.2398 63.404 71.4638 63.1753 71.6318 62.886C71.7998 62.5967 71.8838 62.27 71.8838 61.906C71.8838 61.542 71.8185 61.234 71.6878 60.982C71.5572 60.7207 71.3658 60.5247 71.1138 60.394C70.8618 60.254 70.5632 60.184 70.2178 60.184C70.0592 60.184 69.8912 60.2027 69.7138 60.24C69.5458 60.268 69.3638 60.3147 69.1678 60.38C68.9718 60.436 68.7572 60.5107 68.5238 60.604L68.1038 59.498L71.1278 56.166L71.4218 56.6H67.2498V55.2H72.8638L73.1438 55.76L69.9378 59.316L69.5878 58.952C69.6625 58.9147 69.7838 58.882 69.9518 58.854C70.1292 58.8167 70.2738 58.798 70.3858 58.798C70.7965 58.798 71.1792 58.8773 71.5338 59.036C71.8978 59.1853 72.2105 59.4 72.4718 59.68C72.7425 59.9507 72.9525 60.2727 73.1018 60.646C73.2605 61.01 73.3398 61.402 73.3398 61.822C73.3398 62.4567 73.1858 63.026 72.8778 63.53C72.5792 64.0247 72.1732 64.4167 71.6598 64.706C71.1465 64.9953 70.5725 65.14 69.9378 65.14ZM80.9918 65V56.656H78.2478V55.2H85.3318V56.656H82.5038V65H80.9918ZM88.8677 65.14C88.1117 65.14 87.4397 64.9813 86.8517 64.664C86.273 64.3373 85.8157 63.894 85.4797 63.334C85.153 62.774 84.9897 62.13 84.9897 61.402C84.9897 60.8233 85.083 60.296 85.2697 59.82C85.4564 59.344 85.713 58.9333 86.0397 58.588C86.3757 58.2333 86.7724 57.9627 87.2297 57.776C87.6964 57.58 88.2004 57.482 88.7417 57.482C89.2177 57.482 89.661 57.5753 90.0717 57.762C90.4824 57.9393 90.837 58.1867 91.1357 58.504C91.4437 58.8213 91.677 59.1993 91.8357 59.638C92.0037 60.0673 92.083 60.5387 92.0737 61.052L92.0597 61.668H86.0537L85.7317 60.52H90.8137L90.6037 60.758V60.422C90.5757 60.114 90.473 59.8387 90.2957 59.596C90.1184 59.3533 89.8944 59.162 89.6237 59.022C89.353 58.882 89.059 58.812 88.7417 58.812C88.2377 58.812 87.813 58.91 87.4677 59.106C87.1224 59.2927 86.861 59.5727 86.6837 59.946C86.5064 60.31 86.4177 60.7627 86.4177 61.304C86.4177 61.8173 86.525 62.2653 86.7397 62.648C86.9544 63.0213 87.2577 63.3107 87.6497 63.516C88.0417 63.7213 88.4944 63.824 89.0077 63.824C89.3717 63.824 89.7077 63.7633 90.0157 63.642C90.333 63.5207 90.6737 63.3013 91.0377 62.984L91.7657 64.006C91.5417 64.23 91.2664 64.426 90.9397 64.594C90.6224 64.762 90.2817 64.8973 89.9177 65C89.563 65.0933 89.213 65.14 88.8677 65.14ZM96.7628 65.14C96.0815 65.14 95.4701 64.972 94.9288 64.636C94.3968 64.3 93.9721 63.8427 93.6548 63.264C93.3468 62.6853 93.1928 62.0367 93.1928 61.318C93.1928 60.5993 93.3468 59.9507 93.6548 59.372C93.9721 58.7933 94.3968 58.336 94.9288 58C95.4701 57.664 96.0815 57.496 96.7628 57.496C97.4161 57.496 98.0088 57.6313 98.5408 57.902C99.0821 58.1633 99.4928 58.5227 99.7728 58.98L98.9748 59.96C98.8255 59.7453 98.6341 59.5493 98.4008 59.372C98.1675 59.1947 97.9201 59.0547 97.6588 58.952C97.3975 58.8493 97.1455 58.798 96.9028 58.798C96.4548 58.798 96.0535 58.91 95.6988 59.134C95.3535 59.3487 95.0781 59.6473 94.8728 60.03C94.6675 60.4127 94.5648 60.842 94.5648 61.318C94.5648 61.794 94.6721 62.2233 94.8868 62.606C95.1015 62.9793 95.3861 63.278 95.7408 63.502C96.0955 63.726 96.4875 63.838 96.9168 63.838C97.1688 63.838 97.4115 63.796 97.6448 63.712C97.8875 63.628 98.1208 63.502 98.3448 63.334C98.5688 63.166 98.7788 62.9607 98.9748 62.718L99.7728 63.698C99.4741 64.118 99.0448 64.4633 98.4848 64.734C97.9341 65.0047 97.3601 65.14 96.7628 65.14ZM101.133 65V54.64H102.575V59.162L102.323 59.33C102.416 59.0033 102.598 58.7047 102.869 58.434C103.14 58.154 103.462 57.93 103.835 57.762C104.208 57.5847 104.591 57.496 104.983 57.496C105.543 57.496 106.01 57.608 106.383 57.832C106.756 58.0467 107.036 58.378 107.223 58.826C107.41 59.274 107.503 59.8387 107.503 60.52V65H106.061V60.618C106.061 60.198 106.005 59.8527 105.893 59.582C105.781 59.302 105.608 59.1013 105.375 58.98C105.142 58.8493 104.852 58.7933 104.507 58.812C104.227 58.812 103.97 58.8587 103.737 58.952C103.504 59.036 103.298 59.1573 103.121 59.316C102.953 59.4747 102.818 59.6613 102.715 59.876C102.622 60.0813 102.575 60.3053 102.575 60.548V65H101.861C101.74 65 101.618 65 101.497 65C101.376 65 101.254 65 101.133 65ZM109.459 65V57.65H110.901V59.162L110.649 59.33C110.743 59.0033 110.925 58.7047 111.195 58.434C111.466 58.154 111.788 57.93 112.161 57.762C112.535 57.5847 112.917 57.496 113.309 57.496C113.869 57.496 114.336 57.608 114.709 57.832C115.083 58.0467 115.363 58.378 115.549 58.826C115.736 59.274 115.829 59.8387 115.829 60.52V65H114.387V60.618C114.387 60.198 114.331 59.8527 114.219 59.582C114.107 59.302 113.935 59.1013 113.701 58.98C113.468 58.8493 113.179 58.7933 112.833 58.812C112.553 58.812 112.297 58.8587 112.063 58.952C111.83 59.036 111.625 59.1573 111.447 59.316C111.279 59.4747 111.144 59.6613 111.041 59.876C110.948 60.0813 110.901 60.3053 110.901 60.548V65H110.187C110.066 65 109.945 65 109.823 65C109.702 65 109.581 65 109.459 65ZM121.089 65.14C120.371 65.14 119.727 64.9767 119.157 64.65C118.597 64.314 118.154 63.8613 117.827 63.292C117.501 62.7133 117.337 62.0553 117.337 61.318C117.337 60.5807 117.501 59.9273 117.827 59.358C118.154 58.7793 118.597 58.3267 119.157 58C119.727 57.664 120.371 57.496 121.089 57.496C121.799 57.496 122.433 57.664 122.993 58C123.563 58.3267 124.011 58.7793 124.337 59.358C124.664 59.9273 124.827 60.5807 124.827 61.318C124.827 62.0553 124.664 62.7133 124.337 63.292C124.011 63.8613 123.563 64.314 122.993 64.65C122.433 64.9767 121.799 65.14 121.089 65.14ZM121.089 63.824C121.528 63.824 121.92 63.7167 122.265 63.502C122.611 63.278 122.881 62.9793 123.077 62.606C123.273 62.2233 123.367 61.794 123.357 61.318C123.367 60.8327 123.273 60.4033 123.077 60.03C122.881 59.6473 122.611 59.3487 122.265 59.134C121.92 58.9193 121.528 58.812 121.089 58.812C120.651 58.812 120.254 58.924 119.899 59.148C119.554 59.3627 119.283 59.6613 119.087 60.044C118.891 60.4173 118.798 60.842 118.807 61.318C118.798 61.794 118.891 62.2233 119.087 62.606C119.283 62.9793 119.554 63.278 119.899 63.502C120.254 63.7167 120.651 63.824 121.089 63.824ZM126.427 65V54.64H127.869V65H126.427ZM133.08 65.14C132.361 65.14 131.717 64.9767 131.148 64.65C130.588 64.314 130.144 63.8613 129.818 63.292C129.491 62.7133 129.328 62.0553 129.328 61.318C129.328 60.5807 129.491 59.9273 129.818 59.358C130.144 58.7793 130.588 58.3267 131.148 58C131.717 57.664 132.361 57.496 133.08 57.496C133.789 57.496 134.424 57.664 134.984 58C135.553 58.3267 136.001 58.7793 136.328 59.358C136.654 59.9273 136.818 60.5807 136.818 61.318C136.818 62.0553 136.654 62.7133 136.328 63.292C136.001 63.8613 135.553 64.314 134.984 64.65C134.424 64.9767 133.789 65.14 133.08 65.14ZM133.08 63.824C133.518 63.824 133.91 63.7167 134.256 63.502C134.601 63.278 134.872 62.9793 135.068 62.606C135.264 62.2233 135.357 61.794 135.348 61.318C135.357 60.8327 135.264 60.4033 135.068 60.03C134.872 59.6473 134.601 59.3487 134.256 59.134C133.91 58.9193 133.518 58.812 133.08 58.812C132.641 58.812 132.244 58.924 131.89 59.148C131.544 59.3627 131.274 59.6613 131.078 60.044C130.882 60.4173 130.788 60.842 130.798 61.318C130.788 61.794 130.882 62.2233 131.078 62.606C131.274 62.9793 131.544 63.278 131.89 63.502C132.244 63.7167 132.641 63.824 133.08 63.824ZM141.679 68.22C141.156 68.22 140.634 68.136 140.111 67.968C139.598 67.8093 139.182 67.5993 138.865 67.338L139.397 66.218C139.584 66.358 139.803 66.4793 140.055 66.582C140.307 66.694 140.573 66.778 140.853 66.834C141.133 66.8993 141.408 66.932 141.679 66.932C142.192 66.932 142.622 66.848 142.967 66.68C143.312 66.512 143.574 66.2647 143.751 65.938C143.928 65.6113 144.017 65.2053 144.017 64.72V63.306L144.171 63.404C144.124 63.6933 143.97 63.9733 143.709 64.244C143.457 64.5053 143.14 64.72 142.757 64.888C142.374 65.056 141.982 65.14 141.581 65.14C140.881 65.14 140.256 64.9767 139.705 64.65C139.164 64.314 138.734 63.8613 138.417 63.292C138.1 62.7133 137.941 62.0553 137.941 61.318C137.941 60.5807 138.095 59.9273 138.403 59.358C138.72 58.7793 139.15 58.3267 139.691 58C140.242 57.664 140.858 57.496 141.539 57.496C141.819 57.496 142.09 57.5333 142.351 57.608C142.612 57.6733 142.855 57.7713 143.079 57.902C143.303 58.0233 143.504 58.1587 143.681 58.308C143.858 58.4573 144.003 58.616 144.115 58.784C144.227 58.952 144.297 59.1107 144.325 59.26L144.017 59.372V57.65H145.459V64.552C145.459 65.14 145.37 65.658 145.193 66.106C145.025 66.5633 144.778 66.946 144.451 67.254C144.124 67.5713 143.728 67.8093 143.261 67.968C142.794 68.136 142.267 68.22 141.679 68.22ZM141.735 63.81C142.192 63.81 142.598 63.7027 142.953 63.488C143.308 63.2733 143.583 62.9793 143.779 62.606C143.975 62.2327 144.073 61.8033 144.073 61.318C144.073 60.8327 143.97 60.4033 143.765 60.03C143.569 59.6473 143.294 59.3487 142.939 59.134C142.594 58.9193 142.192 58.812 141.735 58.812C141.287 58.812 140.886 58.924 140.531 59.148C140.186 59.3627 139.91 59.6613 139.705 60.044C139.509 60.4173 139.411 60.842 139.411 61.318C139.411 61.794 139.509 62.2233 139.705 62.606C139.91 62.9793 140.186 63.2733 140.531 63.488C140.886 63.7027 141.287 63.81 141.735 63.81ZM147.719 65V57.65H149.161V65H147.719ZM148.419 56.026C148.111 56.026 147.873 55.9467 147.705 55.788C147.537 55.6293 147.453 55.4053 147.453 55.116C147.453 54.8453 147.537 54.626 147.705 54.458C147.882 54.29 148.12 54.206 148.419 54.206C148.727 54.206 148.965 54.2853 149.133 54.444C149.301 54.6027 149.385 54.8267 149.385 55.116C149.385 55.3867 149.296 55.606 149.119 55.774C148.951 55.942 148.717 56.026 148.419 56.026ZM154.807 65.14C154.051 65.14 153.379 64.9813 152.791 64.664C152.212 64.3373 151.755 63.894 151.419 63.334C151.092 62.774 150.929 62.13 150.929 61.402C150.929 60.8233 151.022 60.296 151.209 59.82C151.396 59.344 151.652 58.9333 151.979 58.588C152.315 58.2333 152.712 57.9627 153.169 57.776C153.636 57.58 154.14 57.482 154.681 57.482C155.157 57.482 155.6 57.5753 156.011 57.762C156.422 57.9393 156.776 58.1867 157.075 58.504C157.383 58.8213 157.616 59.1993 157.775 59.638C157.943 60.0673 158.022 60.5387 158.013 61.052L157.999 61.668H151.993L151.671 60.52H156.753L156.543 60.758V60.422C156.515 60.114 156.412 59.8387 156.235 59.596C156.058 59.3533 155.834 59.162 155.563 59.022C155.292 58.882 154.998 58.812 154.681 58.812C154.177 58.812 153.752 58.91 153.407 59.106C153.062 59.2927 152.8 59.5727 152.623 59.946C152.446 60.31 152.357 60.7627 152.357 61.304C152.357 61.8173 152.464 62.2653 152.679 62.648C152.894 63.0213 153.197 63.3107 153.589 63.516C153.981 63.7213 154.434 63.824 154.947 63.824C155.311 63.824 155.647 63.7633 155.955 63.642C156.272 63.5207 156.613 63.3013 156.977 62.984L157.705 64.006C157.481 64.23 157.206 64.426 156.879 64.594C156.562 64.762 156.221 64.8973 155.857 65C155.502 65.0933 155.152 65.14 154.807 65.14ZM162.03 65.14C161.414 65.14 160.859 65.0327 160.364 64.818C159.87 64.6033 159.459 64.286 159.132 63.866L160.112 63.026C160.392 63.3527 160.696 63.5907 161.022 63.74C161.358 63.88 161.736 63.95 162.156 63.95C162.324 63.95 162.478 63.9313 162.618 63.894C162.768 63.8473 162.894 63.782 162.996 63.698C163.108 63.614 163.192 63.516 163.248 63.404C163.304 63.2827 163.332 63.152 163.332 63.012C163.332 62.7693 163.244 62.5733 163.066 62.424C162.973 62.3587 162.824 62.2887 162.618 62.214C162.422 62.13 162.166 62.046 161.848 61.962C161.307 61.822 160.864 61.6633 160.518 61.486C160.173 61.3087 159.907 61.108 159.72 60.884C159.58 60.7067 159.478 60.5153 159.412 60.31C159.347 60.0953 159.314 59.862 159.314 59.61C159.314 59.302 159.38 59.022 159.51 58.77C159.65 58.5087 159.837 58.2847 160.07 58.098C160.313 57.902 160.593 57.7527 160.91 57.65C161.237 57.5473 161.582 57.496 161.946 57.496C162.292 57.496 162.632 57.5427 162.968 57.636C163.314 57.7293 163.631 57.8647 163.92 58.042C164.21 58.2193 164.452 58.4293 164.648 58.672L163.822 59.582C163.645 59.4047 163.449 59.2507 163.234 59.12C163.029 58.98 162.819 58.8727 162.604 58.798C162.39 58.7233 162.194 58.686 162.016 58.686C161.82 58.686 161.643 58.7047 161.484 58.742C161.326 58.7793 161.19 58.8353 161.078 58.91C160.976 58.9847 160.896 59.078 160.84 59.19C160.784 59.302 160.756 59.428 160.756 59.568C160.766 59.6893 160.794 59.806 160.84 59.918C160.896 60.0207 160.971 60.1093 161.064 60.184C161.167 60.2587 161.321 60.338 161.526 60.422C161.732 60.506 161.993 60.5853 162.31 60.66C162.777 60.7813 163.16 60.9167 163.458 61.066C163.766 61.206 164.009 61.3693 164.186 61.556C164.373 61.7333 164.504 61.9387 164.578 62.172C164.653 62.4053 164.69 62.6667 164.69 62.956C164.69 63.376 164.569 63.754 164.326 64.09C164.093 64.4167 163.776 64.6733 163.374 64.86C162.973 65.0467 162.525 65.14 162.03 65.14ZM170.567 65V55.2H172.079V63.544H176.671V65H170.567ZM179.426 65V55.774H180.868V65H179.426ZM177.9 59.05V57.65H182.576V59.05H177.9ZM186.887 65.14C186.215 65.14 185.613 64.9767 185.081 64.65C184.558 64.314 184.143 63.8613 183.835 63.292C183.527 62.7133 183.373 62.0553 183.373 61.318C183.373 60.5807 183.522 59.9273 183.821 59.358C184.129 58.7793 184.544 58.3267 185.067 58C185.589 57.664 186.182 57.496 186.845 57.496C187.209 57.496 187.559 57.5567 187.895 57.678C188.24 57.79 188.548 57.9487 188.819 58.154C189.089 58.35 189.299 58.5693 189.449 58.812C189.607 59.0453 189.687 59.2833 189.687 59.526L189.267 59.554V54.64H190.709V65H189.267V63.25H189.547C189.547 63.474 189.472 63.698 189.323 63.922C189.173 64.1367 188.973 64.3373 188.721 64.524C188.478 64.7107 188.193 64.86 187.867 64.972C187.549 65.084 187.223 65.14 186.887 65.14ZM187.083 63.894C187.521 63.894 187.909 63.782 188.245 63.558C188.581 63.334 188.842 63.0307 189.029 62.648C189.225 62.256 189.323 61.8127 189.323 61.318C189.323 60.8233 189.225 60.3847 189.029 60.002C188.842 59.61 188.581 59.302 188.245 59.078C187.909 58.854 187.521 58.742 187.083 58.742C186.644 58.742 186.257 58.854 185.921 59.078C185.585 59.302 185.319 59.61 185.123 60.002C184.936 60.3847 184.843 60.8233 184.843 61.318C184.843 61.8127 184.936 62.256 185.123 62.648C185.319 63.0307 185.585 63.334 185.921 63.558C186.257 63.782 186.644 63.894 187.083 63.894ZM193.282 65.154C192.974 65.154 192.736 65.0653 192.568 64.888C192.4 64.7013 192.316 64.44 192.316 64.104C192.316 63.796 192.404 63.544 192.582 63.348C192.759 63.152 192.992 63.054 193.282 63.054C193.59 63.054 193.828 63.1473 193.996 63.334C194.164 63.5113 194.248 63.768 194.248 64.104C194.248 64.412 194.159 64.664 193.982 64.86C193.804 65.056 193.571 65.154 193.282 65.154Z" fill="#667085"/>
<path d="M213.667 47H236.333M236.333 47L227.833 38.5M236.333 47L227.833 55.5" stroke="black" stroke-width="2" stroke-linecap="round" stroke-linejoin="round"/>
<line x1="370" y1="37" x2="370" y2="57" stroke="#6666FF" stroke-width="2"/>
<path d="M382.112 53.16C381.333 53.16 380.619 53.0213 379.968 52.744C379.317 52.4667 378.752 52.072 378.272 51.56C377.792 51.0373 377.419 50.424 377.152 49.72C376.896 49.016 376.768 48.2427 376.768 47.4C376.768 46.6 376.907 45.8587 377.184 45.176C377.472 44.4827 377.867 43.8747 378.368 43.352C378.869 42.8293 379.451 42.424 380.112 42.136C380.773 41.848 381.488 41.704 382.256 41.704C382.8 41.704 383.328 41.7893 383.84 41.96C384.363 42.12 384.832 42.3493 385.248 42.648C385.675 42.936 386.021 43.2667 386.288 43.64L385.136 44.84C384.827 44.5307 384.512 44.2747 384.192 44.072C383.883 43.8587 383.563 43.6987 383.232 43.592C382.912 43.4853 382.587 43.432 382.256 43.432C381.733 43.432 381.243 43.5333 380.784 43.736C380.336 43.928 379.941 44.2 379.6 44.552C379.269 44.904 379.008 45.3253 378.816 45.816C378.624 46.296 378.528 46.824 378.528 47.4C378.528 48.008 378.619 48.5627 378.8 49.064C378.992 49.5547 379.259 49.976 379.6 50.328C379.941 50.68 380.347 50.952 380.816 51.144C381.296 51.3253 381.824 51.416 382.4 51.416C382.752 51.416 383.099 51.368 383.44 51.272C383.781 51.176 384.101 51.0373 384.4 50.856C384.699 50.6747 384.971 50.4613 385.216 50.216L386.08 51.624C385.835 51.912 385.499 52.1733 385.072 52.408C384.656 52.6427 384.187 52.8293 383.664 52.968C383.152 53.096 382.635 53.16 382.112 53.16ZM388.011 53V41.16H389.659V46.328L389.371 46.52C389.478 46.1467 389.686 45.8053 389.995 45.496C390.305 45.176 390.673 44.92 391.099 44.728C391.526 44.5253 391.963 44.424 392.411 44.424C393.051 44.424 393.585 44.552 394.011 44.808C394.438 45.0533 394.758 45.432 394.971 45.944C395.185 46.456 395.291 47.1013 395.291 47.88V53H393.643V47.992C393.643 47.512 393.579 47.1173 393.451 46.808C393.323 46.488 393.126 46.2587 392.859 46.12C392.593 45.9707 392.262 45.9067 391.867 45.928C391.547 45.928 391.254 45.9813 390.987 46.088C390.721 46.184 390.486 46.3227 390.283 46.504C390.091 46.6853 389.937 46.8987 389.819 47.144C389.713 47.3787 389.659 47.6347 389.659 47.912V53H388.843C388.705 53 388.566 53 388.427 53C388.289 53 388.15 53 388.011 53ZM401.303 53.16C400.482 53.16 399.746 52.9733 399.095 52.6C398.455 52.216 397.948 51.6987 397.575 51.048C397.202 50.3867 397.015 49.6347 397.015 48.792C397.015 47.9493 397.202 47.2027 397.575 46.552C397.948 45.8907 398.455 45.3733 399.095 45C399.746 44.616 400.482 44.424 401.303 44.424C402.114 44.424 402.839 44.616 403.479 45C404.13 45.3733 404.642 45.8907 405.015 46.552C405.388 47.2027 405.575 47.9493 405.575 48.792C405.575 49.6347 405.388 50.3867 405.015 51.048C404.642 51.6987 404.13 52.216 403.479 52.6C402.839 52.9733 402.114 53.16 401.303 53.16ZM401.303 51.656C401.804 51.656 402.252 51.5333 402.647 51.288C403.042 51.032 403.351 50.6907 403.575 50.264C403.799 49.8267 403.906 49.336 403.895 48.792C403.906 48.2373 403.799 47.7467 403.575 47.32C403.351 46.8827 403.042 46.5413 402.647 46.296C402.252 46.0507 401.804 45.928 401.303 45.928C400.802 45.928 400.348 46.056 399.943 46.312C399.548 46.5573 399.239 46.8987 399.015 47.336C398.791 47.7627 398.684 48.248 398.695 48.792C398.684 49.336 398.791 49.8267 399.015 50.264C399.239 50.6907 399.548 51.032 399.943 51.288C400.348 51.5333 400.802 51.656 401.303 51.656ZM411.147 53.16C410.325 53.16 409.589 52.9733 408.939 52.6C408.299 52.216 407.792 51.6987 407.419 51.048C407.045 50.3867 406.859 49.6347 406.859 48.792C406.859 47.9493 407.045 47.2027 407.419 46.552C407.792 45.8907 408.299 45.3733 408.939 45C409.589 44.616 410.325 44.424 411.147 44.424C411.957 44.424 412.683 44.616 413.323 45C413.973 45.3733 414.485 45.8907 414.859 46.552C415.232 47.2027 415.419 47.9493 415.419 48.792C415.419 49.6347 415.232 50.3867 414.859 51.048C414.485 51.6987 413.973 52.216 413.323 52.6C412.683 52.9733 411.957 53.16 411.147 53.16ZM411.147 51.656C411.648 51.656 412.096 51.5333 412.491 51.288C412.885 51.032 413.195 50.6907 413.419 50.264C413.643 49.8267 413.749 49.336 413.739 48.792C413.749 48.2373 413.643 47.7467 413.419 47.32C413.195 46.8827 412.885 46.5413 412.491 46.296C412.096 46.0507 411.648 45.928 411.147 45.928C410.645 45.928 410.192 46.056 409.787 46.312C409.392 46.5573 409.083 46.8987 408.859 47.336C408.635 47.7627 408.528 48.248 408.539 48.792C408.528 49.336 408.635 49.8267 408.859 50.264C409.083 50.6907 409.392 51.032 409.787 51.288C410.192 51.5333 410.645 51.656 411.147 51.656ZM420.015 53.16C419.311 53.16 418.676 53.0373 418.111 52.792C417.545 52.5467 417.076 52.184 416.703 51.704L417.823 50.744C418.143 51.1173 418.489 51.3893 418.863 51.56C419.247 51.72 419.679 51.8 420.159 51.8C420.351 51.8 420.527 51.7787 420.687 51.736C420.857 51.6827 421.001 51.608 421.119 51.512C421.247 51.416 421.343 51.304 421.407 51.176C421.471 51.0373 421.503 50.888 421.503 50.728C421.503 50.4507 421.401 50.2267 421.199 50.056C421.092 49.9813 420.921 49.9013 420.687 49.816C420.463 49.72 420.169 49.624 419.807 49.528C419.188 49.368 418.681 49.1867 418.287 48.984C417.892 48.7813 417.588 48.552 417.375 48.296C417.215 48.0933 417.097 47.8747 417.023 47.64C416.948 47.3947 416.911 47.128 416.911 46.84C416.911 46.488 416.985 46.168 417.135 45.88C417.295 45.5813 417.508 45.3253 417.775 45.112C418.052 44.888 418.372 44.7173 418.735 44.6C419.108 44.4827 419.503 44.424 419.919 44.424C420.313 44.424 420.703 44.4773 421.087 44.584C421.481 44.6907 421.844 44.8453 422.175 45.048C422.505 45.2507 422.783 45.4907 423.007 45.768L422.063 46.808C421.86 46.6053 421.636 46.4293 421.391 46.28C421.156 46.12 420.916 45.9973 420.671 45.912C420.425 45.8267 420.201 45.784 419.999 45.784C419.775 45.784 419.572 45.8053 419.391 45.848C419.209 45.8907 419.055 45.9547 418.927 46.04C418.809 46.1253 418.719 46.232 418.655 46.36C418.591 46.488 418.559 46.632 418.559 46.792C418.569 46.9307 418.601 47.064 418.655 47.192C418.719 47.3093 418.804 47.4107 418.911 47.496C419.028 47.5813 419.204 47.672 419.439 47.768C419.673 47.864 419.972 47.9547 420.335 48.04C420.868 48.1787 421.305 48.3333 421.647 48.504C421.999 48.664 422.276 48.8507 422.479 49.064C422.692 49.2667 422.841 49.5013 422.927 49.768C423.012 50.0347 423.055 50.3333 423.055 50.664C423.055 51.144 422.916 51.576 422.639 51.96C422.372 52.3333 422.009 52.6267 421.551 52.84C421.092 53.0533 420.58 53.16 420.015 53.16ZM428.791 53.16C427.927 53.16 427.159 52.9787 426.487 52.616C425.825 52.2427 425.303 51.736 424.919 51.096C424.545 50.456 424.359 49.72 424.359 48.888C424.359 48.2267 424.465 47.624 424.679 47.08C424.892 46.536 425.185 46.0667 425.559 45.672C425.943 45.2667 426.396 44.9573 426.919 44.744C427.452 44.52 428.028 44.408 428.647 44.408C429.191 44.408 429.697 44.5147 430.167 44.728C430.636 44.9307 431.041 45.2133 431.383 45.576C431.735 45.9387 432.001 46.3707 432.183 46.872C432.375 47.3627 432.465 47.9013 432.455 48.488L432.439 49.192H425.575L425.207 47.88H431.015L430.775 48.152V47.768C430.743 47.416 430.625 47.1013 430.423 46.824C430.22 46.5467 429.964 46.328 429.655 46.168C429.345 46.008 429.009 45.928 428.647 45.928C428.071 45.928 427.585 46.04 427.191 46.264C426.796 46.4773 426.497 46.7973 426.295 47.224C426.092 47.64 425.991 48.1573 425.991 48.776C425.991 49.3627 426.113 49.8747 426.359 50.312C426.604 50.7387 426.951 51.0693 427.399 51.304C427.847 51.5387 428.364 51.656 428.951 51.656C429.367 51.656 429.751 51.5867 430.103 51.448C430.465 51.3093 430.855 51.0587 431.271 50.696L432.103 51.864C431.847 52.12 431.532 52.344 431.159 52.536C430.796 52.728 430.407 52.8827 429.991 53C429.585 53.1067 429.185 53.16 428.791 53.16ZM446.783 53.16C446.004 53.16 445.305 52.968 444.687 52.584C444.079 52.2 443.593 51.6773 443.231 51.016C442.879 50.3547 442.703 49.6133 442.703 48.792C442.703 47.9707 442.879 47.2293 443.231 46.568C443.593 45.9067 444.079 45.384 444.687 45C445.305 44.616 446.004 44.424 446.783 44.424C447.529 44.424 448.207 44.5787 448.815 44.888C449.433 45.1867 449.903 45.5973 450.223 46.12L449.311 47.24C449.14 46.9947 448.921 46.7707 448.655 46.568C448.388 46.3653 448.105 46.2053 447.807 46.088C447.508 45.9707 447.22 45.912 446.943 45.912C446.431 45.912 445.972 46.04 445.567 46.296C445.172 46.5413 444.857 46.8827 444.623 47.32C444.388 47.7573 444.271 48.248 444.271 48.792C444.271 49.336 444.393 49.8267 444.639 50.264C444.884 50.6907 445.209 51.032 445.615 51.288C446.02 51.544 446.468 51.672 446.959 51.672C447.247 51.672 447.524 51.624 447.791 51.528C448.068 51.432 448.335 51.288 448.591 51.096C448.847 50.904 449.087 50.6693 449.311 50.392L450.223 51.512C449.881 51.992 449.391 52.3867 448.751 52.696C448.121 53.0053 447.465 53.16 446.783 53.16ZM455.553 53.16C454.732 53.16 453.996 52.9733 453.345 52.6C452.705 52.216 452.198 51.6987 451.825 51.048C451.452 50.3867 451.265 49.6347 451.265 48.792C451.265 47.9493 451.452 47.2027 451.825 46.552C452.198 45.8907 452.705 45.3733 453.345 45C453.996 44.616 454.732 44.424 455.553 44.424C456.364 44.424 457.089 44.616 457.729 45C458.38 45.3733 458.892 45.8907 459.265 46.552C459.638 47.2027 459.825 47.9493 459.825 48.792C459.825 49.6347 459.638 50.3867 459.265 51.048C458.892 51.6987 458.38 52.216 457.729 52.6C457.089 52.9733 456.364 53.16 455.553 53.16ZM455.553 51.656C456.054 51.656 456.502 51.5333 456.897 51.288C457.292 51.032 457.601 50.6907 457.825 50.264C458.049 49.8267 458.156 49.336 458.145 48.792C458.156 48.2373 458.049 47.7467 457.825 47.32C457.601 46.8827 457.292 46.5413 456.897 46.296C456.502 46.0507 456.054 45.928 455.553 45.928C455.052 45.928 454.598 46.056 454.193 46.312C453.798 46.5573 453.489 46.8987 453.265 47.336C453.041 47.7627 452.934 48.248 452.945 48.792C452.934 49.336 453.041 49.8267 453.265 50.264C453.489 50.6907 453.798 51.032 454.193 51.288C454.598 51.5333 455.052 51.656 455.553 51.656ZM461.653 53V41.16H463.301V53H461.653ZM468.502 53.16C467.905 53.16 467.382 53.0213 466.934 52.744C466.497 52.4667 466.156 52.0773 465.91 51.576C465.676 51.0747 465.558 50.4773 465.558 49.784V44.6H467.206V49.336C467.206 49.8267 467.281 50.2533 467.43 50.616C467.59 50.968 467.814 51.24 468.102 51.432C468.401 51.624 468.758 51.72 469.174 51.72C469.484 51.72 469.766 51.672 470.022 51.576C470.278 51.4693 470.497 51.3253 470.678 51.144C470.87 50.9627 471.02 50.744 471.126 50.488C471.233 50.232 471.286 49.9547 471.286 49.656V44.6H472.934V53H471.286V51.24L471.574 51.048C471.446 51.4427 471.228 51.8 470.918 52.12C470.62 52.44 470.262 52.696 469.846 52.888C469.43 53.0693 468.982 53.16 468.502 53.16ZM475.214 53V44.6H476.878V46.392L476.574 46.584C476.659 46.3067 476.792 46.04 476.974 45.784C477.166 45.528 477.395 45.304 477.662 45.112C477.939 44.9093 478.232 44.7493 478.542 44.632C478.862 44.5147 479.187 44.456 479.518 44.456C479.998 44.456 480.419 44.536 480.782 44.696C481.144 44.856 481.443 45.096 481.678 45.416C481.912 45.736 482.083 46.136 482.19 46.616L481.934 46.552L482.046 46.28C482.163 46.0347 482.323 45.8053 482.526 45.592C482.739 45.368 482.979 45.1707 483.246 45C483.512 44.8293 483.795 44.696 484.094 44.6C484.392 44.504 484.686 44.456 484.974 44.456C485.603 44.456 486.12 44.584 486.526 44.84C486.942 45.096 487.251 45.4853 487.454 46.008C487.667 46.5307 487.774 47.1813 487.774 47.96V53H486.11V48.056C486.11 47.576 486.046 47.1867 485.918 46.888C485.8 46.5787 485.619 46.3493 485.374 46.2C485.128 46.0507 484.814 45.976 484.43 45.976C484.131 45.976 483.848 46.0293 483.582 46.136C483.326 46.232 483.102 46.3707 482.91 46.552C482.718 46.7333 482.568 46.9467 482.462 47.192C482.355 47.4267 482.302 47.688 482.302 47.976V53H480.638V48.024C480.638 47.5867 480.574 47.2187 480.446 46.92C480.318 46.6107 480.131 46.376 479.886 46.216C479.64 46.056 479.342 45.976 478.99 45.976C478.691 45.976 478.414 46.0293 478.158 46.136C477.902 46.232 477.678 46.3707 477.486 46.552C477.294 46.7227 477.144 46.9307 477.038 47.176C476.931 47.4107 476.878 47.6667 476.878 47.944V53H475.214ZM489.98 53V44.6H491.628V46.328L491.34 46.52C491.447 46.1467 491.655 45.8053 491.964 45.496C492.273 45.176 492.641 44.92 493.068 44.728C493.495 44.5253 493.932 44.424 494.38 44.424C495.02 44.424 495.553 44.552 495.98 44.808C496.407 45.0533 496.727 45.432 496.94 45.944C497.153 46.456 497.26 47.1013 497.26 47.88V53H495.612V47.992C495.612 47.512 495.548 47.1173 495.42 46.808C495.292 46.488 495.095 46.2587 494.828 46.12C494.561 45.9707 494.231 45.9067 493.836 45.928C493.516 45.928 493.223 45.9813 492.956 46.088C492.689 46.184 492.455 46.3227 492.252 46.504C492.06 46.6853 491.905 46.8987 491.788 47.144C491.681 47.3787 491.628 47.6347 491.628 47.912V53H490.812C490.673 53 490.535 53 490.396 53C490.257 53 490.119 53 489.98 53Z" fill="#98A2B3"/>
<path d="M601 44L607 50L613 44" stroke="#98A2B3" stroke-width="2" stroke-linecap="round" stroke-linejoin="round"/>
<rect x="350" y="21" width="288" height="52" rx="11" stroke="#6666FF" stroke-width="2"/>
<rect x="1" y="1" width="657" height="92" rx="11" stroke="url(#paint1_linear_1_8536)" stroke-width="2"/>
<defs>
<linearGradient id="paint0_linear_1_8536" x1="329.933" y1="-47" x2="265.715" y2="145.396" gradientUnits="userSpaceOnUse">
<stop stop-color="white"/>
<stop offset="1" stop-color="#D2D2D2"/>
</linearGradient>
<linearGradient id="paint1_linear_1_8536" x1="-70.7246" y1="-54.5633" x2="658.107" y2="98.2581" gradientUnits="userSpaceOnUse">
<stop stop-color="white"/>
<stop offset="1" stop-color="white" stop-opacity="0"/>
</linearGradient>
</defs>
</svg>
