<svg width="659" height="94" viewBox="0 0 659 94" fill="none" xmlns="http://www.w3.org/2000/svg">
<rect x="1" y="1" width="657" height="92" rx="19" fill="url(#paint0_linear_1_8548)"/>
<path d="M34.76 41L31.272 29.8H33.448L35.432 36.408C35.496 36.6107 35.5547 36.8347 35.608 37.08C35.6613 37.3253 35.7093 37.5707 35.752 37.816C35.7947 38.0507 35.832 38.2693 35.864 38.472C35.896 38.6747 35.928 38.8453 35.96 38.984L35.528 38.968C35.656 38.4667 35.7573 38.0613 35.832 37.752C35.9067 37.4427 35.9707 37.1867 36.024 36.984C36.088 36.7707 36.152 36.5733 36.216 36.392L38.104 31.56H39.88L41.72 36.392C41.8267 36.6907 41.9227 36.9787 42.008 37.256C42.0933 37.5227 42.1627 37.7893 42.216 38.056C42.28 38.312 42.3387 38.5787 42.392 38.856L42.008 38.936C42.0507 38.68 42.0827 38.472 42.104 38.312C42.1253 38.152 42.1467 38.008 42.168 37.88C42.1893 37.752 42.2107 37.6293 42.232 37.512C42.2533 37.384 42.2853 37.2347 42.328 37.064C42.3813 36.8827 42.4453 36.6533 42.52 36.376L44.488 29.8H46.648L43.144 41H41.64L38.792 34.184L38.984 34.248L36.28 41H34.76ZM51.6196 41.16C50.7343 41.16 49.9503 40.9733 49.2676 40.6C48.5956 40.2267 48.0676 39.72 47.6836 39.08C47.3103 38.4293 47.1236 37.688 47.1236 36.856C47.1236 36.1947 47.2303 35.592 47.4436 35.048C47.657 34.504 47.9503 34.0347 48.3236 33.64C48.7076 33.2347 49.161 32.9253 49.6836 32.712C50.217 32.488 50.7983 32.376 51.4276 32.376C51.9823 32.376 52.4996 32.4827 52.9796 32.696C53.4596 32.9093 53.8756 33.2027 54.2276 33.576C54.5796 33.9387 54.8463 34.376 55.0276 34.888C55.2196 35.3893 55.3103 35.9387 55.2996 36.536L55.2836 37.224H48.4516L48.0836 35.88H53.6356L53.3796 36.152V35.8C53.3476 35.4693 53.241 35.1813 53.0596 34.936C52.8783 34.68 52.6436 34.4827 52.3556 34.344C52.0783 34.1947 51.769 34.12 51.4276 34.12C50.905 34.12 50.4623 34.2213 50.0996 34.424C49.7476 34.6267 49.481 34.92 49.2996 35.304C49.1183 35.6773 49.0276 36.1467 49.0276 36.712C49.0276 37.256 49.1396 37.7307 49.3636 38.136C49.5983 38.5413 49.9236 38.856 50.3396 39.08C50.7663 39.2933 51.2623 39.4 51.8276 39.4C52.2223 39.4 52.585 39.336 52.9156 39.208C53.2463 39.08 53.6036 38.8507 53.9876 38.52L54.9636 39.88C54.6756 40.1467 54.345 40.376 53.9716 40.568C53.609 40.7493 53.225 40.8933 52.8196 41C52.4143 41.1067 52.0143 41.16 51.6196 41.16ZM61.6986 41.16C61.3253 41.16 60.9573 41.1067 60.5946 41C60.2426 40.8827 59.9226 40.728 59.6346 40.536C59.3466 40.344 59.1066 40.1307 58.9146 39.896C58.7226 39.6507 58.5946 39.4053 58.5306 39.16L58.9946 38.952L58.9466 40.968H57.0426V29.16H59.0106V34.52L58.6586 34.36C58.712 34.104 58.8293 33.864 59.0106 33.64C59.2026 33.4053 59.4373 33.1973 59.7146 33.016C59.992 32.824 60.296 32.6747 60.6266 32.568C60.9573 32.4507 61.2933 32.392 61.6346 32.392C62.392 32.392 63.0586 32.5787 63.6346 32.952C64.2213 33.3253 64.68 33.8427 65.0106 34.504C65.352 35.1653 65.5226 35.9173 65.5226 36.76C65.5226 37.6133 65.3573 38.3707 65.0266 39.032C64.696 39.6933 64.2373 40.216 63.6506 40.6C63.0746 40.9733 62.424 41.16 61.6986 41.16ZM61.2826 39.432C61.7306 39.432 62.1306 39.32 62.4826 39.096C62.8346 38.8613 63.112 38.5467 63.3146 38.152C63.5173 37.7467 63.6186 37.2827 63.6186 36.76C63.6186 36.248 63.5173 35.7947 63.3146 35.4C63.1226 35.0053 62.8506 34.696 62.4986 34.472C62.1466 34.248 61.7413 34.136 61.2826 34.136C60.824 34.136 60.4186 34.248 60.0666 34.472C59.7146 34.696 59.4373 35.0053 59.2346 35.4C59.032 35.7947 58.9306 36.248 58.9306 36.76C58.9306 37.2827 59.032 37.7467 59.2346 38.152C59.4373 38.5467 59.7146 38.8613 60.0666 39.096C60.4186 39.32 60.824 39.432 61.2826 39.432ZM70.093 41.16C69.3463 41.16 68.6743 41.0373 68.077 40.792C67.4903 40.536 67.0103 40.1733 66.637 39.704L67.917 38.6C68.237 38.9627 68.5943 39.224 68.989 39.384C69.3837 39.544 69.7997 39.624 70.237 39.624C70.4183 39.624 70.5783 39.6027 70.717 39.56C70.8663 39.5173 70.9943 39.4533 71.101 39.368C71.2077 39.2827 71.2877 39.1867 71.341 39.08C71.405 38.9627 71.437 38.8347 71.437 38.696C71.437 38.44 71.341 38.2373 71.149 38.088C71.0423 38.0133 70.8717 37.9333 70.637 37.848C70.413 37.7627 70.1197 37.6773 69.757 37.592C69.181 37.4427 68.701 37.272 68.317 37.08C67.933 36.8773 67.6343 36.6533 67.421 36.408C67.2397 36.2053 67.101 35.976 67.005 35.72C66.9197 35.464 66.877 35.1867 66.877 34.888C66.877 34.5147 66.957 34.1787 67.117 33.88C67.2877 33.5707 67.517 33.304 67.805 33.08C68.093 32.856 68.429 32.6853 68.813 32.568C69.197 32.4507 69.597 32.392 70.013 32.392C70.4397 32.392 70.8503 32.4453 71.245 32.552C71.6503 32.6587 72.0237 32.8133 72.365 33.016C72.717 33.208 73.0157 33.4427 73.261 33.72L72.173 34.92C71.9703 34.728 71.7463 34.5573 71.501 34.408C71.2663 34.2587 71.0263 34.1413 70.781 34.056C70.5357 33.96 70.3063 33.912 70.093 33.912C69.8903 33.912 69.709 33.9333 69.549 33.976C69.389 34.008 69.2557 34.0613 69.149 34.136C69.0423 34.2107 68.957 34.3067 68.893 34.424C68.8397 34.5307 68.813 34.6587 68.813 34.808C68.8237 34.936 68.8557 35.0587 68.909 35.176C68.973 35.2827 69.0583 35.3733 69.165 35.448C69.2823 35.5227 69.4583 35.608 69.693 35.704C69.9277 35.8 70.2317 35.8907 70.605 35.976C71.1277 36.1147 71.565 36.2693 71.917 36.44C72.269 36.6107 72.5463 36.808 72.749 37.032C72.9517 37.224 73.0957 37.448 73.181 37.704C73.2663 37.96 73.309 38.2427 73.309 38.552C73.309 39.0533 73.165 39.5013 72.877 39.896C72.5997 40.2907 72.2157 40.6 71.725 40.824C71.245 41.048 70.701 41.16 70.093 41.16ZM75.2666 41V32.568H77.2346V41H75.2666ZM76.2266 30.776C75.832 30.776 75.5226 30.68 75.2986 30.488C75.0853 30.2853 74.9786 30.0027 74.9786 29.64C74.9786 29.2987 75.0906 29.0213 75.3146 28.808C75.5386 28.5947 75.8426 28.488 76.2266 28.488C76.632 28.488 76.9413 28.5893 77.1546 28.792C77.3786 28.984 77.4906 29.2667 77.4906 29.64C77.4906 29.9707 77.3786 30.2427 77.1546 30.456C76.9306 30.6693 76.6213 30.776 76.2266 30.776ZM80.6421 41V30.424H82.6101V41H80.6421ZM78.9781 34.392V32.568H84.4501V34.392H78.9781ZM89.8228 41.16C88.9374 41.16 88.1534 40.9733 87.4708 40.6C86.7988 40.2267 86.2708 39.72 85.8868 39.08C85.5134 38.4293 85.3268 37.688 85.3268 36.856C85.3268 36.1947 85.4334 35.592 85.6468 35.048C85.8601 34.504 86.1534 34.0347 86.5268 33.64C86.9108 33.2347 87.3641 32.9253 87.8868 32.712C88.4201 32.488 89.0014 32.376 89.6308 32.376C90.1854 32.376 90.7028 32.4827 91.1828 32.696C91.6628 32.9093 92.0788 33.2027 92.4308 33.576C92.7828 33.9387 93.0494 34.376 93.2308 34.888C93.4228 35.3893 93.5134 35.9387 93.5028 36.536L93.4868 37.224H86.6548L86.2868 35.88H91.8388L91.5828 36.152V35.8C91.5508 35.4693 91.4441 35.1813 91.2628 34.936C91.0814 34.68 90.8468 34.4827 90.5588 34.344C90.2814 34.1947 89.9721 34.12 89.6308 34.12C89.1081 34.12 88.6654 34.2213 88.3028 34.424C87.9508 34.6267 87.6841 34.92 87.5028 35.304C87.3214 35.6773 87.2308 36.1467 87.2308 36.712C87.2308 37.256 87.3428 37.7307 87.5668 38.136C87.8014 38.5413 88.1268 38.856 88.5428 39.08C88.9694 39.2933 89.4654 39.4 90.0308 39.4C90.4254 39.4 90.7881 39.336 91.1188 39.208C91.4494 39.08 91.8068 38.8507 92.1908 38.52L93.1667 39.88C92.8788 40.1467 92.5481 40.376 92.1748 40.568C91.8121 40.7493 91.4281 40.8933 91.0228 41C90.6174 41.1067 90.2174 41.16 89.8228 41.16Z" fill="white"/>
<path d="M32.008 65V54.64H33.45V59.162L33.198 59.33C33.2913 59.0033 33.4733 58.7047 33.744 58.434C34.0147 58.154 34.3367 57.93 34.71 57.762C35.0833 57.5847 35.466 57.496 35.858 57.496C36.418 57.496 36.8847 57.608 37.258 57.832C37.6313 58.0467 37.9113 58.378 38.098 58.826C38.2847 59.274 38.378 59.8387 38.378 60.52V65H36.936V60.618C36.936 60.198 36.88 59.8527 36.768 59.582C36.656 59.302 36.4833 59.1013 36.25 58.98C36.0167 58.8493 35.7273 58.7933 35.382 58.812C35.102 58.812 34.8453 58.8587 34.612 58.952C34.3787 59.036 34.1733 59.1573 33.996 59.316C33.828 59.4747 33.6927 59.6613 33.59 59.876C33.4967 60.0813 33.45 60.3053 33.45 60.548V65H32.736C32.6147 65 32.4933 65 32.372 65C32.2507 65 32.1293 65 32.008 65ZM41.2442 65V55.774H42.6862V65H41.2442ZM39.7182 59.05V57.65H44.3942V59.05H39.7182ZM46.6172 65V55.774H48.0592V65H46.6172ZM45.0912 59.05V57.65H49.7672V59.05H45.0912ZM51.0803 68.08V57.65H52.5363V59.33L52.3123 59.204C52.3683 58.924 52.5269 58.658 52.7883 58.406C53.0496 58.1447 53.3669 57.9347 53.7403 57.776C54.1229 57.608 54.5149 57.524 54.9163 57.524C55.5789 57.524 56.1669 57.6873 56.6803 58.014C57.1936 58.3407 57.5996 58.7887 57.8983 59.358C58.1969 59.9273 58.3463 60.5807 58.3463 61.318C58.3463 62.046 58.1969 62.6993 57.8983 63.278C57.6089 63.8473 57.2076 64.3 56.6943 64.636C56.1809 64.9627 55.6023 65.126 54.9583 65.126C54.5289 65.126 54.1136 65.042 53.7123 64.874C53.3109 64.6967 52.9703 64.4727 52.6903 64.202C52.4103 63.9313 52.2376 63.6513 52.1723 63.362L52.5363 63.166V68.08H51.0803ZM54.7203 63.796C55.1496 63.796 55.5323 63.6887 55.8683 63.474C56.2043 63.2593 56.4703 62.9653 56.6663 62.592C56.8623 62.2187 56.9603 61.794 56.9603 61.318C56.9603 60.842 56.8623 60.422 56.6663 60.058C56.4796 59.6847 56.2183 59.3907 55.8823 59.176C55.5463 58.9613 55.1589 58.854 54.7203 58.854C54.2816 58.854 53.8943 58.9613 53.5583 59.176C53.2223 59.3813 52.9563 59.6707 52.7603 60.044C52.5643 60.4173 52.4663 60.842 52.4663 61.318C52.4663 61.794 52.5643 62.2187 52.7603 62.592C52.9563 62.9653 53.2223 63.2593 53.5583 63.474C53.8943 63.6887 54.2816 63.796 54.7203 63.796ZM62.3623 65.14C61.7463 65.14 61.191 65.0327 60.6963 64.818C60.2016 64.6033 59.791 64.286 59.4643 63.866L60.4443 63.026C60.7243 63.3527 61.0276 63.5907 61.3543 63.74C61.6903 63.88 62.0683 63.95 62.4883 63.95C62.6563 63.95 62.8103 63.9313 62.9503 63.894C63.0996 63.8473 63.2256 63.782 63.3283 63.698C63.4403 63.614 63.5243 63.516 63.5803 63.404C63.6363 63.2827 63.6643 63.152 63.6643 63.012C63.6643 62.7693 63.5756 62.5733 63.3983 62.424C63.305 62.3587 63.1556 62.2887 62.9503 62.214C62.7543 62.13 62.4976 62.046 62.1803 61.962C61.639 61.822 61.1956 61.6633 60.8503 61.486C60.505 61.3087 60.239 61.108 60.0523 60.884C59.9123 60.7067 59.8096 60.5153 59.7443 60.31C59.679 60.0953 59.6463 59.862 59.6463 59.61C59.6463 59.302 59.7116 59.022 59.8423 58.77C59.9823 58.5087 60.169 58.2847 60.4023 58.098C60.645 57.902 60.925 57.7527 61.2423 57.65C61.569 57.5473 61.9143 57.496 62.2783 57.496C62.6236 57.496 62.9643 57.5427 63.3003 57.636C63.6456 57.7293 63.963 57.8647 64.2523 58.042C64.5416 58.2193 64.7843 58.4293 64.9803 58.672L64.1543 59.582C63.977 59.4047 63.781 59.2507 63.5663 59.12C63.361 58.98 63.151 58.8727 62.9363 58.798C62.7216 58.7233 62.5256 58.686 62.3483 58.686C62.1523 58.686 61.975 58.7047 61.8163 58.742C61.6576 58.7793 61.5223 58.8353 61.4103 58.91C61.3076 58.9847 61.2283 59.078 61.1723 59.19C61.1163 59.302 61.0883 59.428 61.0883 59.568C61.0976 59.6893 61.1256 59.806 61.1723 59.918C61.2283 60.0207 61.303 60.1093 61.3963 60.184C61.499 60.2587 61.653 60.338 61.8583 60.422C62.0636 60.506 62.325 60.5853 62.6423 60.66C63.109 60.7813 63.4916 60.9167 63.7903 61.066C64.0983 61.206 64.341 61.3693 64.5183 61.556C64.705 61.7333 64.8356 61.9387 64.9103 62.172C64.985 62.4053 65.0223 62.6667 65.0223 62.956C65.0223 63.376 64.901 63.754 64.6583 64.09C64.425 64.4167 64.1076 64.6733 63.7063 64.86C63.305 65.0467 62.857 65.14 62.3623 65.14ZM67.1995 65.14C66.8915 65.14 66.6535 65.0513 66.4855 64.874C66.3175 64.6873 66.2335 64.426 66.2335 64.09C66.2335 63.782 66.3222 63.53 66.4995 63.334C66.6768 63.138 66.9102 63.04 67.1995 63.04C67.5075 63.04 67.7455 63.1333 67.9135 63.32C68.0815 63.4973 68.1655 63.754 68.1655 64.09C68.1655 64.398 68.0768 64.65 67.8995 64.846C67.7222 65.042 67.4888 65.14 67.1995 65.14ZM67.1995 59.61C66.8915 59.61 66.6535 59.5213 66.4855 59.344C66.3175 59.1573 66.2335 58.896 66.2335 58.56C66.2335 58.252 66.3222 58 66.4995 57.804C66.6768 57.608 66.9102 57.51 67.1995 57.51C67.5075 57.51 67.7455 57.6033 67.9135 57.79C68.0815 57.9673 68.1655 58.224 68.1655 58.56C68.1655 58.868 68.0768 59.12 67.8995 59.316C67.7222 59.512 67.4888 59.61 67.1995 59.61ZM69.0411 66.848L74.8091 55.2H76.1951L70.4411 66.848H69.0411ZM75.5489 66.848L81.3169 55.2H82.7029L76.9489 66.848H75.5489ZM86.124 65.14C85.508 65.14 84.9527 65.0327 84.458 64.818C83.9633 64.6033 83.5527 64.286 83.226 63.866L84.206 63.026C84.486 63.3527 84.7893 63.5907 85.116 63.74C85.452 63.88 85.83 63.95 86.25 63.95C86.418 63.95 86.572 63.9313 86.712 63.894C86.8613 63.8473 86.9873 63.782 87.09 63.698C87.202 63.614 87.286 63.516 87.342 63.404C87.398 63.2827 87.426 63.152 87.426 63.012C87.426 62.7693 87.3373 62.5733 87.16 62.424C87.0667 62.3587 86.9173 62.2887 86.712 62.214C86.516 62.13 86.2593 62.046 85.942 61.962C85.4007 61.822 84.9573 61.6633 84.612 61.486C84.2667 61.3087 84.0007 61.108 83.814 60.884C83.674 60.7067 83.5713 60.5153 83.506 60.31C83.4407 60.0953 83.408 59.862 83.408 59.61C83.408 59.302 83.4733 59.022 83.604 58.77C83.744 58.5087 83.9307 58.2847 84.164 58.098C84.4067 57.902 84.6867 57.7527 85.004 57.65C85.3307 57.5473 85.676 57.496 86.04 57.496C86.3853 57.496 86.726 57.5427 87.062 57.636C87.4073 57.7293 87.7247 57.8647 88.014 58.042C88.3033 58.2193 88.546 58.4293 88.742 58.672L87.916 59.582C87.7387 59.4047 87.5427 59.2507 87.328 59.12C87.1227 58.98 86.9127 58.8727 86.698 58.798C86.4833 58.7233 86.2873 58.686 86.11 58.686C85.914 58.686 85.7367 58.7047 85.578 58.742C85.4193 58.7793 85.284 58.8353 85.172 58.91C85.0693 58.9847 84.99 59.078 84.934 59.19C84.878 59.302 84.85 59.428 84.85 59.568C84.8593 59.6893 84.8873 59.806 84.934 59.918C84.99 60.0207 85.0647 60.1093 85.158 60.184C85.2607 60.2587 85.4147 60.338 85.62 60.422C85.8253 60.506 86.0867 60.5853 86.404 60.66C86.8707 60.7813 87.2533 60.9167 87.552 61.066C87.86 61.206 88.1027 61.3693 88.28 61.556C88.4667 61.7333 88.5973 61.9387 88.672 62.172C88.7467 62.4053 88.784 62.6667 88.784 62.956C88.784 63.376 88.6627 63.754 88.42 64.09C88.1867 64.4167 87.8693 64.6733 87.468 64.86C87.0667 65.0467 86.6187 65.14 86.124 65.14ZM90.6112 65V57.65H92.0532V65H90.6112ZM91.3112 56.026C91.0032 56.026 90.7652 55.9467 90.5972 55.788C90.4292 55.6293 90.3452 55.4053 90.3452 55.116C90.3452 54.8453 90.4292 54.626 90.5972 54.458C90.7746 54.29 91.0126 54.206 91.3112 54.206C91.6192 54.206 91.8572 54.2853 92.0252 54.444C92.1932 54.6027 92.2772 54.8267 92.2772 55.116C92.2772 55.3867 92.1886 55.606 92.0112 55.774C91.8432 55.942 91.6099 56.026 91.3112 56.026ZM97.5597 68.22C97.0371 68.22 96.5144 68.136 95.9917 67.968C95.4784 67.8093 95.0631 67.5993 94.7457 67.338L95.2777 66.218C95.4644 66.358 95.6837 66.4793 95.9357 66.582C96.1877 66.694 96.4537 66.778 96.7337 66.834C97.0137 66.8993 97.2891 66.932 97.5597 66.932C98.0731 66.932 98.5024 66.848 98.8477 66.68C99.1931 66.512 99.4544 66.2647 99.6317 65.938C99.8091 65.6113 99.8977 65.2053 99.8977 64.72V63.306L100.052 63.404C100.005 63.6933 99.8511 63.9733 99.5897 64.244C99.3377 64.5053 99.0204 64.72 98.6377 64.888C98.2551 65.056 97.8631 65.14 97.4617 65.14C96.7617 65.14 96.1364 64.9767 95.5857 64.65C95.0444 64.314 94.6151 63.8613 94.2977 63.292C93.9804 62.7133 93.8217 62.0553 93.8217 61.318C93.8217 60.5807 93.9757 59.9273 94.2837 59.358C94.6011 58.7793 95.0304 58.3267 95.5717 58C96.1224 57.664 96.7384 57.496 97.4197 57.496C97.6997 57.496 97.9704 57.5333 98.2317 57.608C98.4931 57.6733 98.7357 57.7713 98.9597 57.902C99.1837 58.0233 99.3844 58.1587 99.5617 58.308C99.7391 58.4573 99.8837 58.616 99.9957 58.784C100.108 58.952 100.178 59.1107 100.206 59.26L99.8977 59.372V57.65H101.34V64.552C101.34 65.14 101.251 65.658 101.074 66.106C100.906 66.5633 100.658 66.946 100.332 67.254C100.005 67.5713 99.6084 67.8093 99.1417 67.968C98.6751 68.136 98.1477 68.22 97.5597 68.22ZM97.6157 63.81C98.0731 63.81 98.4791 63.7027 98.8337 63.488C99.1884 63.2733 99.4637 62.9793 99.6597 62.606C99.8557 62.2327 99.9537 61.8033 99.9537 61.318C99.9537 60.8327 99.8511 60.4033 99.6457 60.03C99.4497 59.6473 99.1744 59.3487 98.8197 59.134C98.4744 58.9193 98.0731 58.812 97.6157 58.812C97.1677 58.812 96.7664 58.924 96.4117 59.148C96.0664 59.3627 95.7911 59.6613 95.5857 60.044C95.3897 60.4173 95.2917 60.842 95.2917 61.318C95.2917 61.794 95.3897 62.2233 95.5857 62.606C95.7911 62.9793 96.0664 63.2733 96.4117 63.488C96.7664 63.7027 97.1677 63.81 97.6157 63.81ZM103.362 65V54.64H104.804V59.162L104.552 59.33C104.645 59.0033 104.827 58.7047 105.098 58.434C105.368 58.154 105.69 57.93 106.064 57.762C106.437 57.5847 106.82 57.496 107.212 57.496C107.772 57.496 108.238 57.608 108.612 57.832C108.985 58.0467 109.265 58.378 109.452 58.826C109.638 59.274 109.732 59.8387 109.732 60.52V65H108.29V60.618C108.29 60.198 108.234 59.8527 108.122 59.582C108.01 59.302 107.837 59.1013 107.604 58.98C107.37 58.8493 107.081 58.7933 106.736 58.812C106.456 58.812 106.199 58.8587 105.966 58.952C105.732 59.036 105.527 59.1573 105.35 59.316C105.182 59.4747 105.046 59.6613 104.944 59.876C104.85 60.0813 104.804 60.3053 104.804 60.548V65H104.09C103.968 65 103.847 65 103.726 65C103.604 65 103.483 65 103.362 65ZM112.598 65V55.774H114.04V65H112.598ZM111.072 59.05V57.65H115.748V59.05H111.072ZM119.567 65.14C118.876 65.14 118.274 64.9813 117.761 64.664C117.257 64.3467 116.781 63.8147 116.333 63.068L117.509 62.326C117.742 62.6713 117.971 62.956 118.195 63.18C118.428 63.3947 118.666 63.5533 118.909 63.656C119.151 63.7587 119.408 63.81 119.679 63.81C120.005 63.81 120.309 63.7307 120.589 63.572C120.869 63.404 121.093 63.1753 121.261 62.886C121.429 62.5967 121.513 62.27 121.513 61.906C121.513 61.542 121.447 61.234 121.317 60.982C121.186 60.7207 120.995 60.5247 120.743 60.394C120.491 60.254 120.192 60.184 119.847 60.184C119.688 60.184 119.52 60.2027 119.343 60.24C119.175 60.268 118.993 60.3147 118.797 60.38C118.601 60.436 118.386 60.5107 118.153 60.604L117.733 59.498L120.757 56.166L121.051 56.6H116.879V55.2H122.493L122.773 55.76L119.567 59.316L119.217 58.952C119.291 58.9147 119.413 58.882 119.581 58.854C119.758 58.8167 119.903 58.798 120.015 58.798C120.425 58.798 120.808 58.8773 121.163 59.036C121.527 59.1853 121.839 59.4 122.101 59.68C122.371 59.9507 122.581 60.2727 122.731 60.646C122.889 61.01 122.969 61.402 122.969 61.822C122.969 62.4567 122.815 63.026 122.507 63.53C122.208 64.0247 121.802 64.4167 121.289 64.706C120.775 64.9953 120.201 65.14 119.567 65.14ZM125.059 65.154C124.751 65.154 124.513 65.0653 124.345 64.888C124.177 64.7013 124.093 64.44 124.093 64.104C124.093 63.796 124.182 63.544 124.359 63.348C124.536 63.152 124.77 63.054 125.059 63.054C125.367 63.054 125.605 63.1473 125.773 63.334C125.941 63.5113 126.025 63.768 126.025 64.104C126.025 64.412 125.936 64.664 125.759 64.86C125.582 65.056 125.348 65.154 125.059 65.154ZM127.894 65V57.65H129.336V65H127.894ZM128.594 56.026C128.286 56.026 128.048 55.9467 127.88 55.788C127.712 55.6293 127.628 55.4053 127.628 55.116C127.628 54.8453 127.712 54.626 127.88 54.458C128.058 54.29 128.296 54.206 128.594 54.206C128.902 54.206 129.14 54.2853 129.308 54.444C129.476 54.6027 129.56 54.8267 129.56 55.116C129.56 55.3867 129.472 55.606 129.294 55.774C129.126 55.942 128.893 56.026 128.594 56.026ZM134.857 65.14C134.138 65.14 133.494 64.9767 132.925 64.65C132.365 64.314 131.922 63.8613 131.595 63.292C131.268 62.7133 131.105 62.0553 131.105 61.318C131.105 60.5807 131.268 59.9273 131.595 59.358C131.922 58.7793 132.365 58.3267 132.925 58C133.494 57.664 134.138 57.496 134.857 57.496C135.566 57.496 136.201 57.664 136.761 58C137.33 58.3267 137.778 58.7793 138.105 59.358C138.432 59.9273 138.595 60.5807 138.595 61.318C138.595 62.0553 138.432 62.7133 138.105 63.292C137.778 63.8613 137.33 64.314 136.761 64.65C136.201 64.9767 135.566 65.14 134.857 65.14ZM134.857 63.824C135.296 63.824 135.688 63.7167 136.033 63.502C136.378 63.278 136.649 62.9793 136.845 62.606C137.041 62.2233 137.134 61.794 137.125 61.318C137.134 60.8327 137.041 60.4033 136.845 60.03C136.649 59.6473 136.378 59.3487 136.033 59.134C135.688 58.9193 135.296 58.812 134.857 58.812C134.418 58.812 134.022 58.924 133.667 59.148C133.322 59.3627 133.051 59.6613 132.855 60.044C132.659 60.4173 132.566 60.842 132.575 61.318C132.566 61.794 132.659 62.2233 132.855 62.606C133.051 62.9793 133.322 63.278 133.667 63.502C134.022 63.7167 134.418 63.824 134.857 63.824Z" fill="#667085"/>
<a href="https://sight3.io">
<rect fill="black" fill-opacity="0" y="0.25" width="108.155" height="17.5"/>
</a>
<path d="M213.167 47H235.833M235.833 47L227.333 38.5M235.833 47L227.333 55.5" stroke="white" stroke-width="2" stroke-linecap="round" stroke-linejoin="round"/>
<line x1="370" y1="37.5" x2="370" y2="56.5" stroke="#6666FF" stroke-width="2"/>
<path d="M386.943 44.6477H385.17C385.102 44.2689 384.975 43.9356 384.79 43.6477C384.604 43.3598 384.377 43.1155 384.108 42.9148C383.839 42.714 383.538 42.5625 383.205 42.4602C382.875 42.358 382.525 42.3068 382.153 42.3068C381.483 42.3068 380.883 42.4754 380.352 42.8125C379.826 43.1496 379.409 43.6439 379.102 44.2955C378.799 44.947 378.648 45.7424 378.648 46.6818C378.648 47.6288 378.799 48.428 379.102 49.0795C379.409 49.7311 379.828 50.2235 380.358 50.5568C380.888 50.8902 381.485 51.0568 382.148 51.0568C382.515 51.0568 382.864 51.0076 383.193 50.9091C383.527 50.8068 383.828 50.6572 384.097 50.4602C384.366 50.2633 384.593 50.0227 384.778 49.7386C384.968 49.4508 385.098 49.1212 385.17 48.75L386.943 48.7557C386.848 49.3277 386.665 49.8542 386.392 50.3352C386.123 50.8125 385.777 51.2254 385.352 51.5739C384.932 51.9186 384.451 52.1856 383.909 52.375C383.367 52.5644 382.777 52.6591 382.136 52.6591C381.129 52.6591 380.231 52.4205 379.443 51.9432C378.655 51.4621 378.034 50.7746 377.58 49.8807C377.129 48.9867 376.903 47.9205 376.903 46.6818C376.903 45.4394 377.131 44.3731 377.585 43.483C378.04 42.589 378.661 41.9034 379.449 41.4261C380.237 40.9451 381.133 40.7045 382.136 40.7045C382.754 40.7045 383.33 40.7936 383.864 40.9716C384.402 41.1458 384.884 41.4034 385.312 41.7443C385.741 42.0814 386.095 42.4943 386.375 42.983C386.655 43.4678 386.845 44.0227 386.943 44.6477ZM390.607 47.3182V52.5H388.908V40.8636H390.584V45.1932H390.692C390.896 44.7235 391.209 44.3504 391.629 44.0739C392.05 43.7973 392.599 43.6591 393.277 43.6591C393.875 43.6591 394.398 43.7822 394.845 44.0284C395.296 44.2746 395.644 44.642 395.891 45.1307C396.141 45.6155 396.266 46.2216 396.266 46.9489V52.5H394.567V47.1534C394.567 46.5133 394.402 46.017 394.072 45.6648C393.743 45.3087 393.285 45.1307 392.697 45.1307C392.296 45.1307 391.936 45.2159 391.618 45.3864C391.304 45.5568 391.055 45.8068 390.874 46.1364C390.696 46.4621 390.607 46.8561 390.607 47.3182ZM402.209 52.6761C401.391 52.6761 400.677 52.4886 400.067 52.1136C399.457 51.7386 398.983 51.214 398.646 50.5398C398.309 49.8655 398.141 49.0777 398.141 48.1761C398.141 47.2708 398.309 46.4792 398.646 45.8011C398.983 45.1231 399.457 44.5966 400.067 44.2216C400.677 43.8466 401.391 43.6591 402.209 43.6591C403.027 43.6591 403.741 43.8466 404.351 44.2216C404.961 44.5966 405.434 45.1231 405.771 45.8011C406.108 46.4792 406.277 47.2708 406.277 48.1761C406.277 49.0777 406.108 49.8655 405.771 50.5398C405.434 51.214 404.961 51.7386 404.351 52.1136C403.741 52.4886 403.027 52.6761 402.209 52.6761ZM402.214 51.25C402.745 51.25 403.184 51.1098 403.533 50.8295C403.881 50.5492 404.139 50.1761 404.305 49.7102C404.476 49.2443 404.561 48.7311 404.561 48.1705C404.561 47.6136 404.476 47.1023 404.305 46.6364C404.139 46.1667 403.881 45.7898 403.533 45.5057C403.184 45.2216 402.745 45.0795 402.214 45.0795C401.68 45.0795 401.237 45.2216 400.885 45.5057C400.536 45.7898 400.277 46.1667 400.107 46.6364C399.94 47.1023 399.857 47.6136 399.857 48.1705C399.857 48.7311 399.94 49.2443 400.107 49.7102C400.277 50.1761 400.536 50.5492 400.885 50.8295C401.237 51.1098 401.68 51.25 402.214 51.25ZM411.849 52.6761C411.031 52.6761 410.317 52.4886 409.707 52.1136C409.098 51.7386 408.624 51.214 408.287 50.5398C407.95 49.8655 407.781 49.0777 407.781 48.1761C407.781 47.2708 407.95 46.4792 408.287 45.8011C408.624 45.1231 409.098 44.5966 409.707 44.2216C410.317 43.8466 411.031 43.6591 411.849 43.6591C412.668 43.6591 413.382 43.8466 413.991 44.2216C414.601 44.5966 415.075 45.1231 415.412 45.8011C415.749 46.4792 415.918 47.2708 415.918 48.1761C415.918 49.0777 415.749 49.8655 415.412 50.5398C415.075 51.214 414.601 51.7386 413.991 52.1136C413.382 52.4886 412.668 52.6761 411.849 52.6761ZM411.855 51.25C412.385 51.25 412.825 51.1098 413.173 50.8295C413.522 50.5492 413.779 50.1761 413.946 49.7102C414.116 49.2443 414.202 48.7311 414.202 48.1705C414.202 47.6136 414.116 47.1023 413.946 46.6364C413.779 46.1667 413.522 45.7898 413.173 45.5057C412.825 45.2216 412.385 45.0795 411.855 45.0795C411.321 45.0795 410.878 45.2216 410.526 45.5057C410.177 45.7898 409.918 46.1667 409.747 46.6364C409.58 47.1023 409.497 47.6136 409.497 48.1705C409.497 48.7311 409.58 49.2443 409.747 49.7102C409.918 50.1761 410.177 50.5492 410.526 50.8295C410.878 51.1098 411.321 51.25 411.855 51.25ZM424.354 45.9034L422.814 46.1761C422.75 45.9792 422.647 45.7917 422.507 45.6136C422.371 45.4356 422.185 45.2898 421.95 45.1761C421.715 45.0625 421.422 45.0057 421.07 45.0057C420.589 45.0057 420.187 45.1136 419.865 45.3295C419.543 45.5417 419.382 45.8163 419.382 46.1534C419.382 46.4451 419.49 46.6799 419.706 46.858C419.922 47.036 420.27 47.1818 420.751 47.2955L422.138 47.6136C422.941 47.7992 423.539 48.0852 423.933 48.4716C424.327 48.858 424.524 49.3598 424.524 49.9773C424.524 50.5 424.373 50.9659 424.07 51.375C423.77 51.7803 423.352 52.0985 422.814 52.3295C422.28 52.5606 421.661 52.6761 420.956 52.6761C419.979 52.6761 419.181 52.4678 418.564 52.0511C417.946 51.6307 417.568 51.0341 417.428 50.2614L419.07 50.0114C419.172 50.4394 419.382 50.7633 419.7 50.983C420.018 51.1989 420.433 51.3068 420.945 51.3068C421.501 51.3068 421.946 51.1913 422.28 50.9602C422.613 50.7254 422.78 50.4394 422.78 50.1023C422.78 49.8295 422.678 49.6004 422.473 49.4148C422.272 49.2292 421.964 49.089 421.547 48.9943L420.07 48.6705C419.255 48.4848 418.653 48.1894 418.263 47.7841C417.876 47.3788 417.683 46.8655 417.683 46.2443C417.683 45.7292 417.827 45.2784 418.115 44.892C418.403 44.5057 418.801 44.2045 419.308 43.9886C419.816 43.7689 420.397 43.6591 421.053 43.6591C421.996 43.6591 422.738 43.8636 423.28 44.2727C423.821 44.678 424.179 45.2216 424.354 45.9034ZM430.153 52.6761C429.294 52.6761 428.553 52.4924 427.932 52.125C427.314 51.7538 426.837 51.233 426.5 50.5625C426.167 49.8883 426 49.0985 426 48.1932C426 47.2992 426.167 46.5114 426.5 45.8295C426.837 45.1477 427.307 44.6155 427.909 44.233C428.515 43.8504 429.223 43.6591 430.034 43.6591C430.527 43.6591 431.004 43.7405 431.466 43.9034C431.928 44.0663 432.343 44.322 432.71 44.6705C433.078 45.0189 433.367 45.4716 433.58 46.0284C433.792 46.5814 433.898 47.2538 433.898 48.0455V48.6477H426.96V47.375H432.233C432.233 46.928 432.142 46.5322 431.96 46.1875C431.778 45.839 431.523 45.5644 431.193 45.3636C430.867 45.1629 430.485 45.0625 430.045 45.0625C429.568 45.0625 429.152 45.1799 428.795 45.4148C428.443 45.6458 428.17 45.9489 427.977 46.3239C427.788 46.6951 427.693 47.0985 427.693 47.5341V48.5284C427.693 49.1117 427.795 49.608 428 50.017C428.208 50.4261 428.498 50.7386 428.869 50.9545C429.241 51.1667 429.674 51.2727 430.17 51.2727C430.492 51.2727 430.786 51.2273 431.051 51.1364C431.316 51.0417 431.545 50.9015 431.739 50.7159C431.932 50.5303 432.08 50.3011 432.182 50.0284L433.79 50.3182C433.661 50.7917 433.43 51.2064 433.097 51.5625C432.767 51.9148 432.352 52.1894 431.852 52.3864C431.356 52.5795 430.79 52.6761 430.153 52.6761ZM447.928 52.6761C447.083 52.6761 446.356 52.4848 445.746 52.1023C445.14 51.7159 444.674 51.1837 444.348 50.5057C444.022 49.8277 443.859 49.0511 443.859 48.1761C443.859 47.2898 444.026 46.5076 444.359 45.8295C444.693 45.1477 445.162 44.6155 445.768 44.233C446.375 43.8504 447.089 43.6591 447.911 43.6591C448.573 43.6591 449.164 43.7822 449.683 44.0284C450.202 44.2708 450.621 44.6117 450.939 45.0511C451.261 45.4905 451.452 46.0038 451.513 46.5909H449.859C449.768 46.1818 449.56 45.8295 449.234 45.5341C448.912 45.2386 448.481 45.0909 447.939 45.0909C447.465 45.0909 447.051 45.2159 446.695 45.4659C446.342 45.7121 446.068 46.0644 445.871 46.5227C445.674 46.9773 445.575 47.5152 445.575 48.1364C445.575 48.7727 445.672 49.322 445.865 49.7841C446.058 50.2462 446.331 50.6042 446.683 50.858C447.039 51.1117 447.458 51.2386 447.939 51.2386C448.261 51.2386 448.553 51.1799 448.814 51.0625C449.079 50.9413 449.301 50.7689 449.479 50.5455C449.661 50.322 449.787 50.053 449.859 49.7386H451.513C451.452 50.303 451.268 50.8068 450.962 51.25C450.655 51.6932 450.244 52.0417 449.729 52.2955C449.217 52.5492 448.617 52.6761 447.928 52.6761ZM457.006 52.6761C456.188 52.6761 455.473 52.4886 454.864 52.1136C454.254 51.7386 453.78 51.214 453.443 50.5398C453.106 49.8655 452.938 49.0777 452.938 48.1761C452.938 47.2708 453.106 46.4792 453.443 45.8011C453.78 45.1231 454.254 44.5966 454.864 44.2216C455.473 43.8466 456.188 43.6591 457.006 43.6591C457.824 43.6591 458.538 43.8466 459.148 44.2216C459.758 44.5966 460.231 45.1231 460.568 45.8011C460.905 46.4792 461.074 47.2708 461.074 48.1761C461.074 49.0777 460.905 49.8655 460.568 50.5398C460.231 51.214 459.758 51.7386 459.148 52.1136C458.538 52.4886 457.824 52.6761 457.006 52.6761ZM457.011 51.25C457.542 51.25 457.981 51.1098 458.33 50.8295C458.678 50.5492 458.936 50.1761 459.102 49.7102C459.273 49.2443 459.358 48.7311 459.358 48.1705C459.358 47.6136 459.273 47.1023 459.102 46.6364C458.936 46.1667 458.678 45.7898 458.33 45.5057C457.981 45.2216 457.542 45.0795 457.011 45.0795C456.477 45.0795 456.034 45.2216 455.682 45.5057C455.333 45.7898 455.074 46.1667 454.903 46.6364C454.737 47.1023 454.653 47.6136 454.653 48.1705C454.653 48.7311 454.737 49.2443 454.903 49.7102C455.074 50.1761 455.333 50.5492 455.682 50.8295C456.034 51.1098 456.477 51.25 457.011 51.25ZM464.669 40.8636V52.5H462.97V40.8636H464.669ZM472.483 48.8807V43.7727H474.188V52.5H472.517V50.9886H472.426C472.225 51.4545 471.903 51.8428 471.46 52.1534C471.021 52.4602 470.473 52.6136 469.818 52.6136C469.258 52.6136 468.761 52.4905 468.33 52.2443C467.902 51.9943 467.564 51.625 467.318 51.1364C467.076 50.6477 466.955 50.0436 466.955 49.3239V43.7727H468.653V49.1193C468.653 49.714 468.818 50.1875 469.148 50.5398C469.477 50.892 469.905 51.0682 470.432 51.0682C470.75 51.0682 471.066 50.9886 471.381 50.8295C471.699 50.6705 471.962 50.4299 472.17 50.108C472.383 49.786 472.487 49.3769 472.483 48.8807ZM476.47 52.5V43.7727H478.101V45.1932H478.209C478.391 44.7121 478.688 44.3371 479.101 44.0682C479.514 43.7955 480.008 43.6591 480.584 43.6591C481.167 43.6591 481.656 43.7955 482.05 44.0682C482.447 44.3409 482.741 44.7159 482.93 45.1932H483.021C483.23 44.7273 483.561 44.3561 484.016 44.0795C484.47 43.7992 485.012 43.6591 485.641 43.6591C486.432 43.6591 487.078 43.9072 487.578 44.4034C488.082 44.8996 488.334 45.6477 488.334 46.6477V52.5H486.635V46.8068C486.635 46.2159 486.474 45.7879 486.152 45.5227C485.83 45.2576 485.446 45.125 484.999 45.125C484.446 45.125 484.016 45.2955 483.709 45.6364C483.402 45.9735 483.249 46.4072 483.249 46.9375V52.5H481.555V46.6989C481.555 46.2254 481.408 45.8447 481.112 45.5568C480.817 45.2689 480.432 45.125 479.959 45.125C479.637 45.125 479.339 45.2102 479.067 45.3807C478.798 45.5473 478.58 45.7803 478.413 46.0795C478.25 46.3788 478.169 46.7254 478.169 47.1193V52.5H476.47ZM492.31 47.3182V52.5H490.611V43.7727H492.241V45.1932H492.349C492.55 44.7311 492.865 44.3598 493.293 44.0795C493.724 43.7992 494.268 43.6591 494.923 43.6591C495.518 43.6591 496.039 43.7841 496.486 44.0341C496.933 44.2803 497.279 44.6477 497.526 45.1364C497.772 45.625 497.895 46.2292 497.895 46.9489V52.5H496.196V47.1534C496.196 46.5208 496.031 46.0265 495.702 45.6705C495.372 45.3106 494.92 45.1307 494.344 45.1307C493.95 45.1307 493.599 45.2159 493.293 45.3864C492.99 45.5568 492.749 45.8068 492.571 46.1364C492.397 46.4621 492.31 46.8561 492.31 47.3182Z" fill="#98A2B3"/>
<path d="M601 44L607 50L613 44" stroke="#98A2B3" stroke-width="2" stroke-linecap="round" stroke-linejoin="round"/>
<rect x="1" y="1" width="657" height="92" rx="19" stroke="url(#paint1_linear_1_8548)" stroke-width="2"/>
<defs>
<linearGradient id="paint0_linear_1_8548" x1="-3.41525e-05" y1="-195.301" x2="127.995" y2="166.929" gradientUnits="userSpaceOnUse">
<stop stop-color="#262626"/>
<stop offset="1" stop-color="#141414"/>
</linearGradient>
<linearGradient id="paint1_linear_1_8548" x1="93.8159" y1="-92.1747" x2="203.946" y2="150.888" gradientUnits="userSpaceOnUse">
<stop stop-color="#393939"/>
<stop offset="1" stop-opacity="0"/>
</linearGradient>
</defs>
</svg>
