<svg width="28" height="28" viewBox="0 0 28 28" fill="none" xmlns="http://www.w3.org/2000/svg">
<path d="M8.16667 9.91667H14M8.16667 14H17.5M8.16667 21V23.7248C8.16667 24.3464 8.16667 24.6572 8.2941 24.8169C8.40493 24.9557 8.57298 25.0365 8.75063 25.0363C8.9549 25.0361 9.19762 24.8419 9.68305 24.4536L12.4661 22.2271C13.0346 21.7723 13.3189 21.5449 13.6354 21.3832C13.9162 21.2397 14.2152 21.1349 14.5241 21.0715C14.8723 21 15.2363 21 15.9644 21H18.9C20.8602 21 21.8403 21 22.589 20.6185C23.2475 20.283 23.783 19.7475 24.1185 19.089C24.5 18.3403 24.5 17.3602 24.5 15.4V9.1C24.5 7.13982 24.5 6.15972 24.1185 5.41103C23.783 4.75247 23.2475 4.21703 22.589 3.88148C21.8403 3.5 20.8602 3.5 18.9 3.5H9.1C7.13982 3.5 6.15972 3.5 5.41103 3.88148C4.75247 4.21703 4.21703 4.75247 3.88148 5.41103C3.5 6.15972 3.5 7.13982 3.5 9.1V16.3333C3.5 17.4183 3.5 17.9608 3.61926 18.4059C3.94289 19.6137 4.88631 20.5571 6.09413 20.8807C6.53922 21 7.0817 21 8.16667 21Z" stroke="#72777B" stroke-width="2" stroke-linecap="round" stroke-linejoin="round"/>
<circle cx="21" cy="5" r="4.5" fill="#6666FF" stroke="white"/>
</svg>
