<svg fill="#FFFFFF" xmlns="http://www.w3.org/2000/svg"  viewBox="0 0 72 72" width="64px" height="64px"><path d="M 25 14 C 18.935 14 14 18.935 14 25 L 14 26 C 14 28.209 15.791 30 18 30 C 20.209 30 22 28.209 22 26 L 22 25 C 22 23.346 23.346 22 25 22 L 47 22 C 48.654 22 50 23.346 50 25 L 50 26 L 47.832031 26 C 46.359031 26 45.489219 27.654188 46.324219 28.867188 L 52.492188 37.818359 C 53.219187 38.873359 54.778859 38.873359 55.505859 37.818359 L 61.673828 28.867188 C 62.510828 27.654188 61.641969 26 60.167969 26 L 58 26 L 58 25 C 58 18.935 53.065 14 47 14 L 25 14 z M 18 33.390625 C 17.4285 33.390625 16.857641 33.654141 16.494141 34.181641 L 10.326172 43.132812 C 9.4891719 44.345812 10.358031 46 11.832031 46 L 14 46 L 14 47 C 14 53.065 18.935 58 25 58 L 47 58 C 53.065 58 58 53.065 58 47 L 58 46 C 58 43.791 56.209 42 54 42 C 51.791 42 50 43.791 50 46 L 50 47 C 50 48.654 48.654 50 47 50 L 25 50 C 23.346 50 22 48.654 22 47 L 22 46 L 24.167969 46 C 25.640969 46 26.510781 44.345812 25.675781 43.132812 L 19.507812 34.181641 C 19.144313 33.654141 18.5715 33.390625 18 33.390625 z"/></svg>