<svg width="24" height="18" viewBox="0 0 24 18" fill="none" xmlns="http://www.w3.org/2000/svg">
<path d="M3.67031 7.54763C3.67031 8.00509 3.9375 8.36552 4.45781 8.62891C4.97813 8.8923 5.59688 9.14182 6.32812 9.36362C7.05937 9.58543 7.80469 9.80723 8.56406 10.0429C9.32344 10.2786 9.97031 10.7083 10.4766 11.3321C10.9969 11.9698 11.25 12.76 11.25 13.7165C11.25 15.0473 10.7297 16.1008 9.68906 16.8633C8.64844 17.6257 7.34062 18 5.75156 18C4.35938 18 3.16406 17.7089 2.16563 17.1405C1.18125 16.5583 0.45 15.7681 0 14.7423L2.61563 13.2451C3.10781 14.5759 4.14844 15.2414 5.75156 15.2414C7.35469 15.2414 8.14219 14.7284 8.14219 13.6887C8.14219 13.2451 7.88906 12.8847 7.36875 12.6075C6.84844 12.3302 6.22969 12.0807 5.49844 11.8589C4.76719 11.6371 4.02187 11.4014 3.2625 11.1658C2.50312 10.9301 1.85625 10.5142 1.33594 9.91813C0.815625 9.32204 0.5625 8.5596 0.5625 7.63081C0.5625 6.35545 1.05469 5.32962 2.03906 4.53945C3.02344 3.76315 4.24688 3.375 5.72344 3.375C6.89062 3.375 7.93125 3.62453 8.84531 4.13744C9.74531 4.65036 10.4484 5.35735 10.9406 6.27227L8.38125 7.68625C7.88906 6.6327 7.00313 6.09206 5.72344 6.09206C5.14688 6.09206 4.65469 6.21682 4.26094 6.46635C3.86719 6.71588 3.67031 7.0763 3.67031 7.54763Z" fill="black"/>
<path d="M19.7339 7.23023C20.9938 7.53254 22.0291 8.12456 22.815 9.0063C23.6008 9.88803 24 10.9965 24 12.3191C24 14.0826 23.4137 15.4808 22.2287 16.4885C21.0437 17.4962 19.5967 18 17.8753 18C16.5405 18 15.343 17.6851 14.2827 17.0679C13.2225 16.4507 12.4615 15.5311 12 14.3345L14.4449 12.8985C14.9563 14.4101 16.1039 15.1659 17.8753 15.1659C18.8732 15.1659 19.6715 14.9139 20.2453 14.3975C20.8191 13.881 21.1185 13.1882 21.1185 12.3191C21.1185 11.4374 20.8316 10.7572 20.2453 10.2533C19.659 9.74947 18.8732 9.49755 17.8753 9.49755H17.2266L16.079 7.75927L19.8586 2.73338H12.5239V0H23.2765V2.46886L19.7339 7.23023Z" fill="black"/>
</svg>
