<svg xmlns="http://www.w3.org/2000/svg" width="52" height="36" viewBox="0 0 52 36" fill="none">
<path fill-rule="evenodd" clip-rule="evenodd" d="M28.0088 0.705132C25.1943 1.32551 22.9548 2.56545 21.0187 4.57487C20.4691 5.14524 19.9016 5.77232 19.7573 5.9682C19.5013 6.31587 19.474 6.3215 18.6339 6.20163C14.8979 5.66814 10.9152 8.17686 9.55682 11.919C9.38225 12.4 9.20044 13.1244 9.15284 13.529C9.08218 14.1307 9.01514 14.2756 8.78346 14.327C8.62793 14.3616 7.77211 14.5337 6.88171 14.7096C5.0478 15.0719 4.59689 15.2537 3.70649 15.9895C-0.116862 19.1489 -1.02483 25.389 1.68889 29.8561C2.31248 30.8827 3.82595 32.4844 4.88945 33.2433C5.9862 34.0259 7.71821 34.832 9.1039 35.2047L10.2436 35.5112H26.3999C44.6395 35.5112 43.2003 35.5916 45.6712 34.4343C48.0268 33.3308 49.7446 31.6734 50.8081 29.4777C52.0664 26.8798 52.2076 24.3605 51.2554 21.5001C50.5141 19.2738 48.7323 17.0974 46.7735 16.0259L45.7617 15.4724L45.6023 13.8942C45.0515 8.44193 42.1923 4.165 37.5922 1.9125C35.5067 0.891232 34.035 0.557915 31.3607 0.500932C29.5648 0.46272 28.9341 0.5012 28.0088 0.705132ZM35.4308 13.1316C37.8155 13.7464 39.666 15.5235 40.4978 17.9974C40.915 19.2381 40.9109 21.2076 40.4886 22.4387C39.4965 25.3308 37.1511 27.1753 34.0936 27.4682C31.2824 27.7373 28.4907 26.0766 26.9913 23.2431C26.7766 22.8375 26.584 22.4786 26.563 22.4454C26.5421 22.4122 25.8699 23.0381 25.0692 23.8364C23.9331 24.969 23.5333 25.2878 23.2489 25.2878C22.964 25.2878 22.5579 24.962 21.3847 23.7922L19.8848 22.2965L19.0976 23.1878C18.3143 24.0743 17.6572 24.5824 17.2927 24.5834C17.1876 24.5836 16.2072 23.6966 15.1139 22.612C12.623 20.141 12.6521 20.2905 14.3356 18.6146L15.545 17.4108L21.1643 17.3717L26.7835 17.3327L27.0809 16.7185C27.4579 15.9397 28.7588 14.543 29.6248 13.9872C31.1657 12.9985 33.551 12.647 35.4308 13.1316ZM35.1775 18.5502C33.4133 19.4234 34.0401 22.0379 36.0132 22.0359C36.5876 22.0354 37.2831 21.6652 37.575 21.2049C38.1583 20.2842 37.8308 19.0468 36.8745 18.5589C36.197 18.2134 35.8616 18.2116 35.1775 18.5502Z" fill="#6666FF"/>
</svg>