<svg xmlns="http://www.w3.org/2000/svg" width="31" height="31" viewBox="0 0 31 31" fill="none">
  <path d="M14.516 3.85845C14.9718 2.67324 15.1998 2.08063 15.5263 1.90499C15.8221 1.74591 16.1779 1.74591 16.4737 1.90499C16.8002 2.08063 17.0282 2.67324 17.484 3.85845L18.8903 7.51477C19.3603 8.73682 19.5953 9.34785 19.9608 9.86181C20.2847 10.3173 20.6827 10.7153 21.1382 11.0392C21.6522 11.4047 22.2632 11.6397 23.4852 12.1097L27.1415 13.516C28.3268 13.9718 28.9194 14.1998 29.095 14.5263C29.2541 14.8221 29.2541 15.1779 29.095 15.4737C28.9194 15.8002 28.3268 16.0282 27.1415 16.484L23.4852 17.8903C22.2632 18.3603 21.6522 18.5953 21.1382 18.9608C20.6827 19.2847 20.2847 19.6827 19.9608 20.1382C19.5953 20.6522 19.3603 21.2632 18.8903 22.4852L17.484 26.1415C17.0282 27.3268 16.8002 27.9194 16.4737 28.095C16.1779 28.2541 15.8221 28.2541 15.5263 28.095C15.1998 27.9194 14.9718 27.3268 14.516 26.1415L13.1097 22.4852C12.6397 21.2632 12.4047 20.6522 12.0392 20.1382C11.7153 19.6827 11.3173 19.2847 10.8618 18.9608C10.3478 18.5953 9.73682 18.3603 8.51477 17.8903L4.85845 16.484C3.67324 16.0282 3.08063 15.8002 2.90499 15.4737C2.74591 15.1779 2.74591 14.8221 2.90499 14.5263C3.08063 14.1998 3.67324 13.9718 4.85845 13.516L8.51477 12.1097C9.73682 11.6397 10.3478 11.4047 10.8618 11.0392C11.3173 10.7153 11.7153 10.3173 12.0392 9.86181C12.4047 9.34785 12.6397 8.73682 13.1097 7.51477L14.516 3.85845Z" fill="#6666FF" stroke="black" stroke-linecap="round" stroke-linejoin="round"/>
</svg>