<svg width="21" height="21" viewBox="0 0 21 21" fill="none" xmlns="http://www.w3.org/2000/svg">
<g clip-path="url(#clip0_35_7052)">
<path d="M10.75 14.6666C13.0512 14.6666 14.9167 12.8011 14.9167 10.5C14.9167 8.19877 13.0512 6.33329 10.75 6.33329C8.4488 6.33329 6.58332 8.19877 6.58332 10.5C6.58332 12.8011 8.4488 14.6666 10.75 14.6666Z" fill="#171821"/>
<path d="M10.75 2.16663V3.83329M10.75 17.1666V18.8333M4.08332 10.5H2.41666M6.01175 5.76172L4.83324 4.58321M15.4882 5.76172L16.6667 4.58321M6.01175 15.2416L4.83324 16.4201M15.4882 15.2416L16.6667 16.4201M19.0833 10.5H17.4167M14.9167 10.5C14.9167 12.8011 13.0512 14.6666 10.75 14.6666C8.4488 14.6666 6.58332 12.8011 6.58332 10.5C6.58332 8.19877 8.4488 6.33329 10.75 6.33329C13.0512 6.33329 14.9167 8.19877 14.9167 10.5Z" stroke="#171821" stroke-width="2" stroke-linecap="round" stroke-linejoin="round"/>
</g>
<defs>
<clipPath id="clip0_35_7052">
<rect width="20" height="20" fill="white" transform="translate(0.75 0.5)"/>
</clipPath>
</defs>
</svg>
