<svg width="12" height="13" viewBox="0 0 12 13" fill="none" xmlns="http://www.w3.org/2000/svg">
<g id="trash" clip-path="url(#clip0_254_3156)">
<path id="Icon" d="M8 3.5V3.1C8 2.53995 8 2.25992 7.89101 2.04601C7.79513 1.85785 7.64215 1.70487 7.45399 1.60899C7.24008 1.5 6.96005 1.5 6.4 1.5H5.6C5.03995 1.5 4.75992 1.5 4.54601 1.60899C4.35785 1.70487 4.20487 1.85785 4.10899 2.04601C4 2.25992 4 2.53995 4 3.1V3.5M5 6.25V8.75M7 6.25V8.75M1.5 3.5H10.5M9.5 3.5V9.1C9.5 9.94008 9.5 10.3601 9.33651 10.681C9.1927 10.9632 8.96323 11.1927 8.68099 11.3365C8.36012 11.5 7.94008 11.5 7.1 11.5H4.9C4.05992 11.5 3.63988 11.5 3.31901 11.3365C3.03677 11.1927 2.8073 10.9632 2.66349 10.681C2.5 10.3601 2.5 9.94008 2.5 9.1V3.5" stroke="black" stroke-width="1.2" stroke-linecap="round" stroke-linejoin="round"/>
</g>
<defs>
<clipPath id="clip0_254_3156">
<rect width="12" height="12" fill="white" transform="translate(0 0.5)"/>
</clipPath>
</defs>
</svg>
