<svg width="24" height="24" viewBox="0 0 24 24" fill="none" xmlns="http://www.w3.org/2000/svg">
<path d="M21.7791 6.39507C21.0855 6.68924 20.354 6.88448 19.6061 6.97507C20.3921 6.52478 20.9832 5.79898 21.2651 4.93807C20.525 5.36776 19.7182 5.67029 18.8781 5.83307C18.3588 5.29141 17.6901 4.9165 16.9571 4.75607C16.2212 4.59385 15.4539 4.65229 14.7511 4.92407C14.0522 5.19367 13.45 5.66629 13.0221 6.28107C12.5986 6.89027 12.3712 7.61417 12.3701 8.35607C12.3681 8.63707 12.3981 8.91807 12.4571 9.19307C10.9662 9.12767 9.50502 8.75487 8.16507 8.09807C6.83253 7.44547 5.65124 6.52134 4.69707 5.38507C4.37188 5.93506 4.19478 6.55992 4.18304 7.19874C4.1713 7.83756 4.32532 8.46851 4.63007 9.03007C4.92207 9.56507 5.34507 10.0201 5.86007 10.3561C5.26251 10.3438 4.67681 10.187 4.15307 9.89907C4.15618 10.7543 4.45788 11.5816 5.00607 12.2381C5.55983 12.9011 6.32319 13.3555 7.17007 13.5261C6.85307 13.6061 6.52707 13.6471 6.20007 13.6501C5.9624 13.6518 5.72518 13.6294 5.49207 13.5831C5.73507 14.3151 6.20207 14.9561 6.83207 15.4161C7.46007 15.8761 8.21907 16.1341 9.00407 16.1531C7.65862 17.1802 6.01077 17.7327 4.31807 17.7241C4.02556 17.7143 3.73397 17.6859 3.44507 17.6391C5.06636 18.6724 6.93383 19.2547 8.85507 19.3261C10.7779 19.3994 12.6856 18.9593 14.3821 18.0511C16.0666 17.1508 17.4761 15.8115 18.4611 14.1751C19.4372 12.5511 19.9475 10.6898 19.9361 8.79507V8.30907C20.66 7.78688 21.2842 7.13793 21.7791 6.39507Z" fill="black"/>
</svg>
