<svg width="30" height="30" viewBox="0 0 30 30" fill="none" xmlns="http://www.w3.org/2000/svg">
<g clip-path="url(#clip0_274_4815)">
<path d="M3.75 18.75H9.375C9.87228 18.75 10.3492 18.9475 10.7008 19.2992C11.0525 19.6508 11.25 20.1277 11.25 20.625V26.25C11.25 26.7473 11.0525 27.2242 10.7008 27.5758C10.3492 27.9275 9.87228 28.125 9.375 28.125H3.75C3.25272 28.125 2.77581 27.9275 2.42417 27.5758C2.07254 27.2242 1.875 26.7473 1.875 26.25V20.625C1.875 20.1277 2.07254 19.6508 2.42417 19.2992C2.77581 18.9475 3.25272 18.75 3.75 18.75ZM20.625 1.875H26.25C26.7473 1.875 27.2242 2.07254 27.5758 2.42417C27.9275 2.77581 28.125 3.25272 28.125 3.75V9.375C28.125 9.87228 27.9275 10.3492 27.5758 10.7008C27.2242 11.0525 26.7473 11.25 26.25 11.25H20.625C20.1277 11.25 19.6508 11.0525 19.2992 10.7008C18.9475 10.3492 18.75 9.87228 18.75 9.375V3.75C18.75 3.25272 18.9475 2.77581 19.2992 2.42417C19.6508 2.07254 20.1277 1.875 20.625 1.875ZM20.625 18.75C20.1277 18.75 19.6508 18.9475 19.2992 19.2992C18.9475 19.6508 18.75 20.1277 18.75 20.625V26.25C18.75 26.7473 18.9475 27.2242 19.2992 27.5758C19.6508 27.9275 20.1277 28.125 20.625 28.125H26.25C26.7473 28.125 27.2242 27.9275 27.5758 27.5758C27.9275 27.2242 28.125 26.7473 28.125 26.25V20.625C28.125 20.1277 27.9275 19.6508 27.5758 19.2992C27.2242 18.9475 26.7473 18.75 26.25 18.75H20.625ZM20.625 0C19.6304 0 18.6766 0.395088 17.9734 1.09835C17.2701 1.80161 16.875 2.75544 16.875 3.75V9.375C16.875 10.3696 17.2701 11.3234 17.9734 12.0267C18.6766 12.7299 19.6304 13.125 20.625 13.125H26.25C27.2446 13.125 28.1984 12.7299 28.9016 12.0267C29.6049 11.3234 30 10.3696 30 9.375V3.75C30 2.75544 29.6049 1.80161 28.9016 1.09835C28.1984 0.395088 27.2446 0 26.25 0L20.625 0ZM3.75 16.875C2.75544 16.875 1.80161 17.2701 1.09835 17.9734C0.395088 18.6766 0 19.6304 0 20.625L0 26.25C0 27.2446 0.395088 28.1984 1.09835 28.9016C1.80161 29.6049 2.75544 30 3.75 30H9.375C10.3696 30 11.3234 29.6049 12.0267 28.9016C12.7299 28.1984 13.125 27.2446 13.125 26.25V20.625C13.125 19.6304 12.7299 18.6766 12.0267 17.9734C11.3234 17.2701 10.3696 16.875 9.375 16.875H3.75ZM16.875 20.625C16.875 19.6304 17.2701 18.6766 17.9734 17.9734C18.6766 17.2701 19.6304 16.875 20.625 16.875H26.25C27.2446 16.875 28.1984 17.2701 28.9016 17.9734C29.6049 18.6766 30 19.6304 30 20.625V26.25C30 27.2446 29.6049 28.1984 28.9016 28.9016C28.1984 29.6049 27.2446 30 26.25 30H20.625C19.6304 30 18.6766 29.6049 17.9734 28.9016C17.2701 28.1984 16.875 27.2446 16.875 26.25V20.625ZM0 3.75C0 2.75544 0.395088 1.80161 1.09835 1.09835C1.80161 0.395088 2.75544 0 3.75 0L9.375 0C10.3696 0 11.3234 0.395088 12.0267 1.09835C12.7299 1.80161 13.125 2.75544 13.125 3.75V9.375C13.125 10.3696 12.7299 11.3234 12.0267 12.0267C11.3234 12.7299 10.3696 13.125 9.375 13.125H3.75C2.75544 13.125 1.80161 12.7299 1.09835 12.0267C0.395088 11.3234 0 10.3696 0 9.375V3.75ZM10.0387 5.35125C10.1259 5.26409 10.1951 5.16061 10.2422 5.04672C10.2894 4.93283 10.3137 4.81077 10.3137 4.6875C10.3137 4.56423 10.2894 4.44217 10.2422 4.32828C10.1951 4.21439 10.1259 4.11091 10.0387 4.02375C9.95158 3.93658 9.84811 3.86744 9.73422 3.82027C9.62033 3.7731 9.49827 3.74882 9.375 3.74882C9.25173 3.74882 9.12967 3.7731 9.01578 3.82027C8.90189 3.86744 8.79842 3.93658 8.71125 4.02375L5.625 7.11188L4.41375 5.89875C4.32659 5.81158 4.22311 5.74244 4.10922 5.69527C3.99533 5.6481 3.87327 5.62382 3.75 5.62382C3.62673 5.62382 3.50467 5.6481 3.39078 5.69527C3.27689 5.74244 3.17341 5.81158 3.08625 5.89875C2.99909 5.98591 2.92994 6.08939 2.88277 6.20328C2.8356 6.31717 2.81132 6.43923 2.81132 6.5625C2.81132 6.68577 2.8356 6.80783 2.88277 6.92172C2.92994 7.03561 2.99909 7.13909 3.08625 7.22625L4.96125 9.10125C5.04834 9.18856 5.15179 9.25782 5.26569 9.30509C5.37958 9.35235 5.50169 9.37668 5.625 9.37668C5.74831 9.37668 5.87042 9.35235 5.98431 9.30509C6.09821 9.25782 6.20166 9.18856 6.28875 9.10125L10.0387 5.35125Z" fill="#7D7D7D"/>
</g>
<defs>
<clipPath id="clip0_274_4815">
<rect width="30" height="30" fill="white"/>
</clipPath>
</defs>
</svg>
