<svg width="31" height="31" viewBox="0 0 31 31" fill="none" xmlns="http://www.w3.org/2000/svg">
<path d="M6.64521 9.86953C11.5329 4.6571 19.4671 4.6571 24.3548 9.86953L24.9432 10.5017C25.19 10.7607 25.19 11.1856 24.9432 11.4447L22.9312 13.5897C22.8078 13.7245 22.6085 13.7245 22.4851 13.5897L21.6784 12.7296C18.2618 9.09233 12.7382 9.09233 9.32158 12.7296L8.45792 13.6519C8.33455 13.7866 8.13524 13.7866 8.01186 13.6519L5.99984 11.5068C5.75308 11.2478 5.75308 10.8229 5.99984 10.5638L6.64521 9.86953ZM28.5212 14.3048L30.3149 16.2115C30.5617 16.4706 30.5617 16.8954 30.3149 17.1545L22.2384 25.7659C21.9916 26.025 21.593 26.025 21.3557 25.7659L15.6234 19.6519C15.5664 19.5897 15.462 19.5897 15.4051 19.6519L9.67273 25.7659C9.42597 26.025 9.02736 26.025 8.7901 25.7659L0.685068 17.1545C0.438311 16.8954 0.438311 16.4706 0.685068 16.2115L2.4788 14.3048C2.72556 14.0457 3.12417 14.0457 3.36144 14.3048L9.0938 20.4188C9.15074 20.4809 9.25514 20.4809 9.31208 20.4188L15.0444 14.3048C15.2912 14.0457 15.6898 14.0457 15.9271 14.3048L21.6594 20.4188C21.7164 20.4809 21.8208 20.4809 21.8777 20.4188L27.6101 14.3048C27.8758 14.0457 28.2744 14.0457 28.5212 14.3048Z" fill="#6666FF"/>
</svg>
